<mxfile host="app.diagrams.net" agent="Mozilla/5.0 (Macintosh; Intel Mac OS X 10_15_7) AppleWebKit/537.36 (KHTML, like Gecko) Chrome/128.0.0.0 Safari/537.36" version="24.7.10">
  <diagram name="第 1 页" id="HxlfLJKwj89o5CKHovtF">
    <mxGraphModel dx="1004" dy="1816" grid="1" gridSize="10" guides="1" tooltips="1" connect="1" arrows="1" fold="1" page="1" pageScale="1" pageWidth="827" pageHeight="1169" math="0" shadow="0">
      <root>
        <mxCell id="0" />
        <mxCell id="1" parent="0" />
        <mxCell id="9cwglLM5n4MLdlPzuKQn-10" value="" style="rounded=1;whiteSpace=wrap;html=1;opacity=50;" parent="1" vertex="1">
          <mxGeometry x="160" y="400" width="450" height="170" as="geometry" />
        </mxCell>
        <mxCell id="9cwglLM5n4MLdlPzuKQn-1" value="" style="endArrow=none;dashed=1;html=1;rounded=0;strokeWidth=2;dashPattern=8 8;" parent="1" edge="1">
          <mxGeometry width="50" height="50" relative="1" as="geometry">
            <mxPoint x="40" y="280" as="sourcePoint" />
            <mxPoint x="800" y="280" as="targetPoint" />
          </mxGeometry>
        </mxCell>
        <mxCell id="9cwglLM5n4MLdlPzuKQn-3" value="" style="shape=image;verticalLabelPosition=bottom;verticalAlign=top;imageAspect=0;image=data:image/png,iVBORw0KGgoAAAANSUhEUgAAAVMAAAG3CAYAAAAJnrbgAAAACXBIWXMAAC4jAAAuIwF4pT92AAAE7mlUWHRYTUw6Y29tLmFkb2JlLnhtcAAAAAAAPD94cGFja2V0IGJlZ2luPSLvu78iIGlkPSJXNU0wTXBDZWhpSHpyZVN6TlRjemtjOWQiPz4gPHg6eG1wbWV0YSB4bWxuczp4PSJhZG9iZTpuczptZXRhLyIgeDp4bXB0az0iQWRvYmUgWE1QIENvcmUgOS4xLWMwMDEgNzkuYThkNDc1MywgMjAyMy8wMy8yMy0wODo1NjozNyAgICAgICAgIj4gPHJkZjpSREYgeG1sbnM6cmRmPSJodHRwOi8vd3d3LnczLm9yZy8xOTk5LzAyLzIyLXJkZi1zeW50YXgtbnMjIj4gPHJkZjpEZXNjcmlwdGlvbiByZGY6YWJvdXQ9IiIgeG1sbnM6eG1wPSJodHRwOi8vbnMuYWRvYmUuY29tL3hhcC8xLjAvIiB4bWxuczpkYz0iaHR0cDovL3B1cmwub3JnL2RjL2VsZW1lbnRzLzEuMS8iIHhtbG5zOnhtcE1NPSJodHRwOi8vbnMuYWRvYmUuY29tL3hhcC8xLjAvbW0vIiB4bWxuczpzdEV2dD0iaHR0cDovL25zLmFkb2JlLmNvbS94YXAvMS4wL3NUeXBlL1Jlc291cmNlRXZlbnQjIiB4bWxuczpwaG90b3Nob3A9Imh0dHA6Ly9ucy5hZG9iZS5jb20vcGhvdG9zaG9wLzEuMC8iIHhtcDpDcmVhdG9yVG9vbD0iQWRvYmUgUGhvdG9zaG9wIDI0LjYgKFdpbmRvd3MpIiB4bXA6Q3JlYXRlRGF0ZT0iMjAyMy0xMS0xNlQwMDowMTo0NyswODowMCIgeG1wOk1ldGFkYXRhRGF0ZT0iMjAyMy0xMS0xNlQwMDowMTo0NyswODowMCIgeG1wOk1vZGlmeURhdGU9IjIwMjMtMTEtMTZUMDA6MDE6NDcrMDg6MDAiIGRjOmZvcm1hdD0iaW1hZ2UvcG5nIiB4bXBNTTpJbnN0YW5jZUlEPSJ4bXAuaWlkOjJkY2IwNzJhLTJmZjEtMmE0Yy04Yjg2LTNkNjZiYWQzYjZhMiIgeG1wTU06RG9jdW1lbnRJRD0ieG1wLmRpZDoyZGNiMDcyYS0yZmYxLTJhNGMtOGI4Ni0zZDY2YmFkM2I2YTIiIHhtcE1NOk9yaWdpbmFsRG9jdW1lbnRJRD0ieG1wLmRpZDoyZGNiMDcyYS0yZmYxLTJhNGMtOGI4Ni0zZDY2YmFkM2I2YTIiIHBob3Rvc2hvcDpDb2xvck1vZGU9IjMiPiA8eG1wTU06SGlzdG9yeT4gPHJkZjpTZXE+IDxyZGY6bGkgc3RFdnQ6YWN0aW9uPSJjcmVhdGVkIiBzdEV2dDppbnN0YW5jZUlEPSJ4bXAuaWlkOjJkY2IwNzJhLTJmZjEtMmE0Yy04Yjg2LTNkNjZiYWQzYjZhMiIgc3RFdnQ6d2hlbj0iMjAyMy0xMS0xNlQwMDowMTo0NyswODowMCIgc3RFdnQ6c29mdHdhcmVBZ2VudD0iQWRvYmUgUGhvdG9zaG9wIDI0LjYgKFdpbmRvd3MpIi8+IDwvcmRmOlNlcT4gPC94bXBNTTpIaXN0b3J5PiA8L3JkZjpEZXNjcmlwdGlvbj4gPC9yZGY6UkRGPiA8L3g6eG1wbWV0YT4gPD94cGFja2V0IGVuZD0iciI/PsqQcCMAADDoSURBVHic7d15fBxnfT/wz3d2V4dj2c6dnVmtZVvEgIkJiCtxDhdy0SS2EiIopRc0dlJaSstRaLlECy209OAmCeZI6PGrSbzK6RbiKIXcGIKJk9iWYx27K+dynCg6d+f5/v7QKpEd+ZjdZzUj6fN+vfx6SbvzPM9XTvzRzHxnZgUhanHdeftqaxsKhUKD4zg1YdZCRDOPiKiIDBcKhYFFixYNbN++fSy0WqZjkeXLlzcMDg6eraqrYMyrFVguIs2qWjsd6xPR3CAi+wHsgOoOEdkOx+k844wztm7cuNGv+trVmnjx4sXJQqHwPgEuV9U3A4hXay0iokMRkecV6ATwnzU1NR3d3d0jVVnH9oSe512sqh+C6nkAYrbnJyIqVylY/7sG+JfufP5xq3PbmERVpbGx8XI15lOq+gYbcxIRVZERkR+L43wxm81uszFhxWGaSqVOM8Z8C6pn2SiIiGgaGRH5TqKm5lPd3d37K5mo7MPwFStW1NQmEl8yxnwfQFMlRRARhUQAvNn3/Q8sWLiwd2BgYHslEwWWTqeXFguF/wbQUu7CRERRI8C1idraD5fTpAocpp7nXQzVf1fVhUHHEhFFnYj8uhZY80Q+3xtknBNkY8/z/kiNyTBIiWi2UtXXjwL3pNPpFUHGHXWYep73UR0/P8rrRYloVlPVlF8s/iyVSr31aMcc1WF+KplcZ4Bryy+NiGjmEZF9sXj87N7e3kePuO2RNkglk5cZYCN4AT4RzUEiklXgzHw+33fY7Q73ZmNj4+uM7z+oqvUWa1MBtqvIrwHsFJGnxJgBdZyCxTWIaO6oF9UGAzQCWC7AW1Q1aXUFkV/OmzfvzK6urtFDbnKoN1auXHnMM08//RCA11goxUDkThG5ob6+fnNXV9fTFuYkIppSk+u+uqB6mYr8AVRfbWNOR+Sb2Xz+zw71/iHD1HPd76nq+ytcvygiN4jj/EM2m91V4VxERIGlUqmL1JjPqOqZlc7lAJdn+/s3TfXelGGaSqVWG9+/q6JVRe5xHOeDtu57JSKqRKPrvtdX/RcAp5Q7h4jk5zc0vHrHjh0DB7/3ikujWlpaEsb3v1XuYgB8iHxu/fr15zBIiSgq+vL5/5wvchqAzeXOoaruiy+88Pmp3nvFnqmXTP6FAv9a1koiQ47jtGWz2dvLGk9EVGWqKinP+ydV/WiZUxQh8rp8Pr9j8osH7Jk2NzfXQuSvylzgRRE5j0FKRFEmIprL5z8mjvPpMqeIC/DXB794QJgODw9/oJxLCkSkEBe5PJfL3VdmcURE0yqXy31RyjwKV9X3NTU1NU1+zTloi4+UM7Gofrw3n/9JOWOJiMKy7qqrPiYiPy1jaLxQKHx48gsvnTNNu+6qourPg84oIrfk8vk1ZRRDRBS6ZcuWnTQ8NPQIgBMDDn3q1OXLvc7OziIwac/UV/2DMuoYrAUOeRErEVHU7d69+ylxnHJ6RSft2rXroolvHABob293INIWdCZH5CtBn/lHRBQ12Wz2hxD5ZeCBxrxn4ksHADZs2PBGVT024DQDTjz+1cCLExFFjIio4zhfLGPgOya+dABAff/tZSx+Q29v73OBFyciiqC+vr5NEAl0pK2qySbXfTUwEaaq5wZdWBzn+qBjiIiiSkRURH4UdFxB5FxgIkyB1wYcvzebzT4QdFEioigTkY6gY1T1tQDgNDU11QFIB1yxsoegEBFF0BlnnLFVRJ4POGz8ML9YLL4KAT9YT0R+EXAxIqLI27hxow/VhwMNUj0VABxVDXqhKgDsOPImREQzUtB8OxEAHEe1oYzFcmWMISKKPBUJmm/HtLe3O446TuAwdRznFQ9GJSKaDUQkcL796Ec/mu/A98v5sLzhMsYQEc0EgfPN9/36QI0nIiKaGsOUiMgChikRkQUMUyIiCximREQWMEyJiCxgmBIRWcAwJSKygGFKRGQBw5SIyAKGKRGRBQxTIiILGKZERBYwTImILGCYEhFZwDAlIrKAYUpEZAHDlIjIAoYpEZEFDFMiIgsYpkREFjBMiYgsYJgSEVnAMCUisoBhSkRkAcOUiMgChikRkQUMUyIiCximREQWxMMugGgqS5cuXVgoFI4RkTrf9+OJRGIMwEixWHw+m80Oh10f0cEYphSqVCrVDGNWAzhdgdeq6lIROWVkeLh28nZjo6Mvfe0mky+ISD+AHQo86qg+iFjs7mw2u296qyd6GcOUplVbW1vs/vvvX2WKxVYFLje+v/jgbVT1SNMsUNUFAJYDWGMAwPfVc90HBbhJRTK5XG6n/eqJDo1hSlXX4rrz+oHzBGi995571qjq8VVYRlT1rQq8Fapf9lx3B0RuEpFMX1/fQyJyxIQmqgTDlKriVNc9YVDkt1W1dS9wEVTrpzPNVHU5VP9agb9OeV6/57oZB8gsOPbYzu3bt49NYyk0RzBMyZrFixcv8QuFSxVofVH1HKjGACDsXUJVTQL4Ex/4k+f27RtwXfdWEcnU19dv7urqeiHk8miWYJhSRTzPe72qtgrQWhgbOz3seo5CA1Tfq6rvHR4aGvOSyTsFyEg8fmtfX18+7OJo5mKYUiBtbW2x++677yxVbVVjLlNjFgPh732WQ1VrALxTgXeiWFTPde8XoMMAmXw+vyPs+mhmYZjSEbW47ryngPPNyw2k48KuqQpEVc9Q4AwAX/Jcd6cCNzmOk+nr63uQDSw6EoYpTanUQLq41EC6UFXrw65pOqnqqQA+aXz/k57r7vWSyfEG1nHH3cUGFk2FYUovWbx48RJ/bGxNqYF0dlQaSBFwigJX+8DVz+3bN+C57m0KZOrq6jY/8cQTz4ddHEUDw3SO8zzvdFFt1fEG0uvDrmcGaFDV3wHwO6MjIwU3mbxTHCfjOM4tbGDNbQzTOWb16tXxrq6u8QaS6mVqTJp7nuVR1QSAi9SYi3xjvu257gMCdMSBTHc+/3jY9dH0YpjOAS2uO+9J1QsVuGzXzp0XR7iBNCgi9yuwXUS6xZinAAyp4xREpNYYs0BUTxGRZgOcDtXTEZ0nn4mqvk2Bt40B/+C57i4BMiqyKZvN3s8G1uzHMJ2lmpubTxweHn65gQTUAQCOfN/7tBKRfgVuFZGORYsW/SRIc8fzvOMnTlEAeEeUmmSq+ioFPg7Vj5caWB0Si2Xq6uru6urqGj3yDDTTMExnkXQ6vdQvFNYAaB0aHDwbpb22aMUnICK7BMgYIJPN5e6b2GvL5XKB5snlcs8C2ABgQ4vrznsyFnun+n4rRN5Zpfv/y3WKAlep7181NDg44Lnu7aUG1h1sYM0eDNMZznXdNzhAqwKtxUJhZdj1HIIK8AsAmYTITZPPJ4qIlQW25vNDAG4EcGNbW1vs3nvvPVdVW6F6KYAmK4vY0aCq7wHwntGRkYLrultEJCMit2Sz2WC/TShSJJVMrjPAtUEGxeJxj53LcKxevTq+a9eus1W1FUArVNNh1zQVERlT4G4AmUQisamnp6c/rFoWu+4bi+OnAlpV9bSw6jgCFZEHodoRr6nJ9PT0PBZ2QXOV53lXqzHfDjKmtq7uFO6ZzgArV648Zt/TT1+gQOuunTsvVdVjw67pEF4Qkf8RIFM3b96tUXmISE8+/0sAvwTw2aampqZCoXB5aa/1TACxkMubIKr6VgBvLYyN/b3nursU2CQimXXr1j3Q3t5uwi6QDo97phHV3Nx84tDQ0CUyvkd1garWhV3TVESkH6q3SCzWsXDhwp/OpLuDPM87XlXXlv6Oz4tSA+sgTwow0cDawgZWdXHPdBZIp9NLfd9fq8a0Dg0OngXAiVrzCABEZKcCGRHJTL7sJ5vNhl1aIKUG1vcAfK/UwLqo1MD67Yg1sE5WYL36/vpSA+sOB8gk6upuZwMrOhimIZt8Pq9YKET3fB7wEMavm7wpN+mJSrYaSGErNbBuAnBTqYF1TulUwBpEr4H1bh94txlvYN1VamDdzAZWuHiYP81KDaRzJp4BqqqNYdc0lVIDqVNEMvF4PBNmAylsk6+YUNUoXzHxEICOWCKR6e3tfTTsgmYqHuZH2MqVK4/Zt2/fher7rbt27rxkooEUwUP4F0RkswNkaufNuy0qDaSw5fP5XwH4FYDPlRpYl6kxrQBWIUoNLOAtAN5SLBS+OHEHlgEy69evv58NrOrjnmmVlBpIl5aaG+dHuIGUn9RAunMmNZDCVmpgrZHxvdbzoDov7JoO4UmI3Ow4Tqauru5ONrAOj3umEdDY2LjMGLNWVVuHBgdXIboNpB2TGkgPzNQGUthKDazvA/h+KpWqh+9fpEArxp8DG6kGFlTXGd9fNzQ4+KLnuncIkInX1Nze3d29P+ziZguGaYXSyWSLX2og+cXi68Ku5xBURB4sHfZtmo0NpLBls9lhAJsAbCp9tMvZpY92WYtoNbDmq2qbAm2FsbGC67qdGP/FenMul+Nv0wrwMD+gUgPp3FIDaW3EG0h3iUgmkUhkuru794Zd01w1+ZmxqhrVZ8aO3/LrOB2xWCzT29u7PeyCwsLD/CpSVUm77gUGeF+UG0gi8jyAzRC5af78+Xfs2LFjIOyaCMjlcg8DeBhA+5IlSxYXRkbGgxU4G9FqYL0Zxry5aMwXPNftUuDHiUTiet7aenS4Z3oEja77XgN8TlWXh13LVEoNpJsdkU0nJZN3bd26tRB2TXR0PM87HsAlqnoZgPOj2sAS4HY4zt/kcrlfh13LdOCeqWVNTU1NhdHR7/uqq8OuZQqPQaTDcZxNfX19D000kPryc+L326xRamD9EMAPU6lUvRhzoRnfY70YqieEXd8EBX4bxlzkJZP/Vn/MMX/DqwGmxjCdQtp1VxXGxjoUiEpHVkXkgYknt+dyuZ0Tb7CBNDuUGlgZAJlSA+usSQ2sJeFWB2D8ypSPDA8Nve1U1127M59/JuyCooZhehDP867wVX+kqrVh1iEiY1C9E47TkUgkOthAmjs2btzoY/zxhXcD+EvP814/qeH5hjBrU9UzB0XuS6fTF/b29j4RZi1RwzCdJJVKrVZj/qP0QWnTrtRAukOBzPyGhtvZQCIAKJ2r/DWAz0ehgaWqzX6xuDmVSr0tm83um+71o4phWuJ53qlqzE3THaQikgNws6PacVIyuYUNJDqcPXv29AD4KoCvplKp41T1UlVdC+DC6Wxgqeqr1Pc3tbS0nMf/Z8cxTAG0t7c711177Q+n8aHLj4njZEQkc0ADqX/OPkuEylDaK5zcwLqg1MC6ZJoaWOfs3bv3rwB8cRrWijyGKYDrrrvuKlV9WxWXUBG5v9RAyrCBRLaVGlgdADra2tpi999//ypTLE58cmv1Gliqn06lUv8vm812VW2NGWLOh2lzc/OC4aGhv7c9r4iMQnWLjD/Et2PPnj1P2l6DaCqlBtb/lf58JJVKrTTGTDzy0WoDS1Xr1JivYDy057Q5H6YjQ0NXq+oiG3OJyPMK3C4iGd6BRFGRzWa3AdgG4G+Xum567OVns54NGxmguiadTr92rj9Ddc6HqQLrKxlfaiB1OEAH70CiqHsin+8F8DUAXys1sC4pfdJtJQ0s8QuFKwF8xFadM9GcDlPP805XY5aVNVjk3x3H+RrvQKKZqtTAuh7A9S89QlDkM2WdChC5AnM8TJ2wCwiTqp5XzjgHuCqfz/9eNpt9cCJIiWaybDY7nO3v33RKMvlWGf8srEBUtdHzvFOrUdtMMafDVIA3BR8kX8/29wd6MAzRTLF169ZCorb2fRB5POhYMebN1ahpppjTYaqqzQGHvFhTU/PZqhRDFBHd3d0jjuN8Kug4I1LeKbNZYk6HKYDjgmwsInfxYx5oLli4cOGtIhLo88BEJNC/p9lmToepiAR6mIkCfNgIzQnbt28fU9XnAg0yJtSHA4VtTocpER1W0ObqnL6dj2FKRGQBw5SIyAKGKRGRBQxTIiILGKZERBYwTImILGCYEhFZwDAlIrKAYUpEZAHDlIjIAoYpEZEFDFMiIgsYpkREFjBMiYgsmNMfqBdF6XT6WABuNdcQkX09PT39QcZ4nndqLBZLVKumcsyWn6McS5cu3dHZ2VkMuw56GcM0Ykyh0GaAa6q5hgDXArgq0CDVzmKhkKxOReUp5+dQY+4uGnNKlUqaNt3d3UnwYeWRwsN8IiILGKZERBYwTImILGCYEhFZwDAlIrKAYUpEZAHDlIjIAoYpEZEFDFMiIgsYpkREFjBMiYgs4L35EeMkEj9V3393NdeIq+4OPEhkvYjUV6GcspXzc4jjrAMQqZ+jTPvDLoAOxDCNmN7e3icAPBF2HQfL5XK3hl2DDbPl56Do4WE+EZEFDFMiIgsYpkREFjBMiYgsYJgSEVnAMCUisoBhSkRkAcOUiMgChikRkQUMUyIiCximREQWMEyJiCxgmBIRWcAwJSKygGFKRGQBn2cahOo6N5lcF3YZRBQ93DMlIrKAYUpEZAHDlIjIAp4zDUBENsbi8faw6yCaDsVi8W6onhB2HTMFwzQABfb39vY+GnYdRNPBTSaLYdcwk/Awn4jIAoYpEZEFDFMiIgsYpkREFjBMiYgsYJgSEVnAMCUisoBhSkRkAcOUiMgChikRkQUMUyIiCximREQWMEyJiCxgmBIRWcBH8EVMOp0+FoAbdh2z1dKlS3d0dnYe9aPlovrfI+jPQdXHMI0YUyi0GeCasOuYrbq7u5MA9h7t9r7vv1uN+U4VSypL0J+Dqo+H+UREFjBMiYgsYJgSEVnAMCUisoBhSkRkAcOUiMgChikRkQUMUyIiCximREQWMEyJiCxgmBIRWcB78yMmVlPzEy0W28KuYxbbH2TjWCz2Ex+I4n+P/WEXQAdimEZMT0/PHgB7wq6DxvX29j4B4Imw66Do42E+EZEFDFMiIgsYpkREFjBMiYgsYJgSEVnAMCUisoBhSkRkAcOUiMgChikRkQUMUyIiCximREQWMEyJiCxgmBIRWcAwJSKygI/gC0hVJewaiKaD57phlzCjMEyDUF3nue66sMsgoujhYT4RkQUMUyIiCximREQW8JxpACKyMZ5IfC7sOoimQ6FQ+D+onhB2HTMFwzQABfb39PQ8FnYdRNPBTSaLYdcwk/Awn4jIAoYpEZEFDFMiIgsYpkREFjBMiYgsYJgSEVnAMCUisoBhSkRkAcOUiMgChikRkQUMUyIiCximREQWMEyJiCxgmBIRWcBH8EVMOp0+VlW9sOs42LJlyx7v7Ow86keylfNzTMcas0XQvyuqPoZpxJhCoc0A14Rdx8H27NnjAug/2u3L+TmCruH7/rvVmO8EWWO26O7uTgLYG3Yd9DIe5hMRWcAwJSKygGFKRGQBw5SIyAKGKRGRBQxTIiILGKZERBYwTImILGCYEhFZwDAlIrKAYUpEZAHvzY+YWE3NT7RYbAu7joOJyHNBti/n5wi6Rjwe/99iBP+upkM8Hg/0d0XVxzCNmJ6enj0A9oRdR6Wm4+eYLX9XNDvwMJ+IyAKGKRGRBQxTIiILGKZERBYwTImILGCYEhFZwDAlIrKAYUpEZAHDlIjIAoYpEZEFDFMiIgsYpkREFjBMiYgsYJgSEVnAMCUismBOh6mqFoJsL8CiKpVCFCnt7e2OiCwMMkZFxqpVz0wwp8NURPYH2V6B32pubq6tUjlEkXHdddedq6r1QcYIsL9K5cwIczpMNehT2lVPGBka+ovqVEMUDaoqqvq3gcfN8U89mNNhKiK/DDpGgb91Xfe8atRDFAWNnvePUD0r6Lhy/j3NJnM6TGOqdwUdo6o1Atzqed6nUqnUcdWoiygMixcvfo2XTG40qh8LOlZEnj3zzDMfqUZdM8WcDtO3rlp1H4Ang45T1Vo15gtqzF43mbzDdd0PplIprwolElWV53mne677t57rPlwYG3tUgSvKmUeAjo0bN/q265tJ5vSnk27cuNF3XfcHUP1EOeNVNQHgIqheZHz/G57rPihAxonHb+7t7X3UcrlEFVu9enV8165d5wBYA9XL1ZhGG/MaYIONeWayOb1nCgCxWOxrIjJqYSpR1bca1X8oFgrbPdfd6brulzzPe1t7e/uc/3um8KxcufKYRtdt9Vz3B7t27nxKjblTjfmwqloJUojck8/n77Uy1ww2p/dMAaCvry/vJZP/BODTNudV1VcB+ISqfuLaa6550ksmMxKLZerq6u7q6uqyEd5Eh9Tc3Hzi8PDwxara+uwzz1yoqnVVWso4jvPRKs09o8z5MAWARG3tFwtjY+8pBWA1nKzAVer7Vw0NDr7oue5tCmRqamo2d3d376/SmjTHNDY2LjPF4qUAWocGB89G6chTq7imiHwnm80+UMUlZgyGKYDu7u6RtOu+3xfZoqo1VV5uvqq+B8B7CmNjBdd1O0XkJgC35nK5bJXXplnGdd03iOrlEFnjF4srp3NtEdlRP2/eX0/nmlHGMC3pzefv8TzvSqheP11rlhpY56vq+QC+5SWTDwHIxGtqMj09PY9NVx00c5QaSGeraqsAl6lqowKAVnP/cwoizzix2MVdXV0vTO/C0cXGyCS5XO4GR+STIS0vCrxFgb8vjI096rnurpTr/pPneWewgTW3rVy58phUMnmZl0zeUGogbYHqn1trIAUkIvtFZE1fX9/uMNaPKkklk+sMcG2QQbF43Ovr68tXq6iweZ73+1D97jQc8h+tJwXoKDWwtrCBNfstW7bspOHh4YsFaAVwQRUbSEF1J2pqfns2Hzl5nne1GvPtIGNq6+pO4WH+FHK53A1p132iCNwAYEnY9WC8gbVefX/90ODgi14yudkRuSlWU3MHG1izR2Nj4zJjzBpVvXx4aOhMAM40H7wflgC3182b9/7du3c/FXYtUcQwPYTefP6elStXnvbsM898QlX/AkBD2DWVzFfgCl/1Cn90tOi67hYRyajqrfl8vi/s4iiYdDLZ4ousheplfrH4urDrmYqIdEHkU7lc7r/DriXKeC7uMLZt2zaYy+c/W1NbmxbgLwFsDbumg8SheoEa8y2o9rrJ5ENeMvk36XR6RdiF0dRWr14d9zzvHa7rft1z3b4i8AtV/YwCkQpSERkVkZudWOxdZ65a9WoG6ZHxnGlAS5YsWTw2MnIZgFYFViGie/ci0iXAJgNk1q9ff397e7sJu6a5asWKFfOff/75C9T3WyFyqaouCrumqYjI8wA2K5BpaGi4bceOHQNh1xSGcs+ZMkwrkEqljlPVNaraCuB8qM4Lu6ZDeAoiHY7jZOLx+Jbu7u6RsAua7UoNpEtKDaTzI9RAOoCI5KB6q8RimZNPPvnOrVu3Bvr0idmIDagQZLPZfQB+AOAHqVSqXoy50IzvsV4M1RNCLm+yk6C6zvj+ujHff9Fz3Ttk/HrW29nAsieVSjVP/HIdHhpahYg1kCaIyA4FMiKSyWazD4iIAkA2y3tGKsEwtSSbzQ4DyADItLW1xe67776zVbUVxlyqwNKQy5tsvqq2KdA2Nt7Augvj/7Bu5h1YwaWTyRZ/fO+z1fh+pM57TmJE5EEBOuA4N2az2V0Tb4hImHXNKjzMnwae550uqq0KtKrq68Ou5zB+IY6TicVimd7e3u1hFxNFLS0tib17955TugOpVVVTYdc0FREZVdW7xHEyNTU1mT179gR+bu9cxcP8CMvlcg8DeBhA+1LXTY+pXqbjpwPOQrSODt6kxrypaMwXPNfdLcAmB8h8YP36++ZyA6vUQLpQfb91b3//JRMNpKgdwpcaSHcokJnf0HD7XG0ghYV7piEqNbAuVdVWjN+ff0zYNR3CUxC5WUQyiUTizrnQwFq2bNlJo8PDl+rLDaRIfiptqYF0iwNkTnLdLWwgVY57pjNQqYH1QwA/bGpqqvPHxsYbWKoXAzgx5PImOwmqV6rqlWOjo4NeMnmHABknkbi9t7f3ubCLs6XUQFpbaiCdiahehy3yOICM4ziZvr6+BycaSH39/SEXNrcxTCOitLfXAaCjvb3d+e53vzvRwFoTsQbWMQpcocAVplAoeq7bqeONt5tn2h1YqirpdLrFFIutOt5AiurNDkZEHig1kG5iAymaeJg/A3ie9/pJDY/Tw67nMLaK40zsMUXykypbWloS/f395zrj56zXRrmBBNUtAmQSdXUdbCBNHx7mz2K5XO7XAH4N4PNLXTc9Nh4Erap6NqJ1dNGixrT4xvyd57q7AWRi4w2se8NsYK1YsWL+/v37L1LV1r39/RdDdVEUu2kisl+BO0Qks2jRotu3b9/+Ytg10dHjnukMlk6nj/V9f6KBdQGi28B6elID66fT0cBasmTJyYXR0YkG0nkRbiBlAYw3kJLJu9hACh/3TOegUvPnegDXNzU11Y2NjV1QOhVwCaLVwDoRqn+sqn9camBtllgs4zjObTYbWKlU6lXGmLUAWkdHRs5AVBtIwGPiOBkRyfT19T30UgMpz/2TmYxhOkuU9vZuBnBze3u7s2HDhrNMsdgKkTWquizs+iY5RoF3qe+/y/h+0XPduwXIGKAjaAOr1EB6kzGmVY1pNb7/2moVXSEjIvdPaiB1TbzBBtLswcP8OSCVSp2mqq06vtfWEnY9hyIivwHwcwEeg2pWgGcQjw8bY4oiUqOqDap6oqguUZHTBFitqsmw656KiIwC+KkAmdr6+pv5QOWZg4f5dEjZbPY3AH4D4O9c1210Xm5gnYMIHZ2o6mkATjvgzqJicfy9yduNbxzFO5D2K3B7qYF0BxtIc0tk/iHR9CgdSn8dwNdLDaxLYEyrAhciug2syCo1kG6OAZkTk8nOiQZSLpcLuTKabgzTOazU/LkBwA2lBtb5DtBqVC9FtBpYUfPopOtpH5p4sZcNpDmNYUoAXmpg3QLglvb2dmfDNdesMkArRNZGrIEVBgOR+wB0OI6zaXIDiWgCw5ReoXSB/c9Kfz76UgNr/HrWN4Zc3rQQkREAd7KBREeLYUpHNEUDa22pgXUuZtH/Q6UG0m2lBtJmNpAoiFnzD4GmR6mB9Q0A30in08caYy5W329V4CLMwAaWiGQF6DBA5lWnntrZ2dlZBNhAouAYplS2UgPrRwB+1NTUVFcoFM4rnQq4FMBJIZd3ONsFyDjxeKavr+8XEy/m2UCiCjBMyYpSA+tWALe2t7c737v22jNLn420VlWbw60OBiL3AuiIxWKb+vr6dodcD81CDFOyrtTA+nnpz8caGxtfN3HLJ6bpDqxSA2niDqRb2ECiamOYUtWVnm36CIAveJ6XUtW1pQeyrIbF/wdF5Dmo3iaxWOa4447bvG3btkFbcxMdCcOUplXp46S/CeCbS5cuXTgyMnKuiPyWGvNGEVmhqscf5VQKoEdEHoHIA6q65VWnnvrgRAOJnwFP041hSqF54oknnkfpSVcTr6XT6WMBJH3fP0VV5wOod1Tj6jijAEZiqs8hHu83xvRns9nhyfOxgURhYphSpJSuEHgOwKNh10IURFQfnktENKMwTImILGCYEhFZwDAlIrKAYUpEZAHDlIjIAoYpEZEFDFMiIgsYpkREFjBMiYgsYJgSEVnAMCUisoBhSkRkAcOUiMiCssLUGMMQJqJZSVXLyreyBiXGH9pLRDTrOEBZ+VZWmPqxWEM544iIok5Vy8q38sLU9xeWM46IKOpUpKx8KytMRWRZOeOIiKJOVMvKt/IaScYsL2scEVHUiZSVb+V25V9d5jgioshqbm6uVdWmcsaWF6YiZ7S3t/PyKCKaVUZGRs4AECtnbFmBqKqLNmzY8MZyxhIRRZUa8/Zyx5a9d6m+/45yxxIRRVTZuVZ+mALvKXcsEVHULHXdtKqeUe748sNU9Q2NjY2vK3c8EVGUjKr+HgApd3xFTSRTLL6/kvFERFGgqgKRP6xkjorCVIF16XT62ErmICIKW6PrtqrqqZXMUenlTQ3FYvHPK5yDiChUBvhUpXNUfK2oAB8+1XVPqHQeIqIwNLpuK4CWSuepOExV9dgh4MuVzkNENN1aXHeer/pvNuYq90End07+3qi+33XdM20UREQ0XfqBzwBYPPk1EflpOXOV90TpWOyTAF48YH3g+ubm5gXlzEdENN3SrnsWVD8++TUBOiFyYznzlXuYn3eAT09+QVWXDQ8NfbfM+YiIps2prnuCD/wXJt2HLyKj8ZqaD5Y7Z9nnTK+86qqvQ+Rnk19T1TbXdT9W7pxERNW2YsWKmkHgv1TVm/y6AJ/t6el5rNx5yw7T9vZ2U1tb+/sisu+AN1T/0fO83y93XiKialFV2f/cc9er6gH34IvInVeuX/+VSuauqJu/Z8+eHnGc3wOgk+tSY77X6LprK5mbiMgmVZWU635LVQ94roiI5OrnzXtve3u7qWT+ii+Nymazd4jjfPSgl+O+6o2u636g0vmJiCrV0tKS8Dzv3xW4+qC3BhS4tKur6+lK17DygOdcLvevAvzrQS/HoLrBdd3PqmrZDw8gIqpEKpU6rr+//zaovnfy6yIyFhO5Ip/P/8rGOtaelp/r7/8IRL7xijdUP+953h3Nzc0n2lqLiOhoeJ53hjHmV1A9f/LrIjIGkXf15fP/a2stqx89ks/nP+SI/NMr3lC9cHho6OHSbVtERFXV1NRUl3Ldz6sx/wfV9EFvvyiOszaXy91qc03rn+OUzef/CiJ/CsCf/Lqqur7qJs91b02n00ttr0tEBACpVOqdhbGxR4zqZwHEJ78nIv0JkXOz2exm2+tW5UPx8vn8t5xY7B0A9h78nqpe7BeLj3uu+z3P8yp65BUR0YRUKvVO13V/bnz/dlVddvD7AnQmamre2JPP/7Ia61ftE0az2ezdtXV1p4vILQe/p6oJVX2/GvOY57odqVTq8hUrVtRUqxYimp2WLVt2UiqZ/LDnug8b378dqqsO3kZEChD53JlnnXVed3f3K3bwbIkfeZPy7dmz50kAa1LJ5PsM8M8ATj5oE0dV16jvr9n/3HPPecnkbSqypba2dsuePXt6qlkbEc087e3tzveuueYNRZG3AzhveGjo7QDiUJ1yexF5QBxnXS6b/c3GjRurWpukksl1Brg2yKBYPO719fXlg4xZvnx5w8DAwKcE+HNVrT+KIU8BeBwiO0SkV4wZMCIDAIZw4E0CRDTLOOOXVs5Xx2mAMYtUZBmA5VBdDuCYI04g0uuo/k1fPv8fIhIoLzzPu1qN+XaQMbV1dadUdc90sh07dgwA+OSSJUv+dXR09CNQvRrA4Z4ydRKAk6B6jqqOp+chfvsQ0ezy0q1IpvTVUf7bF5FdAnz55GTy+q1btxZEpu8S96qdMz2UPXv2PJnP5z9xwoknuo7IlSJyL7inSUTlEhkSkf+GyPnZXG55Np/fsHXr1sJ0lzFte6YH27Zt2yCADQA2pFIpzxjTCuAdApyrqseFVRcRRZ+IdCnQ6TjO5pONuWNrPj9Uej20mkIL08my2WwOwDcBfFNVpbGxcRmAlar6GhjTCBFPgYVQrReRWvD2VKLZTcQAGIbqMESehkgOxvSoyCP19fXbdu/e/dTEptkQy5wsEmE6WelkcVfpDxHRjDDt50yJiGYjhikRkQUMUyIiCximREQWMEyJiCxgmBIRWcAwJSKygGFKRGQBw5SIyAKGKRGRBQxTIiILGKZERBYwTImILGCYEhFZwDAlIrKAYUpEZAHDlIjIAoYpEZEFDFMiIgsYpkREFjBMiYgsYJgSEVnAMCUisiAedgGVamtri91zzz1uIpGYD2AkkUjku7q6RsOui4jmlhkZpo2Nja76/h8ocOm999zzJqjWFMbGAACFsTHfc91HBdjsxOM/7O3t3R5yuUQ0B8yoMF26dOnCkZGRvzO+f5Wq1hxis5iqnqbAaaZQ+JjruplEIvHRnp6ePdNaLBHNKTPmnGljY+PrRoaHfwXVDx0mSA8mUL2sMDb2a8/zLqlqgUQ0p82IME2lUqv9YvFeAEvKnKJBjelwXfeDNusiIpoQ+TBNpVLNasxNABoqnMqB6tdTqdQ7bdRFRDRZpMO0paUlob6/SVWPtTSlo8b8p+d5KUvzEREBiHiY7t27988UeJ3NOVV1oar+o805iYgiG6arV6+OQ/XjVZlc9T3pdHppVeYmojkpspdGdXV1na+qycNtIyIPKHAjgF85jvMUgGNV9dUwZo0CF+HQvywc3/ffB+DvLJdNRHNUZMNUVS88zNt7YsCf9OXz/zPFe3cDuCaVSp1mjPk2VFcdZn6GKRFZEdnDfBjz+qleFpEH5ou8pa+/f6ogfUk2m/1NMpn8LQF+NOUGqlPOT0RUjuiGqcgrOu4i0ldXX79mZz7/zNFMsXXr1sKrli9/v4zvrR5s/tKlSxdWXCcREaIcpkDtK14R+cju3bufCjJJZ2dnUWKxdQCKr5xOXrkGEVEZIhumqvrC5O9FZGcul/txOXNls9ldIvKKsaOjowPl1kdENFlkw1REdh/wPdBR4YSbDpq/P5vNDlc0JxFRSWTDFKr3H/CtyCOVTBeLxQ58FJ/qfZXMR0Q0WWTDNJZIHLwn+mwl8zmO8+xBL1S2p0tENElkw7S3t/dRiPx80ksnVDKfMeb4ia9F5Nnjjz/+xkrmIyKaLLJhCgCO43xm4mtRrege/WKxeNrE1wp8adu2bYOVzEdENFmkwzSbzXYKcA0AKNCqqlLuXAK0AoCI3J9MJr9qqUQiIgARD1MAOMV1PwSRn6lqs+d57y5nDtd1l6vqu0Qkm6ipuWzr1q0F23US0dwW+TDdunVrwXGcVgE6BfjnpqamU4KMb2lpSQD4roj0xBOJC7q7u/dWqVQimsMiH6YAkM1m953iuhcosKkwOnrzsmXLTjqacc3NzbV7+/uvBzAojvOWnp6ex6pcKhHNUTMiTIHxPdR8Pv8hOM6Hh4eHv+B53sWH236x675xeHDwqxC5MZ/PX5TNZvdNV61ENPdE9hF8h5LL5e4DcN+SJUsWe573NgDZRYsW7X/ta187vGPHjrrBwcFjisPDKd9xirls9uqw6yWiuWHGhemEPXv29ADoAYBcLoft27cDwGDpT6CHoRARVWrGHOYTEUUZw5SIyAKGKRGRBY46zmjgQY7DhyoT0awkxgTON1UddcSYwA9I9n2/IegYIqKZQB1nftAxTU1NLzpGJHCYOsacHHQMEdFMoKqB7rIUkeHOzs6ikwACX8xugOVBxxARzRBB820fADh1DQ27gq5kgNODjiEimhGCfgy86i4AcHbs2DEgIvkgY0X1twItRkQ0A6TT6RUAjurZH5M8Drx8aVSgB4AosHTx4sWvCbggEVGkmWLxkqBjZHKYCvDzw2/+SsVi8feDjiEiijKjGjjXnFJ+jodpLLYl6ARqzAeamprqgo4jIoqixsbGcwCsCDJGRJ77wFVX/QoohemCBQvuh8hQwLVPLo6NXRlwDBFRJPm+/+mgYxTobG9vN0ApTLdv3z4mwC1BJzKqn2lqaloUdBwRUZSkUqmLoHp+0HEO8ONJX48Tx7m+jBpOKoyOfqmMcUREkdDiuvPUmG+UMXTgZCAz8c1LYdrc3Py/AJ4MOpsCV6WSycvKKISIKHR7gW+q6rKg40Tkx1vz+ZdOj74Upp2dnUVxnG+WU4yKfL+xsbGiz7UnIppurut+UFX/qKzBIl+b/O0Bj+BLJBJfB/BC0DlVdaHx/c2LFy9eUlZRRETTzPO8d0P16+WMFZFbc7ncw5NfOyBMu7u794vjlHPuAKrqFQuFn6dSqdPKGU9ENF1SrnulGvMfKPOZzuI4Xzj4tVdMVF9f/2UR6S9nAVV1je//3PO8tnLGExFV04oVK2o8z/s3o3odgFhZk4j8ZzabfeDgl18x2b59+0YbGhpyAK4oayGgFqptCxYsWJxsaLjn2YGBoNevEhFZl04mW4ZGRjqgWknD/IVETc2a559//sWD35gymQcGBh5pWLDgTACBO1yTvKEgcmVDQ4Om0+ltTz/99FgFcxERlaWxsXHZgvnzv+ID3wTgVjKXI/Kxvmx2yjtG5VCDmpqaThkbHX0YQMUPghaRfQr8eywWu6G3t/cXIqKVzklEdChNTU11xdHRdxqRP4DqpSj3kH4SEbk5l8+vPeT7hxvsed471Jj/hd0P3ntaRDohsg3ADhF52vH9AROLcc+ViMoxzxjTAKARwHIB3gLgDFW19+wQkd54PH56b2/vc4fc5EhzeJ73ETXmn60VRUQ0swwkRFb35PO/PNxGR9z1HRgYuG/hggXHKLDKXm1ERNEnImPiOGv68vl7j7TtUR2+9+Vyn4DIdZWXRkQ0M4hIQRznd3O53J1Hs/1RhamIaD6fXw+RL1dWHhHRjDDoqF6azWZvPNoBgTpcAwMDP13Q0PA8gPNhtylFRBQVTzqx2EXZfP7/ggw6YgNqKqlU6lw15j9UtaJrtoiIokRE7krU1Pxud3f33qBjy9q7zGazd9fPm3e6iNxazngioigRkTGItK9bv/68coIUKHPPdLJUMnmZinxVVRsrnYuIaLqJyJYE8Kfd+fzjlcxT8V0BL7z44uNLliy5dnhkZFiA1wOYV+mcRETVJiLbxHH+LJfPf3L/wMAzFc9no6gJK1euPObZZ5+9Wo35MwBNNucmIrJC5GcAvpLL5W6xeWu71TCdoKqSTqfPVt//QwXWqurx1ViHiOhoiMgOAf5LYrEb+vr6dldljWpMOpmqiud5p4vI22HMmQq8RkSWqWpNtdcmorlHRJ6H6k6IPAKRu1V1Sz6f76v6utVeYCptbW2xBx98MI1C4VjfcRpUtUFEGK5EVI4hx5gB4zgD8Xj8qXK78ZX6/64xPAN3qYfkAAAAAElFTkSuQmCC;textShadow=0;labelBackgroundColor=none;" parent="1" vertex="1">
          <mxGeometry x="200" y="80" width="70" height="90" as="geometry" />
        </mxCell>
        <mxCell id="9cwglLM5n4MLdlPzuKQn-4" value="AWS" style="text;html=1;align=center;verticalAlign=middle;resizable=0;points=[];autosize=1;strokeColor=none;fillColor=none;fontFamily=Georgia;fontStyle=2;fontSize=24;" parent="1" vertex="1">
          <mxGeometry x="40" y="-50" width="80" height="40" as="geometry" />
        </mxCell>
        <mxCell id="9cwglLM5n4MLdlPzuKQn-5" value="Local" style="text;html=1;align=center;verticalAlign=middle;resizable=0;points=[];autosize=1;strokeColor=none;fillColor=none;fontFamily=Georgia;fontStyle=2;fontSize=24;" parent="1" vertex="1">
          <mxGeometry x="40" y="320" width="80" height="40" as="geometry" />
        </mxCell>
        <mxCell id="9cwglLM5n4MLdlPzuKQn-9" value="" style="shape=image;verticalLabelPosition=bottom;verticalAlign=top;imageAspect=0;image=data:image/png,iVBORw0KGgoAAAANSUhEUgAAAVMAAAG2CAYAAADCwmVFAAAACXBIWXMAAC4jAAAuIwF4pT92AAAE7mlUWHRYTUw6Y29tLmFkb2JlLnhtcAAAAAAAPD94cGFja2V0IGJlZ2luPSLvu78iIGlkPSJXNU0wTXBDZWhpSHpyZVN6TlRjemtjOWQiPz4gPHg6eG1wbWV0YSB4bWxuczp4PSJhZG9iZTpuczptZXRhLyIgeDp4bXB0az0iQWRvYmUgWE1QIENvcmUgOS4xLWMwMDEgNzkuYThkNDc1MywgMjAyMy8wMy8yMy0wODo1NjozNyAgICAgICAgIj4gPHJkZjpSREYgeG1sbnM6cmRmPSJodHRwOi8vd3d3LnczLm9yZy8xOTk5LzAyLzIyLXJkZi1zeW50YXgtbnMjIj4gPHJkZjpEZXNjcmlwdGlvbiByZGY6YWJvdXQ9IiIgeG1sbnM6eG1wPSJodHRwOi8vbnMuYWRvYmUuY29tL3hhcC8xLjAvIiB4bWxuczpkYz0iaHR0cDovL3B1cmwub3JnL2RjL2VsZW1lbnRzLzEuMS8iIHhtbG5zOnhtcE1NPSJodHRwOi8vbnMuYWRvYmUuY29tL3hhcC8xLjAvbW0vIiB4bWxuczpzdEV2dD0iaHR0cDovL25zLmFkb2JlLmNvbS94YXAvMS4wL3NUeXBlL1Jlc291cmNlRXZlbnQjIiB4bWxuczpwaG90b3Nob3A9Imh0dHA6Ly9ucy5hZG9iZS5jb20vcGhvdG9zaG9wLzEuMC8iIHhtcDpDcmVhdG9yVG9vbD0iQWRvYmUgUGhvdG9zaG9wIDI0LjYgKFdpbmRvd3MpIiB4bXA6Q3JlYXRlRGF0ZT0iMjAyMy0xMS0xNlQwMDo0NTo1MyswODowMCIgeG1wOk1ldGFkYXRhRGF0ZT0iMjAyMy0xMS0xNlQwMDo0NTo1MyswODowMCIgeG1wOk1vZGlmeURhdGU9IjIwMjMtMTEtMTZUMDA6NDU6NTMrMDg6MDAiIGRjOmZvcm1hdD0iaW1hZ2UvcG5nIiB4bXBNTTpJbnN0YW5jZUlEPSJ4bXAuaWlkOjI0ZmYzNjJhLWE4ZDYtYTg0OS04ODAxLWYwNDY3YzRmOGY1OSIgeG1wTU06RG9jdW1lbnRJRD0ieG1wLmRpZDoyNGZmMzYyYS1hOGQ2LWE4NDktODgwMS1mMDQ2N2M0ZjhmNTkiIHhtcE1NOk9yaWdpbmFsRG9jdW1lbnRJRD0ieG1wLmRpZDoyNGZmMzYyYS1hOGQ2LWE4NDktODgwMS1mMDQ2N2M0ZjhmNTkiIHBob3Rvc2hvcDpDb2xvck1vZGU9IjMiPiA8eG1wTU06SGlzdG9yeT4gPHJkZjpTZXE+IDxyZGY6bGkgc3RFdnQ6YWN0aW9uPSJjcmVhdGVkIiBzdEV2dDppbnN0YW5jZUlEPSJ4bXAuaWlkOjI0ZmYzNjJhLWE4ZDYtYTg0OS04ODAxLWYwNDY3YzRmOGY1OSIgc3RFdnQ6d2hlbj0iMjAyMy0xMS0xNlQwMDo0NTo1MyswODowMCIgc3RFdnQ6c29mdHdhcmVBZ2VudD0iQWRvYmUgUGhvdG9zaG9wIDI0LjYgKFdpbmRvd3MpIi8+IDwvcmRmOlNlcT4gPC94bXBNTTpIaXN0b3J5PiA8L3JkZjpEZXNjcmlwdGlvbj4gPC9yZGY6UkRGPiA8L3g6eG1wbWV0YT4gPD94cGFja2V0IGVuZD0iciI/PoIWUd0AACaJSURBVHic7d17fFx1nf/x9+ecya132qqgQGYmk6Qx0C0ElApqFvC6su6KraJc6gKrsl7XCwICIygIrAiCAoouCOJKUPy5uK43jJeligRDSmwuZ+acQN1KoW3a9JLLnPP5/UHbTdO0zZx8kzOX9/Px4PFoz8z3ez4PHvB6zPWMYJa0tLTMGdq69TUaBM0BsEyARiheBpH5Cp0vkBoAMlvzEFGJUIwqdAgiQwJshcIRC70K9FgVFY/19fX9ZTbGmNF4NSWT9WNBcI5CzhTg1apaOZPnIyI6gEivQB8VkYffe8EFv0yn08GMnMb0hitXrqx5YePG8xVYo4pTTO9PRBSWAH+BWPfbVRV39fb2uob3NqOxsXF+MDLywQDyCai+1NS+RESmCSSngu/EBNf3um6vmT2nSVWlPl73PkBvUOhSE0MREc2SQAR31cyff8W6deu2TmejacU0lUo1Yyz3dQVeM519iIgiJbJJBJ90XPe+0FuEXZhKJC7SQL8CoCbsHkREhUQED1TNnfv+7u7uHXmvzXfBypUra57fuPFuVbwn37VERAVPpE9i9jscx+nOa1k+d14RX7FoSLc9Auip+U1HRFREBIO2ZZ3Vl83+bupLpqixsfHlueHRnwJ6XLjpiIiKym6x5F2O6/7nVO5sTeVOxx9//BH+8MjPGFIiKiM1UDzUkEyeMZU7HzamK1eurNm9fegRBZqnPxsRUfFQ1cog0Ifr6upaDnffwz7NT8UTD6rqKjOjjTuxyLOq6BXRZxTWkCDYDUBNn4eISpxIpSrmA/oSUTRCJGX8q+siz1XWVJ+wfv36jQe9y6HWpxKJf9FAbzczi4xA8YhAfhCbU/WrQw1FRBTWypUrazY/99ypgepbVPU9UBxpYl8RtJ9w8slntrW1+ZPefrCFqdrUCRB/rapWTWsAyAsK3DJnwbyvTfcbBkRE+Vi1apXd+XjH2wPo5YAe9qn64YhYn3O8bHrS2yY7mE6nrfv//Z4/KnBi6JNCcrDwFbuyMt3b2zsUdh8iIhMa4nXv9tW/GcBRYfcQSA4V9orJPoM6aUzrEokPIdDbwp8QWdu23tWbzT4Rdg8iItNaksmF23y9W6HvDL2JyG8znvu6iYftiQeWLVu2JMj5/w9Adcgz/WKRbZ2xLps1enkrIqLp2rh168iWbYNtSxcfsUsVZyLcV+prlyxZ7GzZunXd+IMHfDTKHxn5OFQXhhlUIA9Vz5vzdx3Z7LYw64mIZkO/694kllwAINSFojXQK9Pp9H793O+RaUsyuXC34rsI8ahURH62cOnis5966qmxMMMREc2mLYODXUuPWLxJoW8LsXzpuq6n/rxlcHDfa6f7lXV7ELw/1KNSkT67qvKdHR0dDCkRFY1+L3snxLo11OJALx3/1/1iqsD78t1PREZswWq+Y09Exah6bs2nAcn7zXIFTmxMJJbv/fu+mDYkkyerYlneGypu6nPdp/JdR0RUCLq7u0ctiV0MYNIP4x+KD5y/98/7YuoHeG++Gwlkw0tffuR1+a4jIiok/V5/pwi+nvfCQM/Z+8d9MRUN3pDvPmrhxrVr1+7OewAiogKjtn29iOT1vo8CL2+qqzsO2BPT5njzkQq8Mq8zi2x76ZFH3p3XGiKiApXJZJ6F4sF81+V8/3RgT0zHMNya7waiaOOjUiIqJWLh3nzXKPC3wJ6YBvCXH/ruk51VH8p7DRFRAXvvBRf8EkB+F2RSHA/siakCjfmsFZGxOQsWTPm3UYiIikE6nQ4gaM9njQLxVCpVZQGAaH4xVUVXV1fXznzWEBEVAwv4fZ5LbACpve/m53VJKgF68jwZEVFRUJG8+2YFwVEvxlRkfn4rMZDvyYiIioGFEH3zZb6VSqWqVLUir4Wq2/M+GRFREZDKyrz75lvBfKuqqmpuvgtVZFe+a4iIikHF6GjefbNU5li+74e5OCp/RZSISpJlWXn3TQE54OLQRESUP8aUiMgAxpSIyADGlIjIAMaUiMgAxpSIyADGlIjIAMaUiMgAxpSIyADGlIjIAMaUiMgAxpSIyADGlIjIAMaUiMgAxpSIyADGlIjIAMaUiMgAxpSIyADGlIjIAMaUiMgAxpSIyADGlIjIAMaUiMgAxpSIyADGlIjIAMaUiMgAxpSIyADGlIjIAMaUiMgAxpSIyADGlIjIAMaUiMgAxpSIyADGlIjIAMaUiMgAxpSIyADGlIjIAMaUiMgAxpSIyADGlIjIAMaUiMgAxpSIyADGlIjIAMaUiMgAxpSIyADGlIjIAMaUiMgAxpSIyADGlIjIAMaUiMgAxpSIyADGlIjIAMaUiMgAxpSIyADGlIjIAMaUiMgAxpSIyADGlIjIAMaUiMgAxpSIyADGlIjIAMaUiMgAxpSIyADGlIjIAMaUiMgAxpSIyADGlIjIAMaUiMgAxpSIyADGlIjIAMaUiMgAxpSIyADGlIjIAMaUiMgAxpSIyADGlIjIAMaUiMgAxrQE1MfrV7TGW6ujnoOonDGmJUA1d9EG9TKp2uQljCpRNBjTEqHAyxXBVxlVomgwpiWGUSWKBmNaoiZGNZVKVUU9E1EpY0xL3N6oYiyXZVSJZg5jWiYYVaKZxZiWGUaVaGYwpmVqXFT5miqRAYxpmVPgFfuiGk9+kFElCocxJQB7oqrB1xhVonAYU9oPo0oUDmNKk2JUifLDmNIhMapEU8OY0pQwqkSHxphSXhhVoskxphTK/0XVdxhVIsaUpkmhR++Nan08+QFGlcoVY0pGKPToQIM7GFUqV4wpGcWoUrliTGlGMKpUbhhTmlETo9rc3FwZ9UxEM4ExpVmxN6ojO3ZlGFUqRYwpzSpGlUoVY0qRYFSp1DCmFKl9Ud25y6mPx9/PqFKxYkypIKjqMYHiTkaVihVjSgWFUaVixZiWBHkSwO6opzBpfFRT8eQHGVUqdIxpCXAGst+aG7PjEOtGERmKeh6TVPUY1eBrfKRKhY4xLRFdmcymjJe9tGrunDgg10IwGPVMJvHpPxU6xrTEdHd3b8kMuFdJLFYrkCtE5PmoZzKJUaVCxZiWKMdxtjsD7nULlyyOC6xPANgY9UwmMapUaBjTEtfR0bHLGcjeLBWxhFjyIYg8E/VMJo2Pal0i8c+MKkWFMS0TjuOMOK771UVLFqfEkosE4kQ9k0mqegwCvWt4565+RpWiwJiWmY6OjjHHdb95wqtOWiaWnCfAn6OeySjVYxlVigJjWqba2tp8x3Xv7/fc48SSVSL4U9QzGcWo0ixjTMuciKjjug85nneiZVtnieD3Uc9kFKNKs4QxpX36s9lHHM9baVnyRhH5TdTzGMWo0gxjTOkA/a77c8dzX2/b1mtF5GdRz2PUhKi2tLRURD0SlQbGlA6qL5v9neO5b7Jt61Ui8p8ANOqZjNkT1cHNWxxGlUxgTOmw+rLZPzqe+/cxS1aISBuAIOqZjNk/qhczqhQWY0pT1uu6XY7nrralslkg9wkkF/VMxrwY1a8Pbt7Sz6hSGIwp5a3P6+txBtzzraqKRoHcLSKjUc9kjGoto0phMKYUWl9fX9YZcC9GzK4TyO0QDEc9kzGMKuWJMaVpcxxngzPgfrhGJG5B/k0gO6KeyRhGlaaIMSVjnnbd5/oH3E/FaqriliVfgMi2qGcyhlGlw2BMybienp7N/a772UWW1FqWXCnA5qhnMoZRpYNgTGnGdGSz2/pd9/NzFi6otSz5NAR/jXomYxhVmoAxpRnX1dW1s991bzoG8QQs+YiIPBv1TMaMi2oqkbiIUS1fjCnNmnavfTjjurdVzZ2TgiX/LEA26pmMUa3VQL8xuHlzH6NanhhTmnXd3d2jGdf9xtGJeCMsuUAEPVHPZIwizqiWJ8aUItPe3p7LuO63z12zplkseRdEuqKeyRhGtewwphS5dDodOK77oONmV4glb4fIH6OeyRhGtWwwplQw9lyo+kcZz32VCN4MyO+inskYRrXkMaZUkBzP+2lmwH2tCFoB+UXU8xjDqJYsxpQKmuN5v84MuG+wBKcA8uOo5zGGUS05jCkVhX7P+0NmwH2bJRUnCOT7KJULVe8f1QsZ1eLFmFJR6ff6O50B951SETtOBA8A8KOeyYgXo3r3thc29zKqxYkxpaLkOM6fHc97L2L2MhF8S0TGop7JBAUS46Pa2toai3ommhrGlIpaJpNxHM+7sMqSlFjyNREZiXomE/ZGdYPr9TGqxYExpZLQnc0+47juv1TUVCdE8GUAu6KeyQRGtXgwplRS1q9fv9HxvH+1qyprRXC9iGyPeiYTGNXCx5hSSerr63vB8bzL52FhrQiuFmBL1DOZsC+q3jMXRz0L7Y8xpZLW6XUOOp53jV1dFRfBZyCyKeqZjFBI1CPQ/hhTKgu9vb1Djufd8NKjjoxbgo8J8JeoZ6LSwphSWVm7du3ufs+7FRWxOkusD0LgRT0TlQbGlMqS4zgj/V72zmPi8XpL7PdBpC/qmai4MaZU1trb23P9Xuae89Zc0GSLfQ4gT0c9ExUnxpQIL15Ttc/L/IfjZZfbsN8BSEfUM1FxYUyJxhER7RvIPJwZcE+yYb9VgMeinomKA2NKdBB9A5mfOAPeqYB9ugh+FfU8VNgYU6LDyAxkfuV43umI2adC8JOo56HCxJgSTVEmk3ks43lvRcw+CYKHUSrXVCUjGFOiPGUymY6M572jMmYvh+A/AARRz0TRY0yJQlqfyTyd8bxzYjH7DSiRq1RReLzyDFFITYlE7Rjwad8PLgJQGfU8FC3GlChPDQ0NSX907NIxxftUlT8vQgAYU6Ipa0om68eC4LJgZOw8QGN894nGY0yJDqO+tr5Jkbts1A/eA8Dmm/g0GcaU6CCa6uqOG/X9ywMdexf4Zi0dBmNKNEF9vH6Fau6K0Zx/NsCLMNPUMKZEezQmkyf5QXBFoGP/EPUsVHwYUyp7qXjqFKh/Rc4P3hb1LFS8GFMqWw3J5GlBoJ9Vzb0p6lmo+DGmVHbqE4nXBQGu8v3gjKhnodLBmFLZaEgmz/B9TQeBnhb1LFR6GFMqeal4/E0A0r4fnBL1LFS6GFMqWalE4iwNcJWqnhT1LIbtssBfVS00jCmVFFWVVCL1doF/tQa6Iup5TBJgJyy5c45l3diVyWyKeh7aH7/VQSUhnU5bqUTinalE8imo/7AqVkQ9kykC2QHITaiIJRzX/SRDWpj4yJSK2qpVq+zOP3asvv+ee65URVPU85gkIkOAfjVWXfVvPT09m6Oehw6NMaWi1NraGtswMHDOk3984rNQbYh6HpNEZDsEt1fNmfOl7u7uLVHPQ1PDmFJRaWlpqdi+eeu5G1zvswoko57HKJFtUNxWM3/ezevWrdsa9TiUH8aUikJzc3Pl8K5dawY3b7kcqrVRz2OUYFBg3ToPC27pHOgcjHocCocxpYLWGm+t3qDP/NPIjl2XAXp01POYJMAWCG5FLHaL4zjbo56HpocxpYK0cuXKmhc2bvznZ9W7FMBRUc9jkgCbFfJlu7ryK729vUNRz0NmMKZUUJYvXz5357ahD2za+NdPQfGyqOcxSSAvQOTmqrk1t3V3d++Ieh4yizGlgtDY2DjfHxm5ZNe2oU8CurSkfhlEZJNAb56zYP7tXV1dO6Meh2YGY0qRakkmF25X/bA/PPJxBRaX1O8riTwHwb8tWrz4ax0dHbuiHodmFmNKkTj++OOP2D2086ODgX4MqgujnscowV9FrZtectTL7li7du1uuG7UE9EsYExpVjU0NCzVsbGP7R7a8RFVnR/1PCYJ8L8Q66ajceyd7QPtw85ANuqRaBYxpjQrltfVvXSnr58IRkb/RYG5Uc9jkgB/UUtugG1/3XGcEQeMaDliTGlGNTU1HTU2PPzJnTn/AwDmlNArohCRZyG4AbZ9d8ZxRqKeh6LFmNKMSKVSR8uY/+nR3bsvhqI66nmMEhmwIF+snFvzre7u7tGox6HCwJiSUU2JRO2Y6qXI+RcG0MpSenMeAg8i1y9avPjfOzo6xqIehwoLY0pGNDQ0JIORsc+MKdaooqKUPuIkQBaWXH90be097e3tOb47T5NhTGlampLJ+tEguDwYGTtXobESaigE4ojIda+IH3tfe3t7zmFE6RAYUwqlId6wLNCxK0b94BwAtpZURaXPhl73NyefdH9bW5vf7/HdeTo8xpTy0lRXd9yo71/h6+hqlNrP3oj0iuALJ5x00gNtbW1+n+dFPREVkdL6n4FmTH28fkWqNvHQaM7vguLdKKH/dkSw3oL13vPWXPBKx3Xva2tr86OeiYpPyfwPQTOjrq6uJRVP/DDQsT8p9GwAEvVMpgjQbYt9zrlr1hzXP5B9IJ1OB1HPRMWLT/NpUvXx+KsD4Crk/LeW0KuhLxJZJ4Jr+7PZh0RE0+l01BNRCWBMaT8NyeRpQaBXBqpvjHoW00TkKbHk2r5M5gcioiIl8yCbCgBjSgCAVDz+elVc5fvB6VHPYpoI/mSpfW2v6/yQEaWZwpiWuYZk8kw/0KtU9bVRz2KedIiFaxzX/REAMKI0kxjTMlUXr3uzwL/K94OVUc9imog8LpZc25/NPhL1LFQ+GNMyk0okzlLFlVD/5FJ7Y0kEv7fUurbPy/5X1LNQ+WFMy4CqSmM89Q+B+FdqoCdEPY9pAjwGwTWO5/006lmofPFzpiUsnU5bqURiVSqRfMqH/wNVlFhI5XeWJW90BrxTGVKKGmNagtLptFVfm3zP/ffc87QG+iBUj496JpNE5DexmH1GZsB9bb/r/jzqeYgAPs0vKa2trbFnBwbec989914BaEMpXXsEAETQDiDteO6vo56FaCLGtAS0tLRUbHth63kbXO9yAHVRzzMDHrUtSfe57m+jHoToYBjTErBt8+YbFPh41HOYJiI/V9tKZzKZx6KehehwGNNSoFJZUle2F/kpYKcdz/l91LMQTRVjSoVD8F+2yOf6XPfxqEchyhdjSpETyCO2LZ/rzWafiHoWorAYU4qKish/ImZ/znGcJ6Mehmi6GFOabQrBDy1UXNPv9XdGPQyRKYwpzRYVyA9sC9f0um5X1MMQmcaY0kwLROT7FbZ1zfpM5umohyGaKYwpzZQAggclFrvWcZw/Rz0M0UxjTMk0XwTfs1B5bZ/X1xP1MESzhTElU3yBPBCz5fM92Wxf1MMQzTbGlKZFIDkVfAe29Xknk3GinocoKowphSKQHETvQ8z+QsZxMlHPQxQ1xpTyIiJjUNxrV1de19vb60Y9D1GhYExpSkRkVIF7KgTXrffcgajnISo0jCkd0osR1W9VWXJ9dzb7TNTzEBUqxpQmJSIjUNyNmP3FjONsiHoeokLHmNL+BMOWyjesqsov9vb2/m/U4xAVC8aU9totgrsqampuXL9+/caohyEqNowp7RJL7qwGbnzadZ+LehiiYsWYlikBdgrkjpqYdVNXJrMp6nmIih1jWmYEsgMiX0XM+lK/4zwf9TxEpYIxLRMiMgTo7bHqqi/19PRsjnoeolLDmJY4Edkugtsq58y5ubu7e0vU8xCVKsa0VIlsE8itNfPn3rJu3bqtUY9DVOoY01IjGBTglnlYeGun1zkY9ThE5YIxLRECbBFLvqy2/RXHcbZHPQ9RuWFMS4CI3mdVVV3W29s7FPUsROWKMS0B/Z73h6hnICp3VtQDEBGVAsaUiMgAxpSIyADGlIjIAMaUiMgAxpSIyADGlIjIAMaUiMgAxpSIyADGlIjIAMaUiMgAxpSIyADGlIjIAMaUiMgAxpSIyADGlIjIAMaUiMgAxpSIyADGlIjIAMaUiMgAxpSIyADGlIjIAMaUiMgAxpSIyADGlIjIAMaUiMgAxpSIyADGlIjIAMaUiMgAxpSIyADGlIjIAMaUiMgAxpSIyADGlIjIAMaUiMgAxpSIyADGlIjIAMaUiMgAxpSIyADGlIjIAMaUiMgAxpSIyADGlIjIAMaUiMgAxpSIyADGlIjIAMaUiMgAxpSIyADGlIjIAMaUiMiAsDEVo1MQERWIIAhC9S1UTEVlbph1RESFbrSiIlTfwj0yFZ0fah0RUYGTsbF5YdaFe2QagDElopKkIgvCrAsVUxXEw6wjIip0AVAbZl24mAKNYdYRERU69TVU30K+AYVkS0tLRZi1RESFTATLwqwL+chUY9s3bz4xzFoiokKmwKvDrAv9oX2FdXrYtUREhSiVStVB9dgwa8PHVJUxJaKSor4fumuhYyqC1zc0NCwNu56IqNCI4uywa6fzyLTCHxt7d9j1RESFpKmp6ShVPTPs+uld6CTABdNaT0RUIHLDw+cCsMOun+ZVo/Sk+kTiddPbg4goWi0tLRWq+PB09pj2JfhU8dnp7kFEFKVtW7acr6rHTGcPAzHVN9TV1b1muvsQEUWhubm5EoFeNt19jFwcWnz/9lWrVoV+rYGIKCrDO3Z9SoG66e4T7uukgvXj/66KE5584olLpjsMEdFsWhZfFgf0ivHHJvZtqkI+MrW+DpGu/QYIcN2yZLIh3H5ERLNr1apVdg7D/w6gZtxhX0Q+Gma/kJfg0xxs64MAdN8x6LxcoA+2xlurw+xJRDSbnnz8iatV0Tr+mAhuq7Gsp8LsF/o100wm8xgEd40/pqp/swHeV8PuSUQ0Gxpq694y8ek9BB5isavD7jmtN6COQfzjE5/uq+Kf6moT10xnXyKimVIfj786gN+Gcf0TkTFb5F2O42wPu++0YtrutQ/HBKsFsmP/W/TKukRiWh+AJSIyLZVKvVIVP1Zgwo/myaV9rvv4dPae9kejel23FxbeC8Df74ZAv1JXm7hi8lVERLMrFU+dgrHcbxRYst8NIvc6XvbL093fyOdMHdf9kVjy/gNv0c+nahO38TOoRBSl+mTybaq5Xx4QUsiPj4nXXmTiHEZiCgCO637TElw68bhCP/Tk40+0NzQ0vMLUuYiIpmLVqlV2Kh6/LvCDHwGYs9+NIr9dtHTx6vb29pyJcxmLKQD0e96NItYlAIL9b9HTgpGxzvra5DtMno+I6GCaksn6Jx9/ol0VlwGQ8bcJ5JGXHnXkmzo6OnaZOp/RmAKA42XvEEveJSIj448rdGmA4Pt18fh/pVKpaX91i4hoMq3x1upUPPm5sUDXAXraAXcQ3HN0ovYf165du9vkeY3HFAAc131IbetUATIH3Kh4C3J+dyqR+GpTIhHq96mJiCZqjbdW1yUSH9qAgT7V4CpVrRp/u4iMwpIPZzzvfaae2o83IzEFgEwm04GK2Iki0jbxNlWt0kAvGVP0p2oT307FU62qKpPtQ0R0KI2NjYlUPH71sxjwEOhtk11KT4CM2tZrMq57+0zNEZupjQFgzwdgV6cSiXci0FsU2O9NKFWtAHAeNHdeKpEcqIsnv2eJ/mLB4sX/Y/K1DCIqHaoqjcnk8kDldIX+Y2545DQAMu7b7fuIyJhCvjxnwbxrurq6ds7kXDMa070c132oubn5v0d37LpaBR+e+PAbAKBaC+inA8Wnt23eMpqKxzsArBegF2o5VkwGVXVIfXuHbfv+gWcholKhquIH9hyx/PkQma8BjlWgURA01scTJ7/4EacD47k/+SVi9kcyjvPn2Zh5VmIKAN3d3TsAfKqpqenmseHhTyLQ9x/4LYQXqWolgJUAVr74rytAsO8VjgABU0pUBnLQABgfzcPlEwAg+EnMtr/Qm8n8zwwNNqkZe830YNavX7/Rcd1PxGqqawXWJ0Qk1BVaiIj2EpHnLchtllSckPG8t852SIFZfGQ6UU9Pz2YANwO4uTGRWJ4L8E4Ap4vgVXteSyUiOjiRfkAeFdEfL1y8+L87OjrGohwnspiO1+u6XQC6AFy1fPnyubuHhl6jKs2KoFGAZQp5BaDzRTH/YC8NEFFpEZERqO5QwRBUXhDRPgC9EOmBbT/mOM6GfXd23egG3aMgYjrennfcfr7nnwOoqqxevXrWX54gotnV1tZWVO+OFFxMD0dEFBOvUEVEFDE+wiMiMoAxJSIygDElIjKAMSUiMoAxJSIygDElIjKAMSUiMoAxJSIygDElIjKAMSUiMoAxJSIygDElIjKAMSUiMoAxJSIygDElIjKAMSUiMoAxJSIygDElIjKAMSUiMoAxJSIygDElIjKAMSUiMoAxJSIyIBb1AGGlUqlXIpdbpYrXCdCowGIACsEmAH+GyK+qRR7szmafiXpWIip9RRfTxmTypJyv1+tY7sy9x3T8HRRxAHGovnUYekMqnnjIqqy4rK+vLzvbsxJR+Siqp/n1icSVOT/4A6BnHv7eAABLVVf7o6PddYnE+TM6HBGVtaKIaUtLS0UqnvheEOg1CDOzohqB3puKJ79ofjoioiKJ6eDmrbep6urp7qMaXJqKJz9uYiYiovEKPqZ1icTF0OD9pvZTDW6qq637W1P7EREBBR7ThoaGpVDcZHhbGxLc1draWnRvvhFR4SromPojYx+F6kLjG6vWbxgYeLfxfYmobBVsTNPptCXQfzrM3XwRtIsgLZZcZAk+IJZcB8gTmPCJqQMoLjI2LBGVvYJ9qnv//fevUODlB72D4D8qUH1Zj9fjTXLrFfXx+hWKsZtVMenro6p6WiqVWuA4znZDIxNRGSvYR6bq+ycd5CbfEnwg43nnHCSkAIB+r7/z3DVrzhSxbjjIXWzkcidMe1AiIhRwTAWonfS4WJ/q97y7prJHOp0OHC/7GYg16f1VZNJzEBHlq2BjqipzJx4Tkd84XvbL+e4lMeujEBmYeNxSmRN2PiKi8Qo2poJg14FH9aowezmOMwLBdROPB6KTnIOIKH8FHFPs/0hS5Llz16z5bdj97IqKHwDw99tS9YBHq0REYRRsTAPbfmL/I9qRTqeDsPv19fW9IIA37pC/0LI6w+5HRDRewcb0vPPO+xOAjXv/LsBzBrb9vz1EHuvIZrcZ2JOIqHBjmk6nAxHcs++AyoLp7qn4vz1s6Denux8R0V4FG1MAmGPbt4jIEACooH46e7W0tFQIEAcAATLzlyx5wMCIREQACjymXZnMJkAuBQCoLm9OJo8Nu9fQ1q2vV+g8AIFY8sGOjo4xU3MSERV0TAHA8bJ3COSbADASBKGvReoHwb8CgCW4rN91f25qPiIioAhiCgBV8+ZcAsHDgFySqk3l/RXQhtq6f4TiLWLJzf2ed+NMzEhE5a0oYtrd3T3quO7ZqrhRxf/hsviy+FTXNiQSrwrgf0Msudhx3U/M4JhEVMaKIqYAICKaGXCvFLXfPYbhL9Unk393qPun02krlUhc6Kt+zLbkVMd1756tWYmo/BTsJfgOxhlw1gI4uz5evyKVSLzRBgZ82964cOHC3du2bbPm5ebV7IjteMV3vv3tBGy7PeM4/AgUEc24oovpXv1ef+dBbhoBMAige9aGIaKyVzRP84mIChljSkRkAGNKRGSAlcvl8v4mkKhUzMQwRERRG4nF8n4vSUVz1rnnnrsj34UiOi/fNURERWF0dH6+S2y1hqx0Oh0IsDOfhYFiab4nIyIqBjnLWpLvGrV0aO9rpnld11OgDfmejIioGFg+8u6bJTJoAYCKZPJaqXJcvicjIioGKsHx+a6J+dUZCwBE0ZPXyaBHp1KpunxPSERU8AJtzefuIrK92+v+64uPTIHevE/o+2/Oew0RUQE7LpF4mQIr8lmzt58WAMRi1u/zPqvquXmvISIqYMMq5yDPz99bit9j76J5ixY9LpC8PiKlilOWJZN5v7ZARFSIVFWgwUV5rxP9JbAnph0dHWMqmvdv0o8FweX5riEiKkSpROrtCjTnuSyYh0W/BsY9nLVg/SjvsytWp1KpE/NeR0RUQFpbW2Oi/ufzXSeC33R6nYPAuJhWz5/7PREZyXMvCzn/jnQ6ze/4E1HR+svAwMdDPCqFwL5375/tvX/YtGnT8OKFR6wA8Mo893vFuqc6dcvg4K/zHYSIKGr18foViuAB5H995112deWFmzdvHgUmvGtlx6yvhRlGFVfVxev4USkiKirLli1bopprU9WqvBeL3N/b2zu096/7xbQ3k3lUBGtDzGSJ+g81JBKvCrGWiGjWLV++fG5ueOTHCk3lu1YguVhV5RfHHzvgtU6xrC+EGUyBub7iZ6l4/PVh1hMRzZbm5ubFu7Zv/4WqvjrUBoIHent73fGHDohpfzb7YxG0hzqB6kJAfppKJC4MtZ6IaIY11dUdN7xz12OqOCXkFrtjqLp64sFJ34UXrbhERPK+aDQAqGqVBnp3XTz+QCqVekmYPYiITEun01ZdIvGh0Zz/OFQbw+4jkM/3eD3exOP2JPfFlm1bXli8aNEcAKeFPSGA4xEEFy09YtFwY1NT14YNG3LT2IuIKLSGZPKMzic7H4TqhQBC/1KICHqq5s09//nnn/cPuO1gi5qbmyuHd+x6DNCWsCceN8FzArkTMes+x3Hyu9wfEVEIjY2N84OR3NmK4AOhXxsdR0RGoPZKZ8D506S3H2pxQ0ND0h8de/LF10LNEJGnAH3Ugv14oNIbq4k9Y9v2UHd396ipcxBR+Vi1apWd7eiYNyjyEku1UQMsB/RvVfU0ADWmziNiXeJ42TsOevvhNkglEmdpoA/jIC8JGBTM8P5EVJpm/huYIvdmPHfNIe8ylX1SicRFGug3jAxFRFRMBD85Jh7/+/b29kO+7zOlR5tbBgefXHLE4lFAzzAzHRFR4RPgsUVLl5y1du3aw163ZMpP3bcMbv3d0iMWbVXgzZjiI1oiomIlgv+es3DBWZ2dnbumcv+8XgfdMjj4h6VHLO6D4Kx81xIRFQuBfGfh0iXv7uzsHJ76mhAaksmTAz/4ngKJMOuJiAqRiIwCcqnjZW/Jd22od8H6stk/zpNFJwrk+2HWExEVGgGyliWnhQnpnvXTUxev+wcguBWqx053LyKi2SYioyK4aemRR35h7dq1u0PvY2KYlpaWOYMvbPkMBB8x+QF/IqIZpBD8MCZyWa/r5v9z9xMYfVe+JZlcuF31wxrgowpdanJvIiITBJJT0bZK275ufSbztLl9Z0Bzc3Pl2I7hvwvEPx+Qt6pq5Uych4hoqkTQCVjfrhZ94GnXfc74/qY3nCiVSi2QIHidBsHpAFoVaIKieqbPS0RlLYDgGVH5H0AejUnlo5NdNs+kWf/wfTqdtr773e/W5kZyjTb8l/ki80VlvqrWRDEPERU3y8KoqgxBdEgC2WpZ6iw+8sj+6byZFMb/B+sM0/Xs0SbwAAAAAElFTkSuQmCC;" parent="1" vertex="1">
          <mxGeometry x="200" y="450" width="70" height="90" as="geometry" />
        </mxCell>
        <mxCell id="9cwglLM5n4MLdlPzuKQn-12" value="Splunk" style="text;html=1;align=center;verticalAlign=middle;resizable=0;points=[];autosize=1;strokeColor=none;fillColor=none;fontFamily=Georgia;fontStyle=2;fontSize=16;" parent="1" vertex="1">
          <mxGeometry x="350" y="400" width="70" height="30" as="geometry" />
        </mxCell>
        <mxCell id="9cwglLM5n4MLdlPzuKQn-13" value="" style="shape=image;verticalLabelPosition=bottom;verticalAlign=top;imageAspect=0;image=data:image/png,iVBORw0KGgoAAAANSUhEUgAAAVMAAAG2CAYAAADCwmVFAAAACXBIWXMAAC4jAAAuIwF4pT92AAAE7mlUWHRYTUw6Y29tLmFkb2JlLnhtcAAAAAAAPD94cGFja2V0IGJlZ2luPSLvu78iIGlkPSJXNU0wTXBDZWhpSHpyZVN6TlRjemtjOWQiPz4gPHg6eG1wbWV0YSB4bWxuczp4PSJhZG9iZTpuczptZXRhLyIgeDp4bXB0az0iQWRvYmUgWE1QIENvcmUgOS4xLWMwMDEgNzkuYThkNDc1MywgMjAyMy8wMy8yMy0wODo1NjozNyAgICAgICAgIj4gPHJkZjpSREYgeG1sbnM6cmRmPSJodHRwOi8vd3d3LnczLm9yZy8xOTk5LzAyLzIyLXJkZi1zeW50YXgtbnMjIj4gPHJkZjpEZXNjcmlwdGlvbiByZGY6YWJvdXQ9IiIgeG1sbnM6eG1wPSJodHRwOi8vbnMuYWRvYmUuY29tL3hhcC8xLjAvIiB4bWxuczpkYz0iaHR0cDovL3B1cmwub3JnL2RjL2VsZW1lbnRzLzEuMS8iIHhtbG5zOnhtcE1NPSJodHRwOi8vbnMuYWRvYmUuY29tL3hhcC8xLjAvbW0vIiB4bWxuczpzdEV2dD0iaHR0cDovL25zLmFkb2JlLmNvbS94YXAvMS4wL3NUeXBlL1Jlc291cmNlRXZlbnQjIiB4bWxuczpwaG90b3Nob3A9Imh0dHA6Ly9ucy5hZG9iZS5jb20vcGhvdG9zaG9wLzEuMC8iIHhtcDpDcmVhdG9yVG9vbD0iQWRvYmUgUGhvdG9zaG9wIDI0LjYgKFdpbmRvd3MpIiB4bXA6Q3JlYXRlRGF0ZT0iMjAyMy0xMS0xNlQwMDo0NTo1MyswODowMCIgeG1wOk1ldGFkYXRhRGF0ZT0iMjAyMy0xMS0xNlQwMDo0NTo1MyswODowMCIgeG1wOk1vZGlmeURhdGU9IjIwMjMtMTEtMTZUMDA6NDU6NTMrMDg6MDAiIGRjOmZvcm1hdD0iaW1hZ2UvcG5nIiB4bXBNTTpJbnN0YW5jZUlEPSJ4bXAuaWlkOjI0ZmYzNjJhLWE4ZDYtYTg0OS04ODAxLWYwNDY3YzRmOGY1OSIgeG1wTU06RG9jdW1lbnRJRD0ieG1wLmRpZDoyNGZmMzYyYS1hOGQ2LWE4NDktODgwMS1mMDQ2N2M0ZjhmNTkiIHhtcE1NOk9yaWdpbmFsRG9jdW1lbnRJRD0ieG1wLmRpZDoyNGZmMzYyYS1hOGQ2LWE4NDktODgwMS1mMDQ2N2M0ZjhmNTkiIHBob3Rvc2hvcDpDb2xvck1vZGU9IjMiPiA8eG1wTU06SGlzdG9yeT4gPHJkZjpTZXE+IDxyZGY6bGkgc3RFdnQ6YWN0aW9uPSJjcmVhdGVkIiBzdEV2dDppbnN0YW5jZUlEPSJ4bXAuaWlkOjI0ZmYzNjJhLWE4ZDYtYTg0OS04ODAxLWYwNDY3YzRmOGY1OSIgc3RFdnQ6d2hlbj0iMjAyMy0xMS0xNlQwMDo0NTo1MyswODowMCIgc3RFdnQ6c29mdHdhcmVBZ2VudD0iQWRvYmUgUGhvdG9zaG9wIDI0LjYgKFdpbmRvd3MpIi8+IDwvcmRmOlNlcT4gPC94bXBNTTpIaXN0b3J5PiA8L3JkZjpEZXNjcmlwdGlvbj4gPC9yZGY6UkRGPiA8L3g6eG1wbWV0YT4gPD94cGFja2V0IGVuZD0iciI/PoIWUd0AACaJSURBVHic7d17fFx1nf/x9+ecya132qqgQGYmk6Qx0C0ElApqFvC6su6KraJc6gKrsl7XCwICIygIrAiCAoouCOJKUPy5uK43jJeligRDSmwuZ+acQN1KoW3a9JLLnPP5/UHbTdO0zZx8kzOX9/Px4PFoz8z3ez4PHvB6zPWMYJa0tLTMGdq69TUaBM0BsEyARiheBpH5Cp0vkBoAMlvzEFGJUIwqdAgiQwJshcIRC70K9FgVFY/19fX9ZTbGmNF4NSWT9WNBcI5CzhTg1apaOZPnIyI6gEivQB8VkYffe8EFv0yn08GMnMb0hitXrqx5YePG8xVYo4pTTO9PRBSWAH+BWPfbVRV39fb2uob3NqOxsXF+MDLywQDyCai+1NS+RESmCSSngu/EBNf3um6vmT2nSVWlPl73PkBvUOhSE0MREc2SQAR31cyff8W6deu2TmejacU0lUo1Yyz3dQVeM519iIgiJbJJBJ90XPe+0FuEXZhKJC7SQL8CoCbsHkREhUQED1TNnfv+7u7uHXmvzXfBypUra57fuPFuVbwn37VERAVPpE9i9jscx+nOa1k+d14RX7FoSLc9Auip+U1HRFREBIO2ZZ3Vl83+bupLpqixsfHlueHRnwJ6XLjpiIiKym6x5F2O6/7nVO5sTeVOxx9//BH+8MjPGFIiKiM1UDzUkEyeMZU7HzamK1eurNm9fegRBZqnPxsRUfFQ1cog0Ifr6upaDnffwz7NT8UTD6rqKjOjjTuxyLOq6BXRZxTWkCDYDUBNn4eISpxIpSrmA/oSUTRCJGX8q+siz1XWVJ+wfv36jQe9y6HWpxKJf9FAbzczi4xA8YhAfhCbU/WrQw1FRBTWypUrazY/99ypgepbVPU9UBxpYl8RtJ9w8slntrW1+ZPefrCFqdrUCRB/rapWTWsAyAsK3DJnwbyvTfcbBkRE+Vi1apXd+XjH2wPo5YAe9qn64YhYn3O8bHrS2yY7mE6nrfv//Z4/KnBi6JNCcrDwFbuyMt3b2zsUdh8iIhMa4nXv9tW/GcBRYfcQSA4V9orJPoM6aUzrEokPIdDbwp8QWdu23tWbzT4Rdg8iItNaksmF23y9W6HvDL2JyG8znvu6iYftiQeWLVu2JMj5/w9Adcgz/WKRbZ2xLps1enkrIqLp2rh168iWbYNtSxcfsUsVZyLcV+prlyxZ7GzZunXd+IMHfDTKHxn5OFQXhhlUIA9Vz5vzdx3Z7LYw64mIZkO/694kllwAINSFojXQK9Pp9H793O+RaUsyuXC34rsI8ahURH62cOnis5966qmxMMMREc2mLYODXUuPWLxJoW8LsXzpuq6n/rxlcHDfa6f7lXV7ELw/1KNSkT67qvKdHR0dDCkRFY1+L3snxLo11OJALx3/1/1iqsD78t1PREZswWq+Y09Exah6bs2nAcn7zXIFTmxMJJbv/fu+mDYkkyerYlneGypu6nPdp/JdR0RUCLq7u0ctiV0MYNIP4x+KD5y/98/7YuoHeG++Gwlkw0tffuR1+a4jIiok/V5/pwi+nvfCQM/Z+8d9MRUN3pDvPmrhxrVr1+7OewAiogKjtn29iOT1vo8CL2+qqzsO2BPT5njzkQq8Mq8zi2x76ZFH3p3XGiKiApXJZJ6F4sF81+V8/3RgT0zHMNya7waiaOOjUiIqJWLh3nzXKPC3wJ6YBvCXH/ruk51VH8p7DRFRAXvvBRf8EkB+F2RSHA/siakCjfmsFZGxOQsWTPm3UYiIikE6nQ4gaM9njQLxVCpVZQGAaH4xVUVXV1fXznzWEBEVAwv4fZ5LbACpve/m53VJKgF68jwZEVFRUJG8+2YFwVEvxlRkfn4rMZDvyYiIioGFEH3zZb6VSqWqVLUir4Wq2/M+GRFREZDKyrz75lvBfKuqqmpuvgtVZFe+a4iIikHF6GjefbNU5li+74e5OCp/RZSISpJlWXn3TQE54OLQRESUP8aUiMgAxpSIyADGlIjIAMaUiMgAxpSIyADGlIjIAMaUiMgAxpSIyADGlIjIAMaUiMgAxpSIyADGlIjIAMaUiMgAxpSIyADGlIjIAMaUiMgAxpSIyADGlIjIAMaUiMgAxpSIyADGlIjIAMaUiMgAxpSIyADGlIjIAMaUiMgAxpSIyADGlIjIAMaUiMgAxpSIyADGlIjIAMaUiMgAxpSIyADGlIjIAMaUiMgAxpSIyADGlIjIAMaUiMgAxpSIyADGlIjIAMaUiMgAxpSIyADGlIjIAMaUiMgAxpSIyADGlIjIAMaUiMgAxpSIyADGlIjIAMaUiMgAxpSIyADGlIjIAMaUiMgAxpSIyADGlIjIAMaUiMgAxpSIyADGlIjIAMaUiMgAxpSIyADGlIjIAMaUiMgAxpSIyADGlIjIAMaUiMgAxpSIyADGlIjIAMaUiMgAxpSIyADGlIjIAMaUiMgAxpSIyADGlIjIAMaUiMgAxpSIyADGlIjIAMaUiMgAxrQE1MfrV7TGW6ujnoOonDGmJUA1d9EG9TKp2uQljCpRNBjTEqHAyxXBVxlVomgwpiWGUSWKBmNaoiZGNZVKVUU9E1EpY0xL3N6oYiyXZVSJZg5jWiYYVaKZxZiWGUaVaGYwpmVqXFT5miqRAYxpmVPgFfuiGk9+kFElCocxJQB7oqrB1xhVonAYU9oPo0oUDmNKk2JUifLDmNIhMapEU8OY0pQwqkSHxphSXhhVoskxphTK/0XVdxhVIsaUpkmhR++Nan08+QFGlcoVY0pGKPToQIM7GFUqV4wpGcWoUrliTGlGMKpUbhhTmlETo9rc3FwZ9UxEM4ExpVmxN6ojO3ZlGFUqRYwpzSpGlUoVY0qRYFSp1DCmFKl9Ud25y6mPx9/PqFKxYkypIKjqMYHiTkaVihVjSgWFUaVixZiWBHkSwO6opzBpfFRT8eQHGVUqdIxpCXAGst+aG7PjEOtGERmKeh6TVPUY1eBrfKRKhY4xLRFdmcymjJe9tGrunDgg10IwGPVMJvHpPxU6xrTEdHd3b8kMuFdJLFYrkCtE5PmoZzKJUaVCxZiWKMdxtjsD7nULlyyOC6xPANgY9UwmMapUaBjTEtfR0bHLGcjeLBWxhFjyIYg8E/VMJo2Pal0i8c+MKkWFMS0TjuOMOK771UVLFqfEkosE4kQ9k0mqegwCvWt4565+RpWiwJiWmY6OjjHHdb95wqtOWiaWnCfAn6OeySjVYxlVigJjWqba2tp8x3Xv7/fc48SSVSL4U9QzGcWo0ixjTMuciKjjug85nneiZVtnieD3Uc9kFKNKs4QxpX36s9lHHM9baVnyRhH5TdTzGMWo0gxjTOkA/a77c8dzX2/b1mtF5GdRz2PUhKi2tLRURD0SlQbGlA6qL5v9neO5b7Jt61Ui8p8ANOqZjNkT1cHNWxxGlUxgTOmw+rLZPzqe+/cxS1aISBuAIOqZjNk/qhczqhQWY0pT1uu6XY7nrralslkg9wkkF/VMxrwY1a8Pbt7Sz6hSGIwp5a3P6+txBtzzraqKRoHcLSKjUc9kjGoto0phMKYUWl9fX9YZcC9GzK4TyO0QDEc9kzGMKuWJMaVpcxxngzPgfrhGJG5B/k0gO6KeyRhGlaaIMSVjnnbd5/oH3E/FaqriliVfgMi2qGcyhlGlw2BMybienp7N/a772UWW1FqWXCnA5qhnMoZRpYNgTGnGdGSz2/pd9/NzFi6otSz5NAR/jXomYxhVmoAxpRnX1dW1s991bzoG8QQs+YiIPBv1TMaMi2oqkbiIUS1fjCnNmnavfTjjurdVzZ2TgiX/LEA26pmMUa3VQL8xuHlzH6NanhhTmnXd3d2jGdf9xtGJeCMsuUAEPVHPZIwizqiWJ8aUItPe3p7LuO63z12zplkseRdEuqKeyRhGtewwphS5dDodOK77oONmV4glb4fIH6OeyRhGtWwwplQw9lyo+kcZz32VCN4MyO+inskYRrXkMaZUkBzP+2lmwH2tCFoB+UXU8xjDqJYsxpQKmuN5v84MuG+wBKcA8uOo5zGGUS05jCkVhX7P+0NmwH2bJRUnCOT7KJULVe8f1QsZ1eLFmFJR6ff6O50B951SETtOBA8A8KOeyYgXo3r3thc29zKqxYkxpaLkOM6fHc97L2L2MhF8S0TGop7JBAUS46Pa2toai3ommhrGlIpaJpNxHM+7sMqSlFjyNREZiXomE/ZGdYPr9TGqxYExpZLQnc0+47juv1TUVCdE8GUAu6KeyQRGtXgwplRS1q9fv9HxvH+1qyprRXC9iGyPeiYTGNXCx5hSSerr63vB8bzL52FhrQiuFmBL1DOZsC+q3jMXRz0L7Y8xpZLW6XUOOp53jV1dFRfBZyCyKeqZjFBI1CPQ/hhTKgu9vb1Djufd8NKjjoxbgo8J8JeoZ6LSwphSWVm7du3ufs+7FRWxOkusD0LgRT0TlQbGlMqS4zgj/V72zmPi8XpL7PdBpC/qmai4MaZU1trb23P9Xuae89Zc0GSLfQ4gT0c9ExUnxpQIL15Ttc/L/IfjZZfbsN8BSEfUM1FxYUyJxhER7RvIPJwZcE+yYb9VgMeinomKA2NKdBB9A5mfOAPeqYB9ugh+FfU8VNgYU6LDyAxkfuV43umI2adC8JOo56HCxJgSTVEmk3ks43lvRcw+CYKHUSrXVCUjGFOiPGUymY6M572jMmYvh+A/AARRz0TRY0yJQlqfyTyd8bxzYjH7DSiRq1RReLzyDFFITYlE7Rjwad8PLgJQGfU8FC3GlChPDQ0NSX907NIxxftUlT8vQgAYU6Ipa0om68eC4LJgZOw8QGN894nGY0yJDqO+tr5Jkbts1A/eA8Dmm/g0GcaU6CCa6uqOG/X9ywMdexf4Zi0dBmNKNEF9vH6Fau6K0Zx/NsCLMNPUMKZEezQmkyf5QXBFoGP/EPUsVHwYUyp7qXjqFKh/Rc4P3hb1LFS8GFMqWw3J5GlBoJ9Vzb0p6lmo+DGmVHbqE4nXBQGu8v3gjKhnodLBmFLZaEgmz/B9TQeBnhb1LFR6GFMqeal4/E0A0r4fnBL1LFS6GFMqWalE4iwNcJWqnhT1LIbtssBfVS00jCmVFFWVVCL1doF/tQa6Iup5TBJgJyy5c45l3diVyWyKeh7aH7/VQSUhnU5bqUTinalE8imo/7AqVkQ9kykC2QHITaiIJRzX/SRDWpj4yJSK2qpVq+zOP3asvv+ee65URVPU85gkIkOAfjVWXfVvPT09m6Oehw6NMaWi1NraGtswMHDOk3984rNQbYh6HpNEZDsEt1fNmfOl7u7uLVHPQ1PDmFJRaWlpqdi+eeu5G1zvswoko57HKJFtUNxWM3/ezevWrdsa9TiUH8aUikJzc3Pl8K5dawY3b7kcqrVRz2OUYFBg3ToPC27pHOgcjHocCocxpYLWGm+t3qDP/NPIjl2XAXp01POYJMAWCG5FLHaL4zjbo56HpocxpYK0cuXKmhc2bvznZ9W7FMBRUc9jkgCbFfJlu7ryK729vUNRz0NmMKZUUJYvXz5357ahD2za+NdPQfGyqOcxSSAvQOTmqrk1t3V3d++Ieh4yizGlgtDY2DjfHxm5ZNe2oU8CurSkfhlEZJNAb56zYP7tXV1dO6Meh2YGY0qRakkmF25X/bA/PPJxBRaX1O8riTwHwb8tWrz4ax0dHbuiHodmFmNKkTj++OOP2D2086ODgX4MqgujnscowV9FrZtectTL7li7du1uuG7UE9EsYExpVjU0NCzVsbGP7R7a8RFVnR/1PCYJ8L8Q66ajceyd7QPtw85ANuqRaBYxpjQrltfVvXSnr58IRkb/RYG5Uc9jkgB/UUtugG1/3XGcEQeMaDliTGlGNTU1HTU2PPzJnTn/AwDmlNArohCRZyG4AbZ9d8ZxRqKeh6LFmNKMSKVSR8uY/+nR3bsvhqI66nmMEhmwIF+snFvzre7u7tGox6HCwJiSUU2JRO2Y6qXI+RcG0MpSenMeAg8i1y9avPjfOzo6xqIehwoLY0pGNDQ0JIORsc+MKdaooqKUPuIkQBaWXH90be097e3tOb47T5NhTGlampLJ+tEguDwYGTtXobESaigE4ojIda+IH3tfe3t7zmFE6RAYUwqlId6wLNCxK0b94BwAtpZURaXPhl73NyefdH9bW5vf7/HdeTo8xpTy0lRXd9yo71/h6+hqlNrP3oj0iuALJ5x00gNtbW1+n+dFPREVkdL6n4FmTH28fkWqNvHQaM7vguLdKKH/dkSw3oL13vPWXPBKx3Xva2tr86OeiYpPyfwPQTOjrq6uJRVP/DDQsT8p9GwAEvVMpgjQbYt9zrlr1hzXP5B9IJ1OB1HPRMWLT/NpUvXx+KsD4Crk/LeW0KuhLxJZJ4Jr+7PZh0RE0+l01BNRCWBMaT8NyeRpQaBXBqpvjHoW00TkKbHk2r5M5gcioiIl8yCbCgBjSgCAVDz+elVc5fvB6VHPYpoI/mSpfW2v6/yQEaWZwpiWuYZk8kw/0KtU9bVRz2KedIiFaxzX/REAMKI0kxjTMlUXr3uzwL/K94OVUc9imog8LpZc25/NPhL1LFQ+GNMyk0okzlLFlVD/5FJ7Y0kEv7fUurbPy/5X1LNQ+WFMy4CqSmM89Q+B+FdqoCdEPY9pAjwGwTWO5/006lmofPFzpiUsnU5bqURiVSqRfMqH/wNVlFhI5XeWJW90BrxTGVKKGmNagtLptFVfm3zP/ffc87QG+iBUj496JpNE5DexmH1GZsB9bb/r/jzqeYgAPs0vKa2trbFnBwbec989914BaEMpXXsEAETQDiDteO6vo56FaCLGtAS0tLRUbHth63kbXO9yAHVRzzMDHrUtSfe57m+jHoToYBjTErBt8+YbFPh41HOYJiI/V9tKZzKZx6KehehwGNNSoFJZUle2F/kpYKcdz/l91LMQTRVjSoVD8F+2yOf6XPfxqEchyhdjSpETyCO2LZ/rzWafiHoWorAYU4qKish/ImZ/znGcJ6Mehmi6GFOabQrBDy1UXNPv9XdGPQyRKYwpzRYVyA9sC9f0um5X1MMQmcaY0kwLROT7FbZ1zfpM5umohyGaKYwpzZQAggclFrvWcZw/Rz0M0UxjTMk0XwTfs1B5bZ/X1xP1MESzhTElU3yBPBCz5fM92Wxf1MMQzTbGlKZFIDkVfAe29Xknk3GinocoKowphSKQHETvQ8z+QsZxMlHPQxQ1xpTyIiJjUNxrV1de19vb60Y9D1GhYExpSkRkVIF7KgTXrffcgajnISo0jCkd0osR1W9VWXJ9dzb7TNTzEBUqxpQmJSIjUNyNmP3FjONsiHoeokLHmNL+BMOWyjesqsov9vb2/m/U4xAVC8aU9totgrsqampuXL9+/caohyEqNowp7RJL7qwGbnzadZ+LehiiYsWYlikBdgrkjpqYdVNXJrMp6nmIih1jWmYEsgMiX0XM+lK/4zwf9TxEpYIxLRMiMgTo7bHqqi/19PRsjnoeolLDmJY4Edkugtsq58y5ubu7e0vU8xCVKsa0VIlsE8itNfPn3rJu3bqtUY9DVOoY01IjGBTglnlYeGun1zkY9ThE5YIxLRECbBFLvqy2/RXHcbZHPQ9RuWFMS4CI3mdVVV3W29s7FPUsROWKMS0B/Z73h6hnICp3VtQDEBGVAsaUiMgAxpSIyADGlIjIAMaUiMgAxpSIyADGlIjIAMaUiMgAxpSIyADGlIjIAMaUiMgAxpSIyADGlIjIAMaUiMgAxpSIyADGlIjIAMaUiMgAxpSIyADGlIjIAMaUiMgAxpSIyADGlIjIAMaUiMgAxpSIyADGlIjIAMaUiMgAxpSIyADGlIjIAMaUiMgAxpSIyADGlIjIAMaUiMgAxpSIyADGlIjIAMaUiMgAxpSIyADGlIjIAMaUiMgAxpSIyADGlIjIAMaUiMgAxpSIyADGlIjIAMaUiMgAxpSIyADGlIjIAMaUiMgAxpSIyADGlIjIAMaUiMiAsDEVo1MQERWIIAhC9S1UTEVlbph1RESFbrSiIlTfwj0yFZ0fah0RUYGTsbF5YdaFe2QagDElopKkIgvCrAsVUxXEw6wjIip0AVAbZl24mAKNYdYRERU69TVU30K+AYVkS0tLRZi1RESFTATLwqwL+chUY9s3bz4xzFoiokKmwKvDrAv9oX2FdXrYtUREhSiVStVB9dgwa8PHVJUxJaKSor4fumuhYyqC1zc0NCwNu56IqNCI4uywa6fzyLTCHxt7d9j1RESFpKmp6ShVPTPs+uld6CTABdNaT0RUIHLDw+cCsMOun+ZVo/Sk+kTiddPbg4goWi0tLRWq+PB09pj2JfhU8dnp7kFEFKVtW7acr6rHTGcPAzHVN9TV1b1muvsQEUWhubm5EoFeNt19jFwcWnz/9lWrVoV+rYGIKCrDO3Z9SoG66e4T7uukgvXj/66KE5584olLpjsMEdFsWhZfFgf0ivHHJvZtqkI+MrW+DpGu/QYIcN2yZLIh3H5ERLNr1apVdg7D/w6gZtxhX0Q+Gma/kJfg0xxs64MAdN8x6LxcoA+2xlurw+xJRDSbnnz8iatV0Tr+mAhuq7Gsp8LsF/o100wm8xgEd40/pqp/swHeV8PuSUQ0Gxpq694y8ek9BB5isavD7jmtN6COQfzjE5/uq+Kf6moT10xnXyKimVIfj786gN+Gcf0TkTFb5F2O42wPu++0YtrutQ/HBKsFsmP/W/TKukRiWh+AJSIyLZVKvVIVP1Zgwo/myaV9rvv4dPae9kejel23FxbeC8Df74ZAv1JXm7hi8lVERLMrFU+dgrHcbxRYst8NIvc6XvbL093fyOdMHdf9kVjy/gNv0c+nahO38TOoRBSl+mTybaq5Xx4QUsiPj4nXXmTiHEZiCgCO637TElw68bhCP/Tk40+0NzQ0vMLUuYiIpmLVqlV2Kh6/LvCDHwGYs9+NIr9dtHTx6vb29pyJcxmLKQD0e96NItYlAIL9b9HTgpGxzvra5DtMno+I6GCaksn6Jx9/ol0VlwGQ8bcJ5JGXHnXkmzo6OnaZOp/RmAKA42XvEEveJSIj448rdGmA4Pt18fh/pVKpaX91i4hoMq3x1upUPPm5sUDXAXraAXcQ3HN0ovYf165du9vkeY3HFAAc131IbetUATIH3Kh4C3J+dyqR+GpTIhHq96mJiCZqjbdW1yUSH9qAgT7V4CpVrRp/u4iMwpIPZzzvfaae2o83IzEFgEwm04GK2Iki0jbxNlWt0kAvGVP0p2oT307FU62qKpPtQ0R0KI2NjYlUPH71sxjwEOhtk11KT4CM2tZrMq57+0zNEZupjQFgzwdgV6cSiXci0FsU2O9NKFWtAHAeNHdeKpEcqIsnv2eJ/mLB4sX/Y/K1DCIqHaoqjcnk8kDldIX+Y2545DQAMu7b7fuIyJhCvjxnwbxrurq6ds7kXDMa070c132oubn5v0d37LpaBR+e+PAbAKBaC+inA8Wnt23eMpqKxzsArBegF2o5VkwGVXVIfXuHbfv+gWcholKhquIH9hyx/PkQma8BjlWgURA01scTJ7/4EacD47k/+SVi9kcyjvPn2Zh5VmIKAN3d3TsAfKqpqenmseHhTyLQ9x/4LYQXqWolgJUAVr74rytAsO8VjgABU0pUBnLQABgfzcPlEwAg+EnMtr/Qm8n8zwwNNqkZe830YNavX7/Rcd1PxGqqawXWJ0Qk1BVaiIj2EpHnLchtllSckPG8t852SIFZfGQ6UU9Pz2YANwO4uTGRWJ4L8E4Ap4vgVXteSyUiOjiRfkAeFdEfL1y8+L87OjrGohwnspiO1+u6XQC6AFy1fPnyubuHhl6jKs2KoFGAZQp5BaDzRTH/YC8NEFFpEZERqO5QwRBUXhDRPgC9EOmBbT/mOM6GfXd23egG3aMgYjrennfcfr7nnwOoqqxevXrWX54gotnV1tZWVO+OFFxMD0dEFBOvUEVEFDE+wiMiMoAxJSIygDElIjKAMSUiMoAxJSIygDElIjKAMSUiMoAxJSIygDElIjKAMSUiMoAxJSIygDElIjKAMSUiMoAxJSIygDElIjKAMSUiMoAxJSIygDElIjKAMSUiMoAxJSIygDElIjKAMSUiMoAxJSIyIBb1AGGlUqlXIpdbpYrXCdCowGIACsEmAH+GyK+qRR7szmafiXpWIip9RRfTxmTypJyv1+tY7sy9x3T8HRRxAHGovnUYekMqnnjIqqy4rK+vLzvbsxJR+Siqp/n1icSVOT/4A6BnHv7eAABLVVf7o6PddYnE+TM6HBGVtaKIaUtLS0UqnvheEOg1CDOzohqB3puKJ79ofjoioiKJ6eDmrbep6urp7qMaXJqKJz9uYiYiovEKPqZ1icTF0OD9pvZTDW6qq637W1P7EREBBR7ThoaGpVDcZHhbGxLc1draWnRvvhFR4SromPojYx+F6kLjG6vWbxgYeLfxfYmobBVsTNPptCXQfzrM3XwRtIsgLZZcZAk+IJZcB8gTmPCJqQMoLjI2LBGVvYJ9qnv//fevUODlB72D4D8qUH1Zj9fjTXLrFfXx+hWKsZtVMenro6p6WiqVWuA4znZDIxNRGSvYR6bq+ycd5CbfEnwg43nnHCSkAIB+r7/z3DVrzhSxbjjIXWzkcidMe1AiIhRwTAWonfS4WJ/q97y7prJHOp0OHC/7GYg16f1VZNJzEBHlq2BjqipzJx4Tkd84XvbL+e4lMeujEBmYeNxSmRN2PiKi8Qo2poJg14FH9aowezmOMwLBdROPB6KTnIOIKH8FHFPs/0hS5Llz16z5bdj97IqKHwDw99tS9YBHq0REYRRsTAPbfmL/I9qRTqeDsPv19fW9IIA37pC/0LI6w+5HRDRewcb0vPPO+xOAjXv/LsBzBrb9vz1EHuvIZrcZ2JOIqHBjmk6nAxHcs++AyoLp7qn4vz1s6Denux8R0V4FG1MAmGPbt4jIEACooH46e7W0tFQIEAcAATLzlyx5wMCIREQACjymXZnMJkAuBQCoLm9OJo8Nu9fQ1q2vV+g8AIFY8sGOjo4xU3MSERV0TAHA8bJ3COSbADASBKGvReoHwb8CgCW4rN91f25qPiIioAhiCgBV8+ZcAsHDgFySqk3l/RXQhtq6f4TiLWLJzf2ed+NMzEhE5a0oYtrd3T3quO7ZqrhRxf/hsviy+FTXNiQSrwrgf0Msudhx3U/M4JhEVMaKIqYAICKaGXCvFLXfPYbhL9Unk393qPun02krlUhc6Kt+zLbkVMd1756tWYmo/BTsJfgOxhlw1gI4uz5evyKVSLzRBgZ82964cOHC3du2bbPm5ebV7IjteMV3vv3tBGy7PeM4/AgUEc24oovpXv1ef+dBbhoBMAige9aGIaKyVzRP84mIChljSkRkAGNKRGSAlcvl8v4mkKhUzMQwRERRG4nF8n4vSUVz1rnnnrsj34UiOi/fNURERWF0dH6+S2y1hqx0Oh0IsDOfhYFiab4nIyIqBjnLWpLvGrV0aO9rpnld11OgDfmejIioGFg+8u6bJTJoAYCKZPJaqXJcvicjIioGKsHx+a6J+dUZCwBE0ZPXyaBHp1KpunxPSERU8AJtzefuIrK92+v+64uPTIHevE/o+2/Oew0RUQE7LpF4mQIr8lmzt58WAMRi1u/zPqvquXmvISIqYMMq5yDPz99bit9j76J5ixY9LpC8PiKlilOWJZN5v7ZARFSIVFWgwUV5rxP9JbAnph0dHWMqmvdv0o8FweX5riEiKkSpROrtCjTnuSyYh0W/BsY9nLVg/SjvsytWp1KpE/NeR0RUQFpbW2Oi/ufzXSeC33R6nYPAuJhWz5/7PREZyXMvCzn/jnQ6ze/4E1HR+svAwMdDPCqFwL5375/tvX/YtGnT8OKFR6wA8Mo893vFuqc6dcvg4K/zHYSIKGr18foViuAB5H995112deWFmzdvHgUmvGtlx6yvhRlGFVfVxev4USkiKirLli1bopprU9WqvBeL3N/b2zu096/7xbQ3k3lUBGtDzGSJ+g81JBKvCrGWiGjWLV++fG5ueOTHCk3lu1YguVhV5RfHHzvgtU6xrC+EGUyBub7iZ6l4/PVh1hMRzZbm5ubFu7Zv/4WqvjrUBoIHent73fGHDohpfzb7YxG0hzqB6kJAfppKJC4MtZ6IaIY11dUdN7xz12OqOCXkFrtjqLp64sFJ34UXrbhERPK+aDQAqGqVBnp3XTz+QCqVekmYPYiITEun01ZdIvGh0Zz/OFQbw+4jkM/3eD3exOP2JPfFlm1bXli8aNEcAKeFPSGA4xEEFy09YtFwY1NT14YNG3LT2IuIKLSGZPKMzic7H4TqhQBC/1KICHqq5s09//nnn/cPuO1gi5qbmyuHd+x6DNCWsCceN8FzArkTMes+x3Hyu9wfEVEIjY2N84OR3NmK4AOhXxsdR0RGoPZKZ8D506S3H2pxQ0ND0h8de/LF10LNEJGnAH3Ugv14oNIbq4k9Y9v2UHd396ipcxBR+Vi1apWd7eiYNyjyEku1UQMsB/RvVfU0ADWmziNiXeJ42TsOevvhNkglEmdpoA/jIC8JGBTM8P5EVJpm/huYIvdmPHfNIe8ylX1SicRFGug3jAxFRFRMBD85Jh7/+/b29kO+7zOlR5tbBgefXHLE4lFAzzAzHRFR4RPgsUVLl5y1du3aw163ZMpP3bcMbv3d0iMWbVXgzZjiI1oiomIlgv+es3DBWZ2dnbumcv+8XgfdMjj4h6VHLO6D4Kx81xIRFQuBfGfh0iXv7uzsHJ76mhAaksmTAz/4ngKJMOuJiAqRiIwCcqnjZW/Jd22od8H6stk/zpNFJwrk+2HWExEVGgGyliWnhQnpnvXTUxev+wcguBWqx053LyKi2SYioyK4aemRR35h7dq1u0PvY2KYlpaWOYMvbPkMBB8x+QF/IqIZpBD8MCZyWa/r5v9z9xMYfVe+JZlcuF31wxrgowpdanJvIiITBJJT0bZK275ufSbztLl9Z0Bzc3Pl2I7hvwvEPx+Qt6pq5Uych4hoqkTQCVjfrhZ94GnXfc74/qY3nCiVSi2QIHidBsHpAFoVaIKieqbPS0RlLYDgGVH5H0AejUnlo5NdNs+kWf/wfTqdtr773e/W5kZyjTb8l/ki80VlvqrWRDEPERU3y8KoqgxBdEgC2WpZ6iw+8sj+6byZFMb/B+sM0/Xs0SbwAAAAAElFTkSuQmCC;" parent="1" vertex="1">
          <mxGeometry x="310" y="450" width="70" height="90" as="geometry" />
        </mxCell>
        <mxCell id="9cwglLM5n4MLdlPzuKQn-14" value="" style="shape=image;verticalLabelPosition=bottom;verticalAlign=top;imageAspect=0;image=data:image/png,iVBORw0KGgoAAAANSUhEUgAAAVMAAAG2CAYAAADCwmVFAAAACXBIWXMAAC4jAAAuIwF4pT92AAAE7mlUWHRYTUw6Y29tLmFkb2JlLnhtcAAAAAAAPD94cGFja2V0IGJlZ2luPSLvu78iIGlkPSJXNU0wTXBDZWhpSHpyZVN6TlRjemtjOWQiPz4gPHg6eG1wbWV0YSB4bWxuczp4PSJhZG9iZTpuczptZXRhLyIgeDp4bXB0az0iQWRvYmUgWE1QIENvcmUgOS4xLWMwMDEgNzkuYThkNDc1MywgMjAyMy8wMy8yMy0wODo1NjozNyAgICAgICAgIj4gPHJkZjpSREYgeG1sbnM6cmRmPSJodHRwOi8vd3d3LnczLm9yZy8xOTk5LzAyLzIyLXJkZi1zeW50YXgtbnMjIj4gPHJkZjpEZXNjcmlwdGlvbiByZGY6YWJvdXQ9IiIgeG1sbnM6eG1wPSJodHRwOi8vbnMuYWRvYmUuY29tL3hhcC8xLjAvIiB4bWxuczpkYz0iaHR0cDovL3B1cmwub3JnL2RjL2VsZW1lbnRzLzEuMS8iIHhtbG5zOnhtcE1NPSJodHRwOi8vbnMuYWRvYmUuY29tL3hhcC8xLjAvbW0vIiB4bWxuczpzdEV2dD0iaHR0cDovL25zLmFkb2JlLmNvbS94YXAvMS4wL3NUeXBlL1Jlc291cmNlRXZlbnQjIiB4bWxuczpwaG90b3Nob3A9Imh0dHA6Ly9ucy5hZG9iZS5jb20vcGhvdG9zaG9wLzEuMC8iIHhtcDpDcmVhdG9yVG9vbD0iQWRvYmUgUGhvdG9zaG9wIDI0LjYgKFdpbmRvd3MpIiB4bXA6Q3JlYXRlRGF0ZT0iMjAyMy0xMS0xNlQwMDo0NTo1MyswODowMCIgeG1wOk1ldGFkYXRhRGF0ZT0iMjAyMy0xMS0xNlQwMDo0NTo1MyswODowMCIgeG1wOk1vZGlmeURhdGU9IjIwMjMtMTEtMTZUMDA6NDU6NTMrMDg6MDAiIGRjOmZvcm1hdD0iaW1hZ2UvcG5nIiB4bXBNTTpJbnN0YW5jZUlEPSJ4bXAuaWlkOjI0ZmYzNjJhLWE4ZDYtYTg0OS04ODAxLWYwNDY3YzRmOGY1OSIgeG1wTU06RG9jdW1lbnRJRD0ieG1wLmRpZDoyNGZmMzYyYS1hOGQ2LWE4NDktODgwMS1mMDQ2N2M0ZjhmNTkiIHhtcE1NOk9yaWdpbmFsRG9jdW1lbnRJRD0ieG1wLmRpZDoyNGZmMzYyYS1hOGQ2LWE4NDktODgwMS1mMDQ2N2M0ZjhmNTkiIHBob3Rvc2hvcDpDb2xvck1vZGU9IjMiPiA8eG1wTU06SGlzdG9yeT4gPHJkZjpTZXE+IDxyZGY6bGkgc3RFdnQ6YWN0aW9uPSJjcmVhdGVkIiBzdEV2dDppbnN0YW5jZUlEPSJ4bXAuaWlkOjI0ZmYzNjJhLWE4ZDYtYTg0OS04ODAxLWYwNDY3YzRmOGY1OSIgc3RFdnQ6d2hlbj0iMjAyMy0xMS0xNlQwMDo0NTo1MyswODowMCIgc3RFdnQ6c29mdHdhcmVBZ2VudD0iQWRvYmUgUGhvdG9zaG9wIDI0LjYgKFdpbmRvd3MpIi8+IDwvcmRmOlNlcT4gPC94bXBNTTpIaXN0b3J5PiA8L3JkZjpEZXNjcmlwdGlvbj4gPC9yZGY6UkRGPiA8L3g6eG1wbWV0YT4gPD94cGFja2V0IGVuZD0iciI/PoIWUd0AACaJSURBVHic7d17fFx1nf/x9+ecya132qqgQGYmk6Qx0C0ElApqFvC6su6KraJc6gKrsl7XCwICIygIrAiCAoouCOJKUPy5uK43jJeligRDSmwuZ+acQN1KoW3a9JLLnPP5/UHbTdO0zZx8kzOX9/Px4PFoz8z3ez4PHvB6zPWMYJa0tLTMGdq69TUaBM0BsEyARiheBpH5Cp0vkBoAMlvzEFGJUIwqdAgiQwJshcIRC70K9FgVFY/19fX9ZTbGmNF4NSWT9WNBcI5CzhTg1apaOZPnIyI6gEivQB8VkYffe8EFv0yn08GMnMb0hitXrqx5YePG8xVYo4pTTO9PRBSWAH+BWPfbVRV39fb2uob3NqOxsXF+MDLywQDyCai+1NS+RESmCSSngu/EBNf3um6vmT2nSVWlPl73PkBvUOhSE0MREc2SQAR31cyff8W6deu2TmejacU0lUo1Yyz3dQVeM519iIgiJbJJBJ90XPe+0FuEXZhKJC7SQL8CoCbsHkREhUQED1TNnfv+7u7uHXmvzXfBypUra57fuPFuVbwn37VERAVPpE9i9jscx+nOa1k+d14RX7FoSLc9Auip+U1HRFREBIO2ZZ3Vl83+bupLpqixsfHlueHRnwJ6XLjpiIiKym6x5F2O6/7nVO5sTeVOxx9//BH+8MjPGFIiKiM1UDzUkEyeMZU7HzamK1eurNm9fegRBZqnPxsRUfFQ1cog0Ifr6upaDnffwz7NT8UTD6rqKjOjjTuxyLOq6BXRZxTWkCDYDUBNn4eISpxIpSrmA/oSUTRCJGX8q+siz1XWVJ+wfv36jQe9y6HWpxKJf9FAbzczi4xA8YhAfhCbU/WrQw1FRBTWypUrazY/99ypgepbVPU9UBxpYl8RtJ9w8slntrW1+ZPefrCFqdrUCRB/rapWTWsAyAsK3DJnwbyvTfcbBkRE+Vi1apXd+XjH2wPo5YAe9qn64YhYn3O8bHrS2yY7mE6nrfv//Z4/KnBi6JNCcrDwFbuyMt3b2zsUdh8iIhMa4nXv9tW/GcBRYfcQSA4V9orJPoM6aUzrEokPIdDbwp8QWdu23tWbzT4Rdg8iItNaksmF23y9W6HvDL2JyG8znvu6iYftiQeWLVu2JMj5/w9Adcgz/WKRbZ2xLps1enkrIqLp2rh168iWbYNtSxcfsUsVZyLcV+prlyxZ7GzZunXd+IMHfDTKHxn5OFQXhhlUIA9Vz5vzdx3Z7LYw64mIZkO/694kllwAINSFojXQK9Pp9H793O+RaUsyuXC34rsI8ahURH62cOnis5966qmxMMMREc2mLYODXUuPWLxJoW8LsXzpuq6n/rxlcHDfa6f7lXV7ELw/1KNSkT67qvKdHR0dDCkRFY1+L3snxLo11OJALx3/1/1iqsD78t1PREZswWq+Y09Exah6bs2nAcn7zXIFTmxMJJbv/fu+mDYkkyerYlneGypu6nPdp/JdR0RUCLq7u0ctiV0MYNIP4x+KD5y/98/7YuoHeG++Gwlkw0tffuR1+a4jIiok/V5/pwi+nvfCQM/Z+8d9MRUN3pDvPmrhxrVr1+7OewAiogKjtn29iOT1vo8CL2+qqzsO2BPT5njzkQq8Mq8zi2x76ZFH3p3XGiKiApXJZJ6F4sF81+V8/3RgT0zHMNya7waiaOOjUiIqJWLh3nzXKPC3wJ6YBvCXH/ruk51VH8p7DRFRAXvvBRf8EkB+F2RSHA/siakCjfmsFZGxOQsWTPm3UYiIikE6nQ4gaM9njQLxVCpVZQGAaH4xVUVXV1fXznzWEBEVAwv4fZ5LbACpve/m53VJKgF68jwZEVFRUJG8+2YFwVEvxlRkfn4rMZDvyYiIioGFEH3zZb6VSqWqVLUir4Wq2/M+GRFREZDKyrz75lvBfKuqqmpuvgtVZFe+a4iIikHF6GjefbNU5li+74e5OCp/RZSISpJlWXn3TQE54OLQRESUP8aUiMgAxpSIyADGlIjIAMaUiMgAxpSIyADGlIjIAMaUiMgAxpSIyADGlIjIAMaUiMgAxpSIyADGlIjIAMaUiMgAxpSIyADGlIjIAMaUiMgAxpSIyADGlIjIAMaUiMgAxpSIyADGlIjIAMaUiMgAxpSIyADGlIjIAMaUiMgAxpSIyADGlIjIAMaUiMgAxpSIyADGlIjIAMaUiMgAxpSIyADGlIjIAMaUiMgAxpSIyADGlIjIAMaUiMgAxpSIyADGlIjIAMaUiMgAxpSIyADGlIjIAMaUiMgAxpSIyADGlIjIAMaUiMgAxpSIyADGlIjIAMaUiMgAxpSIyADGlIjIAMaUiMgAxpSIyADGlIjIAMaUiMgAxpSIyADGlIjIAMaUiMgAxpSIyADGlIjIAMaUiMgAxpSIyADGlIjIAMaUiMgAxpSIyADGlIjIAMaUiMgAxpSIyADGlIjIAMaUiMgAxpSIyADGlIjIAMaUiMgAxpSIyADGlIjIAMaUiMgAxrQE1MfrV7TGW6ujnoOonDGmJUA1d9EG9TKp2uQljCpRNBjTEqHAyxXBVxlVomgwpiWGUSWKBmNaoiZGNZVKVUU9E1EpY0xL3N6oYiyXZVSJZg5jWiYYVaKZxZiWGUaVaGYwpmVqXFT5miqRAYxpmVPgFfuiGk9+kFElCocxJQB7oqrB1xhVonAYU9oPo0oUDmNKk2JUifLDmNIhMapEU8OY0pQwqkSHxphSXhhVoskxphTK/0XVdxhVIsaUpkmhR++Nan08+QFGlcoVY0pGKPToQIM7GFUqV4wpGcWoUrliTGlGMKpUbhhTmlETo9rc3FwZ9UxEM4ExpVmxN6ojO3ZlGFUqRYwpzSpGlUoVY0qRYFSp1DCmFKl9Ud25y6mPx9/PqFKxYkypIKjqMYHiTkaVihVjSgWFUaVixZiWBHkSwO6opzBpfFRT8eQHGVUqdIxpCXAGst+aG7PjEOtGERmKeh6TVPUY1eBrfKRKhY4xLRFdmcymjJe9tGrunDgg10IwGPVMJvHpPxU6xrTEdHd3b8kMuFdJLFYrkCtE5PmoZzKJUaVCxZiWKMdxtjsD7nULlyyOC6xPANgY9UwmMapUaBjTEtfR0bHLGcjeLBWxhFjyIYg8E/VMJo2Pal0i8c+MKkWFMS0TjuOMOK771UVLFqfEkosE4kQ9k0mqegwCvWt4565+RpWiwJiWmY6OjjHHdb95wqtOWiaWnCfAn6OeySjVYxlVigJjWqba2tp8x3Xv7/fc48SSVSL4U9QzGcWo0ixjTMuciKjjug85nneiZVtnieD3Uc9kFKNKs4QxpX36s9lHHM9baVnyRhH5TdTzGMWo0gxjTOkA/a77c8dzX2/b1mtF5GdRz2PUhKi2tLRURD0SlQbGlA6qL5v9neO5b7Jt61Ui8p8ANOqZjNkT1cHNWxxGlUxgTOmw+rLZPzqe+/cxS1aISBuAIOqZjNk/qhczqhQWY0pT1uu6XY7nrralslkg9wkkF/VMxrwY1a8Pbt7Sz6hSGIwp5a3P6+txBtzzraqKRoHcLSKjUc9kjGoto0phMKYUWl9fX9YZcC9GzK4TyO0QDEc9kzGMKuWJMaVpcxxngzPgfrhGJG5B/k0gO6KeyRhGlaaIMSVjnnbd5/oH3E/FaqriliVfgMi2qGcyhlGlw2BMybienp7N/a772UWW1FqWXCnA5qhnMoZRpYNgTGnGdGSz2/pd9/NzFi6otSz5NAR/jXomYxhVmoAxpRnX1dW1s991bzoG8QQs+YiIPBv1TMaMi2oqkbiIUS1fjCnNmnavfTjjurdVzZ2TgiX/LEA26pmMUa3VQL8xuHlzH6NanhhTmnXd3d2jGdf9xtGJeCMsuUAEPVHPZIwizqiWJ8aUItPe3p7LuO63z12zplkseRdEuqKeyRhGtewwphS5dDodOK77oONmV4glb4fIH6OeyRhGtWwwplQw9lyo+kcZz32VCN4MyO+inskYRrXkMaZUkBzP+2lmwH2tCFoB+UXU8xjDqJYsxpQKmuN5v84MuG+wBKcA8uOo5zGGUS05jCkVhX7P+0NmwH2bJRUnCOT7KJULVe8f1QsZ1eLFmFJR6ff6O50B951SETtOBA8A8KOeyYgXo3r3thc29zKqxYkxpaLkOM6fHc97L2L2MhF8S0TGop7JBAUS46Pa2toai3ommhrGlIpaJpNxHM+7sMqSlFjyNREZiXomE/ZGdYPr9TGqxYExpZLQnc0+47juv1TUVCdE8GUAu6KeyQRGtXgwplRS1q9fv9HxvH+1qyprRXC9iGyPeiYTGNXCx5hSSerr63vB8bzL52FhrQiuFmBL1DOZsC+q3jMXRz0L7Y8xpZLW6XUOOp53jV1dFRfBZyCyKeqZjFBI1CPQ/hhTKgu9vb1Djufd8NKjjoxbgo8J8JeoZ6LSwphSWVm7du3ufs+7FRWxOkusD0LgRT0TlQbGlMqS4zgj/V72zmPi8XpL7PdBpC/qmai4MaZU1trb23P9Xuae89Zc0GSLfQ4gT0c9ExUnxpQIL15Ttc/L/IfjZZfbsN8BSEfUM1FxYUyJxhER7RvIPJwZcE+yYb9VgMeinomKA2NKdBB9A5mfOAPeqYB9ugh+FfU8VNgYU6LDyAxkfuV43umI2adC8JOo56HCxJgSTVEmk3ks43lvRcw+CYKHUSrXVCUjGFOiPGUymY6M572jMmYvh+A/AARRz0TRY0yJQlqfyTyd8bxzYjH7DSiRq1RReLzyDFFITYlE7Rjwad8PLgJQGfU8FC3GlChPDQ0NSX907NIxxftUlT8vQgAYU6Ipa0om68eC4LJgZOw8QGN894nGY0yJDqO+tr5Jkbts1A/eA8Dmm/g0GcaU6CCa6uqOG/X9ywMdexf4Zi0dBmNKNEF9vH6Fau6K0Zx/NsCLMNPUMKZEezQmkyf5QXBFoGP/EPUsVHwYUyp7qXjqFKh/Rc4P3hb1LFS8GFMqWw3J5GlBoJ9Vzb0p6lmo+DGmVHbqE4nXBQGu8v3gjKhnodLBmFLZaEgmz/B9TQeBnhb1LFR6GFMqeal4/E0A0r4fnBL1LFS6GFMqWalE4iwNcJWqnhT1LIbtssBfVS00jCmVFFWVVCL1doF/tQa6Iup5TBJgJyy5c45l3diVyWyKeh7aH7/VQSUhnU5bqUTinalE8imo/7AqVkQ9kykC2QHITaiIJRzX/SRDWpj4yJSK2qpVq+zOP3asvv+ee65URVPU85gkIkOAfjVWXfVvPT09m6Oehw6NMaWi1NraGtswMHDOk3984rNQbYh6HpNEZDsEt1fNmfOl7u7uLVHPQ1PDmFJRaWlpqdi+eeu5G1zvswoko57HKJFtUNxWM3/ezevWrdsa9TiUH8aUikJzc3Pl8K5dawY3b7kcqrVRz2OUYFBg3ToPC27pHOgcjHocCocxpYLWGm+t3qDP/NPIjl2XAXp01POYJMAWCG5FLHaL4zjbo56HpocxpYK0cuXKmhc2bvznZ9W7FMBRUc9jkgCbFfJlu7ryK729vUNRz0NmMKZUUJYvXz5357ahD2za+NdPQfGyqOcxSSAvQOTmqrk1t3V3d++Ieh4yizGlgtDY2DjfHxm5ZNe2oU8CurSkfhlEZJNAb56zYP7tXV1dO6Meh2YGY0qRakkmF25X/bA/PPJxBRaX1O8riTwHwb8tWrz4ax0dHbuiHodmFmNKkTj++OOP2D2086ODgX4MqgujnscowV9FrZtectTL7li7du1uuG7UE9EsYExpVjU0NCzVsbGP7R7a8RFVnR/1PCYJ8L8Q66ajceyd7QPtw85ANuqRaBYxpjQrltfVvXSnr58IRkb/RYG5Uc9jkgB/UUtugG1/3XGcEQeMaDliTGlGNTU1HTU2PPzJnTn/AwDmlNArohCRZyG4AbZ9d8ZxRqKeh6LFmNKMSKVSR8uY/+nR3bsvhqI66nmMEhmwIF+snFvzre7u7tGox6HCwJiSUU2JRO2Y6qXI+RcG0MpSenMeAg8i1y9avPjfOzo6xqIehwoLY0pGNDQ0JIORsc+MKdaooqKUPuIkQBaWXH90be097e3tOb47T5NhTGlampLJ+tEguDwYGTtXobESaigE4ojIda+IH3tfe3t7zmFE6RAYUwqlId6wLNCxK0b94BwAtpZURaXPhl73NyefdH9bW5vf7/HdeTo8xpTy0lRXd9yo71/h6+hqlNrP3oj0iuALJ5x00gNtbW1+n+dFPREVkdL6n4FmTH28fkWqNvHQaM7vguLdKKH/dkSw3oL13vPWXPBKx3Xva2tr86OeiYpPyfwPQTOjrq6uJRVP/DDQsT8p9GwAEvVMpgjQbYt9zrlr1hzXP5B9IJ1OB1HPRMWLT/NpUvXx+KsD4Crk/LeW0KuhLxJZJ4Jr+7PZh0RE0+l01BNRCWBMaT8NyeRpQaBXBqpvjHoW00TkKbHk2r5M5gcioiIl8yCbCgBjSgCAVDz+elVc5fvB6VHPYpoI/mSpfW2v6/yQEaWZwpiWuYZk8kw/0KtU9bVRz2KedIiFaxzX/REAMKI0kxjTMlUXr3uzwL/K94OVUc9imog8LpZc25/NPhL1LFQ+GNMyk0okzlLFlVD/5FJ7Y0kEv7fUurbPy/5X1LNQ+WFMy4CqSmM89Q+B+FdqoCdEPY9pAjwGwTWO5/006lmofPFzpiUsnU5bqURiVSqRfMqH/wNVlFhI5XeWJW90BrxTGVKKGmNagtLptFVfm3zP/ffc87QG+iBUj496JpNE5DexmH1GZsB9bb/r/jzqeYgAPs0vKa2trbFnBwbec989914BaEMpXXsEAETQDiDteO6vo56FaCLGtAS0tLRUbHth63kbXO9yAHVRzzMDHrUtSfe57m+jHoToYBjTErBt8+YbFPh41HOYJiI/V9tKZzKZx6KehehwGNNSoFJZUle2F/kpYKcdz/l91LMQTRVjSoVD8F+2yOf6XPfxqEchyhdjSpETyCO2LZ/rzWafiHoWorAYU4qKish/ImZ/znGcJ6Mehmi6GFOabQrBDy1UXNPv9XdGPQyRKYwpzRYVyA9sC9f0um5X1MMQmcaY0kwLROT7FbZ1zfpM5umohyGaKYwpzZQAggclFrvWcZw/Rz0M0UxjTMk0XwTfs1B5bZ/X1xP1MESzhTElU3yBPBCz5fM92Wxf1MMQzTbGlKZFIDkVfAe29Xknk3GinocoKowphSKQHETvQ8z+QsZxMlHPQxQ1xpTyIiJjUNxrV1de19vb60Y9D1GhYExpSkRkVIF7KgTXrffcgajnISo0jCkd0osR1W9VWXJ9dzb7TNTzEBUqxpQmJSIjUNyNmP3FjONsiHoeokLHmNL+BMOWyjesqsov9vb2/m/U4xAVC8aU9totgrsqampuXL9+/caohyEqNowp7RJL7qwGbnzadZ+LehiiYsWYlikBdgrkjpqYdVNXJrMp6nmIih1jWmYEsgMiX0XM+lK/4zwf9TxEpYIxLRMiMgTo7bHqqi/19PRsjnoeolLDmJY4Edkugtsq58y5ubu7e0vU8xCVKsa0VIlsE8itNfPn3rJu3bqtUY9DVOoY01IjGBTglnlYeGun1zkY9ThE5YIxLRECbBFLvqy2/RXHcbZHPQ9RuWFMS4CI3mdVVV3W29s7FPUsROWKMS0B/Z73h6hnICp3VtQDEBGVAsaUiMgAxpSIyADGlIjIAMaUiMgAxpSIyADGlIjIAMaUiMgAxpSIyADGlIjIAMaUiMgAxpSIyADGlIjIAMaUiMgAxpSIyADGlIjIAMaUiMgAxpSIyADGlIjIAMaUiMgAxpSIyADGlIjIAMaUiMgAxpSIyADGlIjIAMaUiMgAxpSIyADGlIjIAMaUiMgAxpSIyADGlIjIAMaUiMgAxpSIyADGlIjIAMaUiMgAxpSIyADGlIjIAMaUiMgAxpSIyADGlIjIAMaUiMgAxpSIyADGlIjIAMaUiMgAxpSIyADGlIjIAMaUiMgAxpSIyADGlIjIAMaUiMiAsDEVo1MQERWIIAhC9S1UTEVlbph1RESFbrSiIlTfwj0yFZ0fah0RUYGTsbF5YdaFe2QagDElopKkIgvCrAsVUxXEw6wjIip0AVAbZl24mAKNYdYRERU69TVU30K+AYVkS0tLRZi1RESFTATLwqwL+chUY9s3bz4xzFoiokKmwKvDrAv9oX2FdXrYtUREhSiVStVB9dgwa8PHVJUxJaKSor4fumuhYyqC1zc0NCwNu56IqNCI4uywa6fzyLTCHxt7d9j1RESFpKmp6ShVPTPs+uld6CTABdNaT0RUIHLDw+cCsMOun+ZVo/Sk+kTiddPbg4goWi0tLRWq+PB09pj2JfhU8dnp7kFEFKVtW7acr6rHTGcPAzHVN9TV1b1muvsQEUWhubm5EoFeNt19jFwcWnz/9lWrVoV+rYGIKCrDO3Z9SoG66e4T7uukgvXj/66KE5584olLpjsMEdFsWhZfFgf0ivHHJvZtqkI+MrW+DpGu/QYIcN2yZLIh3H5ERLNr1apVdg7D/w6gZtxhX0Q+Gma/kJfg0xxs64MAdN8x6LxcoA+2xlurw+xJRDSbnnz8iatV0Tr+mAhuq7Gsp8LsF/o100wm8xgEd40/pqp/swHeV8PuSUQ0Gxpq694y8ek9BB5isavD7jmtN6COQfzjE5/uq+Kf6moT10xnXyKimVIfj786gN+Gcf0TkTFb5F2O42wPu++0YtrutQ/HBKsFsmP/W/TKukRiWh+AJSIyLZVKvVIVP1Zgwo/myaV9rvv4dPae9kejel23FxbeC8Df74ZAv1JXm7hi8lVERLMrFU+dgrHcbxRYst8NIvc6XvbL093fyOdMHdf9kVjy/gNv0c+nahO38TOoRBSl+mTybaq5Xx4QUsiPj4nXXmTiHEZiCgCO637TElw68bhCP/Tk40+0NzQ0vMLUuYiIpmLVqlV2Kh6/LvCDHwGYs9+NIr9dtHTx6vb29pyJcxmLKQD0e96NItYlAIL9b9HTgpGxzvra5DtMno+I6GCaksn6Jx9/ol0VlwGQ8bcJ5JGXHnXkmzo6OnaZOp/RmAKA42XvEEveJSIj448rdGmA4Pt18fh/pVKpaX91i4hoMq3x1upUPPm5sUDXAXraAXcQ3HN0ovYf165du9vkeY3HFAAc131IbetUATIH3Kh4C3J+dyqR+GpTIhHq96mJiCZqjbdW1yUSH9qAgT7V4CpVrRp/u4iMwpIPZzzvfaae2o83IzEFgEwm04GK2Iki0jbxNlWt0kAvGVP0p2oT307FU62qKpPtQ0R0KI2NjYlUPH71sxjwEOhtk11KT4CM2tZrMq57+0zNEZupjQFgzwdgV6cSiXci0FsU2O9NKFWtAHAeNHdeKpEcqIsnv2eJ/mLB4sX/Y/K1DCIqHaoqjcnk8kDldIX+Y2545DQAMu7b7fuIyJhCvjxnwbxrurq6ds7kXDMa070c132oubn5v0d37LpaBR+e+PAbAKBaC+inA8Wnt23eMpqKxzsArBegF2o5VkwGVXVIfXuHbfv+gWcholKhquIH9hyx/PkQma8BjlWgURA01scTJ7/4EacD47k/+SVi9kcyjvPn2Zh5VmIKAN3d3TsAfKqpqenmseHhTyLQ9x/4LYQXqWolgJUAVr74rytAsO8VjgABU0pUBnLQABgfzcPlEwAg+EnMtr/Qm8n8zwwNNqkZe830YNavX7/Rcd1PxGqqawXWJ0Qk1BVaiIj2EpHnLchtllSckPG8t852SIFZfGQ6UU9Pz2YANwO4uTGRWJ4L8E4Ap4vgVXteSyUiOjiRfkAeFdEfL1y8+L87OjrGohwnspiO1+u6XQC6AFy1fPnyubuHhl6jKs2KoFGAZQp5BaDzRTH/YC8NEFFpEZERqO5QwRBUXhDRPgC9EOmBbT/mOM6GfXd23egG3aMgYjrennfcfr7nnwOoqqxevXrWX54gotnV1tZWVO+OFFxMD0dEFBOvUEVEFDE+wiMiMoAxJSIygDElIjKAMSUiMoAxJSIygDElIjKAMSUiMoAxJSIygDElIjKAMSUiMoAxJSIygDElIjKAMSUiMoAxJSIygDElIjKAMSUiMoAxJSIygDElIjKAMSUiMoAxJSIygDElIjKAMSUiMoAxJSIyIBb1AGGlUqlXIpdbpYrXCdCowGIACsEmAH+GyK+qRR7szmafiXpWIip9RRfTxmTypJyv1+tY7sy9x3T8HRRxAHGovnUYekMqnnjIqqy4rK+vLzvbsxJR+Siqp/n1icSVOT/4A6BnHv7eAABLVVf7o6PddYnE+TM6HBGVtaKIaUtLS0UqnvheEOg1CDOzohqB3puKJ79ofjoioiKJ6eDmrbep6urp7qMaXJqKJz9uYiYiovEKPqZ1icTF0OD9pvZTDW6qq637W1P7EREBBR7ThoaGpVDcZHhbGxLc1draWnRvvhFR4SromPojYx+F6kLjG6vWbxgYeLfxfYmobBVsTNPptCXQfzrM3XwRtIsgLZZcZAk+IJZcB8gTmPCJqQMoLjI2LBGVvYJ9qnv//fevUODlB72D4D8qUH1Zj9fjTXLrFfXx+hWKsZtVMenro6p6WiqVWuA4znZDIxNRGSvYR6bq+ycd5CbfEnwg43nnHCSkAIB+r7/z3DVrzhSxbjjIXWzkcidMe1AiIhRwTAWonfS4WJ/q97y7prJHOp0OHC/7GYg16f1VZNJzEBHlq2BjqipzJx4Tkd84XvbL+e4lMeujEBmYeNxSmRN2PiKi8Qo2poJg14FH9aowezmOMwLBdROPB6KTnIOIKH8FHFPs/0hS5Llz16z5bdj97IqKHwDw99tS9YBHq0REYRRsTAPbfmL/I9qRTqeDsPv19fW9IIA37pC/0LI6w+5HRDRewcb0vPPO+xOAjXv/LsBzBrb9vz1EHuvIZrcZ2JOIqHBjmk6nAxHcs++AyoLp7qn4vz1s6Denux8R0V4FG1MAmGPbt4jIEACooH46e7W0tFQIEAcAATLzlyx5wMCIREQACjymXZnMJkAuBQCoLm9OJo8Nu9fQ1q2vV+g8AIFY8sGOjo4xU3MSERV0TAHA8bJ3COSbADASBKGvReoHwb8CgCW4rN91f25qPiIioAhiCgBV8+ZcAsHDgFySqk3l/RXQhtq6f4TiLWLJzf2ed+NMzEhE5a0oYtrd3T3quO7ZqrhRxf/hsviy+FTXNiQSrwrgf0Msudhx3U/M4JhEVMaKIqYAICKaGXCvFLXfPYbhL9Unk393qPun02krlUhc6Kt+zLbkVMd1756tWYmo/BTsJfgOxhlw1gI4uz5evyKVSLzRBgZ82964cOHC3du2bbPm5ebV7IjteMV3vv3tBGy7PeM4/AgUEc24oovpXv1ef+dBbhoBMAige9aGIaKyVzRP84mIChljSkRkAGNKRGSAlcvl8v4mkKhUzMQwRERRG4nF8n4vSUVz1rnnnrsj34UiOi/fNURERWF0dH6+S2y1hqx0Oh0IsDOfhYFiab4nIyIqBjnLWpLvGrV0aO9rpnld11OgDfmejIioGFg+8u6bJTJoAYCKZPJaqXJcvicjIioGKsHx+a6J+dUZCwBE0ZPXyaBHp1KpunxPSERU8AJtzefuIrK92+v+64uPTIHevE/o+2/Oew0RUQE7LpF4mQIr8lmzt58WAMRi1u/zPqvquXmvISIqYMMq5yDPz99bit9j76J5ixY9LpC8PiKlilOWJZN5v7ZARFSIVFWgwUV5rxP9JbAnph0dHWMqmvdv0o8FweX5riEiKkSpROrtCjTnuSyYh0W/BsY9nLVg/SjvsytWp1KpE/NeR0RUQFpbW2Oi/ufzXSeC33R6nYPAuJhWz5/7PREZyXMvCzn/jnQ6ze/4E1HR+svAwMdDPCqFwL5375/tvX/YtGnT8OKFR6wA8Mo893vFuqc6dcvg4K/zHYSIKGr18foViuAB5H995112deWFmzdvHgUmvGtlx6yvhRlGFVfVxev4USkiKirLli1bopprU9WqvBeL3N/b2zu096/7xbQ3k3lUBGtDzGSJ+g81JBKvCrGWiGjWLV++fG5ueOTHCk3lu1YguVhV5RfHHzvgtU6xrC+EGUyBub7iZ6l4/PVh1hMRzZbm5ubFu7Zv/4WqvjrUBoIHent73fGHDohpfzb7YxG0hzqB6kJAfppKJC4MtZ6IaIY11dUdN7xz12OqOCXkFrtjqLp64sFJ34UXrbhERPK+aDQAqGqVBnp3XTz+QCqVekmYPYiITEun01ZdIvGh0Zz/OFQbw+4jkM/3eD3exOP2JPfFlm1bXli8aNEcAKeFPSGA4xEEFy09YtFwY1NT14YNG3LT2IuIKLSGZPKMzic7H4TqhQBC/1KICHqq5s09//nnn/cPuO1gi5qbmyuHd+x6DNCWsCceN8FzArkTMes+x3Hyu9wfEVEIjY2N84OR3NmK4AOhXxsdR0RGoPZKZ8D506S3H2pxQ0ND0h8de/LF10LNEJGnAH3Ugv14oNIbq4k9Y9v2UHd396ipcxBR+Vi1apWd7eiYNyjyEku1UQMsB/RvVfU0ADWmziNiXeJ42TsOevvhNkglEmdpoA/jIC8JGBTM8P5EVJpm/huYIvdmPHfNIe8ylX1SicRFGug3jAxFRFRMBD85Jh7/+/b29kO+7zOlR5tbBgefXHLE4lFAzzAzHRFR4RPgsUVLl5y1du3aw163ZMpP3bcMbv3d0iMWbVXgzZjiI1oiomIlgv+es3DBWZ2dnbumcv+8XgfdMjj4h6VHLO6D4Kx81xIRFQuBfGfh0iXv7uzsHJ76mhAaksmTAz/4ngKJMOuJiAqRiIwCcqnjZW/Jd22od8H6stk/zpNFJwrk+2HWExEVGgGyliWnhQnpnvXTUxev+wcguBWqx053LyKi2SYioyK4aemRR35h7dq1u0PvY2KYlpaWOYMvbPkMBB8x+QF/IqIZpBD8MCZyWa/r5v9z9xMYfVe+JZlcuF31wxrgowpdanJvIiITBJJT0bZK275ufSbztLl9Z0Bzc3Pl2I7hvwvEPx+Qt6pq5Uych4hoqkTQCVjfrhZ94GnXfc74/qY3nCiVSi2QIHidBsHpAFoVaIKieqbPS0RlLYDgGVH5H0AejUnlo5NdNs+kWf/wfTqdtr773e/W5kZyjTb8l/ki80VlvqrWRDEPERU3y8KoqgxBdEgC2WpZ6iw+8sj+6byZFMb/B+sM0/Xs0SbwAAAAAElFTkSuQmCC;" parent="1" vertex="1">
          <mxGeometry x="420" y="450" width="70" height="90" as="geometry" />
        </mxCell>
        <mxCell id="9cwglLM5n4MLdlPzuKQn-15" value="" style="shape=waypoint;sketch=0;fillStyle=solid;size=6;pointerEvents=1;points=[];fillColor=none;resizable=0;rotatable=0;perimeter=centerPerimeter;snapToPoint=1;" parent="1" vertex="1">
          <mxGeometry x="520" y="520" width="20" height="20" as="geometry" />
        </mxCell>
        <mxCell id="9cwglLM5n4MLdlPzuKQn-16" value="" style="shape=waypoint;sketch=0;fillStyle=solid;size=6;pointerEvents=1;points=[];fillColor=none;resizable=0;rotatable=0;perimeter=centerPerimeter;snapToPoint=1;" parent="1" vertex="1">
          <mxGeometry x="540" y="520" width="20" height="20" as="geometry" />
        </mxCell>
        <mxCell id="9cwglLM5n4MLdlPzuKQn-17" value="" style="shape=waypoint;sketch=0;fillStyle=solid;size=6;pointerEvents=1;points=[];fillColor=none;resizable=0;rotatable=0;perimeter=centerPerimeter;snapToPoint=1;" parent="1" vertex="1">
          <mxGeometry x="560" y="520" width="20" height="20" as="geometry" />
        </mxCell>
        <mxCell id="9cwglLM5n4MLdlPzuKQn-18" value="" style="rounded=1;whiteSpace=wrap;html=1;opacity=50;dashed=1;dashPattern=8 8;" parent="1" vertex="1">
          <mxGeometry x="310" y="30" width="450" height="170" as="geometry" />
        </mxCell>
        <mxCell id="9cwglLM5n4MLdlPzuKQn-23" value="" style="shape=waypoint;sketch=0;fillStyle=solid;size=6;pointerEvents=1;points=[];fillColor=none;resizable=0;rotatable=0;perimeter=centerPerimeter;snapToPoint=1;" parent="1" vertex="1">
          <mxGeometry x="670" y="150" width="20" height="20" as="geometry" />
        </mxCell>
        <mxCell id="9cwglLM5n4MLdlPzuKQn-24" value="" style="shape=waypoint;sketch=0;fillStyle=solid;size=6;pointerEvents=1;points=[];fillColor=none;resizable=0;rotatable=0;perimeter=centerPerimeter;snapToPoint=1;" parent="1" vertex="1">
          <mxGeometry x="690" y="150" width="20" height="20" as="geometry" />
        </mxCell>
        <mxCell id="9cwglLM5n4MLdlPzuKQn-25" value="" style="shape=waypoint;sketch=0;fillStyle=solid;size=6;pointerEvents=1;points=[];fillColor=none;resizable=0;rotatable=0;perimeter=centerPerimeter;snapToPoint=1;" parent="1" vertex="1">
          <mxGeometry x="710" y="150" width="20" height="20" as="geometry" />
        </mxCell>
        <mxCell id="9cwglLM5n4MLdlPzuKQn-26" value="" style="shape=image;verticalLabelPosition=bottom;verticalAlign=top;imageAspect=0;image=data:image/png,iVBORw0KGgoAAAANSUhEUgAAAVMAAAG3CAYAAAAJnrbgAAAACXBIWXMAAC4jAAAuIwF4pT92AAAE7mlUWHRYTUw6Y29tLmFkb2JlLnhtcAAAAAAAPD94cGFja2V0IGJlZ2luPSLvu78iIGlkPSJXNU0wTXBDZWhpSHpyZVN6TlRjemtjOWQiPz4gPHg6eG1wbWV0YSB4bWxuczp4PSJhZG9iZTpuczptZXRhLyIgeDp4bXB0az0iQWRvYmUgWE1QIENvcmUgOS4xLWMwMDEgNzkuYThkNDc1MywgMjAyMy8wMy8yMy0wODo1NjozNyAgICAgICAgIj4gPHJkZjpSREYgeG1sbnM6cmRmPSJodHRwOi8vd3d3LnczLm9yZy8xOTk5LzAyLzIyLXJkZi1zeW50YXgtbnMjIj4gPHJkZjpEZXNjcmlwdGlvbiByZGY6YWJvdXQ9IiIgeG1sbnM6eG1wPSJodHRwOi8vbnMuYWRvYmUuY29tL3hhcC8xLjAvIiB4bWxuczpkYz0iaHR0cDovL3B1cmwub3JnL2RjL2VsZW1lbnRzLzEuMS8iIHhtbG5zOnhtcE1NPSJodHRwOi8vbnMuYWRvYmUuY29tL3hhcC8xLjAvbW0vIiB4bWxuczpzdEV2dD0iaHR0cDovL25zLmFkb2JlLmNvbS94YXAvMS4wL3NUeXBlL1Jlc291cmNlRXZlbnQjIiB4bWxuczpwaG90b3Nob3A9Imh0dHA6Ly9ucy5hZG9iZS5jb20vcGhvdG9zaG9wLzEuMC8iIHhtcDpDcmVhdG9yVG9vbD0iQWRvYmUgUGhvdG9zaG9wIDI0LjYgKFdpbmRvd3MpIiB4bXA6Q3JlYXRlRGF0ZT0iMjAyMy0xMS0xNlQwMDowMTo0NyswODowMCIgeG1wOk1ldGFkYXRhRGF0ZT0iMjAyMy0xMS0xNlQwMDowMTo0NyswODowMCIgeG1wOk1vZGlmeURhdGU9IjIwMjMtMTEtMTZUMDA6MDE6NDcrMDg6MDAiIGRjOmZvcm1hdD0iaW1hZ2UvcG5nIiB4bXBNTTpJbnN0YW5jZUlEPSJ4bXAuaWlkOjJkY2IwNzJhLTJmZjEtMmE0Yy04Yjg2LTNkNjZiYWQzYjZhMiIgeG1wTU06RG9jdW1lbnRJRD0ieG1wLmRpZDoyZGNiMDcyYS0yZmYxLTJhNGMtOGI4Ni0zZDY2YmFkM2I2YTIiIHhtcE1NOk9yaWdpbmFsRG9jdW1lbnRJRD0ieG1wLmRpZDoyZGNiMDcyYS0yZmYxLTJhNGMtOGI4Ni0zZDY2YmFkM2I2YTIiIHBob3Rvc2hvcDpDb2xvck1vZGU9IjMiPiA8eG1wTU06SGlzdG9yeT4gPHJkZjpTZXE+IDxyZGY6bGkgc3RFdnQ6YWN0aW9uPSJjcmVhdGVkIiBzdEV2dDppbnN0YW5jZUlEPSJ4bXAuaWlkOjJkY2IwNzJhLTJmZjEtMmE0Yy04Yjg2LTNkNjZiYWQzYjZhMiIgc3RFdnQ6d2hlbj0iMjAyMy0xMS0xNlQwMDowMTo0NyswODowMCIgc3RFdnQ6c29mdHdhcmVBZ2VudD0iQWRvYmUgUGhvdG9zaG9wIDI0LjYgKFdpbmRvd3MpIi8+IDwvcmRmOlNlcT4gPC94bXBNTTpIaXN0b3J5PiA8L3JkZjpEZXNjcmlwdGlvbj4gPC9yZGY6UkRGPiA8L3g6eG1wbWV0YT4gPD94cGFja2V0IGVuZD0iciI/PsqQcCMAADDoSURBVHic7d15fBxnfT/wz3d2V4dj2c6dnVmtZVvEgIkJiCtxDhdy0SS2EiIopRc0dlJaSstRaLlECy209OAmCeZI6PGrSbzK6RbiKIXcGIKJk9iWYx27K+dynCg6d+f5/v7QKpEd+ZjdZzUj6fN+vfx6SbvzPM9XTvzRzHxnZgUhanHdeftqaxsKhUKD4zg1YdZCRDOPiKiIDBcKhYFFixYNbN++fSy0WqZjkeXLlzcMDg6eraqrYMyrFVguIs2qWjsd6xPR3CAi+wHsgOoOEdkOx+k844wztm7cuNGv+trVmnjx4sXJQqHwPgEuV9U3A4hXay0iokMRkecV6ATwnzU1NR3d3d0jVVnH9oSe512sqh+C6nkAYrbnJyIqVylY/7sG+JfufP5xq3PbmERVpbGx8XI15lOq+gYbcxIRVZERkR+L43wxm81uszFhxWGaSqVOM8Z8C6pn2SiIiGgaGRH5TqKm5lPd3d37K5mo7MPwFStW1NQmEl8yxnwfQFMlRRARhUQAvNn3/Q8sWLiwd2BgYHslEwWWTqeXFguF/wbQUu7CRERRI8C1idraD5fTpAocpp7nXQzVf1fVhUHHEhFFnYj8uhZY80Q+3xtknBNkY8/z/kiNyTBIiWi2UtXXjwL3pNPpFUHGHXWYep73UR0/P8rrRYloVlPVlF8s/iyVSr31aMcc1WF+KplcZ4Bryy+NiGjmEZF9sXj87N7e3kePuO2RNkglk5cZYCN4AT4RzUEiklXgzHw+33fY7Q73ZmNj4+uM7z+oqvUWa1MBtqvIrwHsFJGnxJgBdZyCxTWIaO6oF9UGAzQCWC7AW1Q1aXUFkV/OmzfvzK6urtFDbnKoN1auXHnMM08//RCA11goxUDkThG5ob6+fnNXV9fTFuYkIppSk+u+uqB6mYr8AVRfbWNOR+Sb2Xz+zw71/iHD1HPd76nq+ytcvygiN4jj/EM2m91V4VxERIGlUqmL1JjPqOqZlc7lAJdn+/s3TfXelGGaSqVWG9+/q6JVRe5xHOeDtu57JSKqRKPrvtdX/RcAp5Q7h4jk5zc0vHrHjh0DB7/3ikujWlpaEsb3v1XuYgB8iHxu/fr15zBIiSgq+vL5/5wvchqAzeXOoaruiy+88Pmp3nvFnqmXTP6FAv9a1koiQ47jtGWz2dvLGk9EVGWqKinP+ydV/WiZUxQh8rp8Pr9j8osH7Jk2NzfXQuSvylzgRRE5j0FKRFEmIprL5z8mjvPpMqeIC/DXB794QJgODw9/oJxLCkSkEBe5PJfL3VdmcURE0yqXy31RyjwKV9X3NTU1NU1+zTloi4+UM7Gofrw3n/9JOWOJiMKy7qqrPiYiPy1jaLxQKHx48gsvnTNNu+6qourPg84oIrfk8vk1ZRRDRBS6ZcuWnTQ8NPQIgBMDDn3q1OXLvc7OziIwac/UV/2DMuoYrAUOeRErEVHU7d69+ylxnHJ6RSft2rXroolvHABob293INIWdCZH5CtBn/lHRBQ12Wz2hxD5ZeCBxrxn4ksHADZs2PBGVT024DQDTjz+1cCLExFFjIio4zhfLGPgOya+dABAff/tZSx+Q29v73OBFyciiqC+vr5NEAl0pK2qySbXfTUwEaaq5wZdWBzn+qBjiIiiSkRURH4UdFxB5FxgIkyB1wYcvzebzT4QdFEioigTkY6gY1T1tQDgNDU11QFIB1yxsoegEBFF0BlnnLFVRJ4POGz8ML9YLL4KAT9YT0R+EXAxIqLI27hxow/VhwMNUj0VABxVDXqhKgDsOPImREQzUtB8OxEAHEe1oYzFcmWMISKKPBUJmm/HtLe3O446TuAwdRznFQ9GJSKaDUQkcL796Ec/mu/A98v5sLzhMsYQEc0EgfPN9/36QI0nIiKaGsOUiMgChikRkQUMUyIiCximREQWMEyJiCxgmBIRWcAwJSKygGFKRGQBw5SIyAKGKRGRBQxTIiILGKZERBYwTImILGCYEhFZwDAlIrKAYUpEZAHDlIjIAoYpEZEFDFMiIgsYpkREFjBMiYgsYJgSEVnAMCUisoBhSkRkAcOUiMgChikRkQUMUyIiCximREQWxMMugGgqS5cuXVgoFI4RkTrf9+OJRGIMwEixWHw+m80Oh10f0cEYphSqVCrVDGNWAzhdgdeq6lIROWVkeLh28nZjo6Mvfe0mky+ISD+AHQo86qg+iFjs7mw2u296qyd6GcOUplVbW1vs/vvvX2WKxVYFLje+v/jgbVT1SNMsUNUFAJYDWGMAwPfVc90HBbhJRTK5XG6n/eqJDo1hSlXX4rrz+oHzBGi995571qjq8VVYRlT1rQq8Fapf9lx3B0RuEpFMX1/fQyJyxIQmqgTDlKriVNc9YVDkt1W1dS9wEVTrpzPNVHU5VP9agb9OeV6/57oZB8gsOPbYzu3bt49NYyk0RzBMyZrFixcv8QuFSxVofVH1HKjGACDsXUJVTQL4Ex/4k+f27RtwXfdWEcnU19dv7urqeiHk8miWYJhSRTzPe72qtgrQWhgbOz3seo5CA1Tfq6rvHR4aGvOSyTsFyEg8fmtfX18+7OJo5mKYUiBtbW2x++677yxVbVVjLlNjFgPh732WQ1VrALxTgXeiWFTPde8XoMMAmXw+vyPs+mhmYZjSEbW47ryngPPNyw2k48KuqQpEVc9Q4AwAX/Jcd6cCNzmOk+nr63uQDSw6EoYpTanUQLq41EC6UFXrw65pOqnqqQA+aXz/k57r7vWSyfEG1nHH3cUGFk2FYUovWbx48RJ/bGxNqYF0dlQaSBFwigJX+8DVz+3bN+C57m0KZOrq6jY/8cQTz4ddHEUDw3SO8zzvdFFt1fEG0uvDrmcGaFDV3wHwO6MjIwU3mbxTHCfjOM4tbGDNbQzTOWb16tXxrq6u8QaS6mVqTJp7nuVR1QSAi9SYi3xjvu257gMCdMSBTHc+/3jY9dH0YpjOAS2uO+9J1QsVuGzXzp0XR7iBNCgi9yuwXUS6xZinAAyp4xREpNYYs0BUTxGRZgOcDtXTEZ0nn4mqvk2Bt40B/+C57i4BMiqyKZvN3s8G1uzHMJ2lmpubTxweHn65gQTUAQCOfN/7tBKRfgVuFZGORYsW/SRIc8fzvOMnTlEAeEeUmmSq+ioFPg7Vj5caWB0Si2Xq6uru6urqGj3yDDTTMExnkXQ6vdQvFNYAaB0aHDwbpb22aMUnICK7BMgYIJPN5e6b2GvL5XKB5snlcs8C2ABgQ4vrznsyFnun+n4rRN5Zpfv/y3WKAlep7181NDg44Lnu7aUG1h1sYM0eDNMZznXdNzhAqwKtxUJhZdj1HIIK8AsAmYTITZPPJ4qIlQW25vNDAG4EcGNbW1vs3nvvPVdVW6F6KYAmK4vY0aCq7wHwntGRkYLrultEJCMit2Sz2WC/TShSJJVMrjPAtUEGxeJxj53LcKxevTq+a9eus1W1FUArVNNh1zQVERlT4G4AmUQisamnp6c/rFoWu+4bi+OnAlpV9bSw6jgCFZEHodoRr6nJ9PT0PBZ2QXOV53lXqzHfDjKmtq7uFO6ZzgArV648Zt/TT1+gQOuunTsvVdVjw67pEF4Qkf8RIFM3b96tUXmISE8+/0sAvwTw2aampqZCoXB5aa/1TACxkMubIKr6VgBvLYyN/b3nursU2CQimXXr1j3Q3t5uwi6QDo97phHV3Nx84tDQ0CUyvkd1garWhV3TVESkH6q3SCzWsXDhwp/OpLuDPM87XlXXlv6Oz4tSA+sgTwow0cDawgZWdXHPdBZIp9NLfd9fq8a0Dg0OngXAiVrzCABEZKcCGRHJTL7sJ5vNhl1aIKUG1vcAfK/UwLqo1MD67Yg1sE5WYL36/vpSA+sOB8gk6upuZwMrOhimIZt8Pq9YKET3fB7wEMavm7wpN+mJSrYaSGErNbBuAnBTqYF1TulUwBpEr4H1bh94txlvYN1VamDdzAZWuHiYP81KDaRzJp4BqqqNYdc0lVIDqVNEMvF4PBNmAylsk6+YUNUoXzHxEICOWCKR6e3tfTTsgmYqHuZH2MqVK4/Zt2/fher7rbt27rxkooEUwUP4F0RkswNkaufNuy0qDaSw5fP5XwH4FYDPlRpYl6kxrQBWIUoNLOAtAN5SLBS+OHEHlgEy69evv58NrOrjnmmVlBpIl5aaG+dHuIGUn9RAunMmNZDCVmpgrZHxvdbzoDov7JoO4UmI3Ow4Tqauru5ONrAOj3umEdDY2LjMGLNWVVuHBgdXIboNpB2TGkgPzNQGUthKDazvA/h+KpWqh+9fpEArxp8DG6kGFlTXGd9fNzQ4+KLnuncIkInX1Nze3d29P+ziZguGaYXSyWSLX2og+cXi68Ku5xBURB4sHfZtmo0NpLBls9lhAJsAbCp9tMvZpY92WYtoNbDmq2qbAm2FsbGC67qdGP/FenMul+Nv0wrwMD+gUgPp3FIDaW3EG0h3iUgmkUhkuru794Zd01w1+ZmxqhrVZ8aO3/LrOB2xWCzT29u7PeyCwsLD/CpSVUm77gUGeF+UG0gi8jyAzRC5af78+Xfs2LFjIOyaCMjlcg8DeBhA+5IlSxYXRkbGgxU4G9FqYL0Zxry5aMwXPNftUuDHiUTiet7aenS4Z3oEja77XgN8TlWXh13LVEoNpJsdkU0nJZN3bd26tRB2TXR0PM87HsAlqnoZgPOj2sAS4HY4zt/kcrlfh13LdOCeqWVNTU1NhdHR7/uqq8OuZQqPQaTDcZxNfX19D000kPryc+L326xRamD9EMAPU6lUvRhzoRnfY70YqieEXd8EBX4bxlzkJZP/Vn/MMX/DqwGmxjCdQtp1VxXGxjoUiEpHVkXkgYknt+dyuZ0Tb7CBNDuUGlgZAJlSA+usSQ2sJeFWB2D8ypSPDA8Nve1U1127M59/JuyCooZhehDP867wVX+kqrVh1iEiY1C9E47TkUgkOthAmjs2btzoY/zxhXcD+EvP814/qeH5hjBrU9UzB0XuS6fTF/b29j4RZi1RwzCdJJVKrVZj/qP0QWnTrtRAukOBzPyGhtvZQCIAKJ2r/DWAz0ehgaWqzX6xuDmVSr0tm83um+71o4phWuJ53qlqzE3THaQikgNws6PacVIyuYUNJDqcPXv29AD4KoCvplKp41T1UlVdC+DC6Wxgqeqr1Pc3tbS0nMf/Z8cxTAG0t7c711177Q+n8aHLj4njZEQkc0ADqX/OPkuEylDaK5zcwLqg1MC6ZJoaWOfs3bv3rwB8cRrWijyGKYDrrrvuKlV9WxWXUBG5v9RAyrCBRLaVGlgdADra2tpi999//ypTLE58cmv1Gliqn06lUv8vm812VW2NGWLOh2lzc/OC4aGhv7c9r4iMQnWLjD/Et2PPnj1P2l6DaCqlBtb/lf58JJVKrTTGTDzy0WoDS1Xr1JivYDy057Q5H6YjQ0NXq+oiG3OJyPMK3C4iGd6BRFGRzWa3AdgG4G+Xum567OVns54NGxmguiadTr92rj9Ddc6HqQLrKxlfaiB1OEAH70CiqHsin+8F8DUAXys1sC4pfdJtJQ0s8QuFKwF8xFadM9GcDlPP805XY5aVNVjk3x3H+RrvQKKZqtTAuh7A9S89QlDkM2WdChC5AnM8TJ2wCwiTqp5XzjgHuCqfz/9eNpt9cCJIiWaybDY7nO3v33RKMvlWGf8srEBUtdHzvFOrUdtMMafDVIA3BR8kX8/29wd6MAzRTLF169ZCorb2fRB5POhYMebN1ahpppjTYaqqzQGHvFhTU/PZqhRDFBHd3d0jjuN8Kug4I1LeKbNZYk6HKYDjgmwsInfxYx5oLli4cOGtIhLo88BEJNC/p9lmToepiAR6mIkCfNgIzQnbt28fU9XnAg0yJtSHA4VtTocpER1W0ObqnL6dj2FKRGQBw5SIyAKGKRGRBQxTIiILGKZERBYwTImILGCYEhFZwDAlIrKAYUpEZAHDlIjIAoYpEZEFDFMiIgsYpkREFjBMiYgsmNMfqBdF6XT6WABuNdcQkX09PT39QcZ4nndqLBZLVKumcsyWn6McS5cu3dHZ2VkMuw56GcM0Ykyh0GaAa6q5hgDXArgq0CDVzmKhkKxOReUp5+dQY+4uGnNKlUqaNt3d3UnwYeWRwsN8IiILGKZERBYwTImILGCYEhFZwDAlIrKAYUpEZAHDlIjIAoYpEZEFDFMiIgsYpkREFjBMiYgs4L35EeMkEj9V3393NdeIq+4OPEhkvYjUV6GcspXzc4jjrAMQqZ+jTPvDLoAOxDCNmN7e3icAPBF2HQfL5XK3hl2DDbPl56Do4WE+EZEFDFMiIgsYpkREFjBMiYgsYJgSEVnAMCUisoBhSkRkAcOUiMgChikRkQUMUyIiCximREQWMEyJiCxgmBIRWcAwJSKygGFKRGQBn2cahOo6N5lcF3YZRBQ93DMlIrKAYUpEZAHDlIjIAp4zDUBENsbi8faw6yCaDsVi8W6onhB2HTMFwzQABfb39vY+GnYdRNPBTSaLYdcwk/Awn4jIAoYpEZEFDFMiIgsYpkREFjBMiYgsYJgSEVnAMCUisoBhSkRkAcOUiMgChikRkQUMUyIiCximREQWMEyJiCxgmBIRWcBH8EVMOp0+FoAbdh2z1dKlS3d0dnYe9aPlovrfI+jPQdXHMI0YUyi0GeCasOuYrbq7u5MA9h7t9r7vv1uN+U4VSypL0J+Dqo+H+UREFjBMiYgsYJgSEVnAMCUisoBhSkRkAcOUiMgChikRkQUMUyIiCximREQWMEyJiCxgmBIRWcB78yMmVlPzEy0W28KuYxbbH2TjWCz2Ex+I4n+P/WEXQAdimEZMT0/PHgB7wq6DxvX29j4B4Imw66Do42E+EZEFDFMiIgsYpkREFjBMiYgsYJgSEVnAMCUisoBhSkRkAcOUiMgChikRkQUMUyIiCximREQWMEyJiCxgmBIRWcAwJSKygI/gC0hVJewaiKaD57phlzCjMEyDUF3nue66sMsgoujhYT4RkQUMUyIiCximREQW8JxpACKyMZ5IfC7sOoimQ6FQ+D+onhB2HTMFwzQABfb39PQ8FnYdRNPBTSaLYdcwk/Awn4jIAoYpEZEFDFMiIgsYpkREFjBMiYgsYJgSEVnAMCUisoBhSkRkAcOUiMgChikRkQUMUyIiCximREQWMEyJiCxgmBIRWcBH8EVMOp0+VlW9sOs42LJlyx7v7Ow86keylfNzTMcas0XQvyuqPoZpxJhCoc0A14Rdx8H27NnjAug/2u3L+TmCruH7/rvVmO8EWWO26O7uTgLYG3Yd9DIe5hMRWcAwJSKygGFKRGQBw5SIyAKGKRGRBQxTIiILGKZERBYwTImILGCYEhFZwDAlIrKAYUpEZAHvzY+YWE3NT7RYbAu7joOJyHNBti/n5wi6Rjwe/99iBP+upkM8Hg/0d0XVxzCNmJ6enj0A9oRdR6Wm4+eYLX9XNDvwMJ+IyAKGKRGRBQxTIiILGKZERBYwTImILGCYEhFZwDAlIrKAYUpEZAHDlIjIAoYpEZEFDFMiIgsYpkREFjBMiYgsYJgSEVnAMCUismBOh6mqFoJsL8CiKpVCFCnt7e2OiCwMMkZFxqpVz0wwp8NURPYH2V6B32pubq6tUjlEkXHdddedq6r1QcYIsL9K5cwIczpMNehT2lVPGBka+ovqVEMUDaoqqvq3gcfN8U89mNNhKiK/DDpGgb91Xfe8atRDFAWNnvePUD0r6Lhy/j3NJnM6TGOqdwUdo6o1Atzqed6nUqnUcdWoiygMixcvfo2XTG40qh8LOlZEnj3zzDMfqUZdM8WcDtO3rlp1H4Ang45T1Vo15gtqzF43mbzDdd0PplIprwolElWV53mne677t57rPlwYG3tUgSvKmUeAjo0bN/q265tJ5vSnk27cuNF3XfcHUP1EOeNVNQHgIqheZHz/G57rPihAxonHb+7t7X3UcrlEFVu9enV8165d5wBYA9XL1ZhGG/MaYIONeWayOb1nCgCxWOxrIjJqYSpR1bca1X8oFgrbPdfd6brulzzPe1t7e/uc/3um8KxcufKYRtdt9Vz3B7t27nxKjblTjfmwqloJUojck8/n77Uy1ww2p/dMAaCvry/vJZP/BODTNudV1VcB+ISqfuLaa6550ksmMxKLZerq6u7q6uqyEd5Eh9Tc3Hzi8PDwxara+uwzz1yoqnVVWso4jvPRKs09o8z5MAWARG3tFwtjY+8pBWA1nKzAVer7Vw0NDr7oue5tCmRqamo2d3d376/SmjTHNDY2LjPF4qUAWocGB89G6chTq7imiHwnm80+UMUlZgyGKYDu7u6RtOu+3xfZoqo1VV5uvqq+B8B7CmNjBdd1O0XkJgC35nK5bJXXplnGdd03iOrlEFnjF4srp3NtEdlRP2/eX0/nmlHGMC3pzefv8TzvSqheP11rlhpY56vq+QC+5SWTDwHIxGtqMj09PY9NVx00c5QaSGeraqsAl6lqowKAVnP/cwoizzix2MVdXV0vTO/C0cXGyCS5XO4GR+STIS0vCrxFgb8vjI096rnurpTr/pPneWewgTW3rVy58phUMnmZl0zeUGogbYHqn1trIAUkIvtFZE1fX9/uMNaPKkklk+sMcG2QQbF43Ovr68tXq6iweZ73+1D97jQc8h+tJwXoKDWwtrCBNfstW7bspOHh4YsFaAVwQRUbSEF1J2pqfns2Hzl5nne1GvPtIGNq6+pO4WH+FHK53A1p132iCNwAYEnY9WC8gbVefX/90ODgi14yudkRuSlWU3MHG1izR2Nj4zJjzBpVvXx4aOhMAM40H7wflgC3182b9/7du3c/FXYtUcQwPYTefP6elStXnvbsM898QlX/AkBD2DWVzFfgCl/1Cn90tOi67hYRyajqrfl8vi/s4iiYdDLZ4ousheplfrH4urDrmYqIdEHkU7lc7r/DriXKeC7uMLZt2zaYy+c/W1NbmxbgLwFsDbumg8SheoEa8y2o9rrJ5ENeMvk36XR6RdiF0dRWr14d9zzvHa7rft1z3b4i8AtV/YwCkQpSERkVkZudWOxdZ65a9WoG6ZHxnGlAS5YsWTw2MnIZgFYFViGie/ci0iXAJgNk1q9ff397e7sJu6a5asWKFfOff/75C9T3WyFyqaouCrumqYjI8wA2K5BpaGi4bceOHQNh1xSGcs+ZMkwrkEqljlPVNaraCuB8qM4Lu6ZDeAoiHY7jZOLx+Jbu7u6RsAua7UoNpEtKDaTzI9RAOoCI5KB6q8RimZNPPvnOrVu3Bvr0idmIDagQZLPZfQB+AOAHqVSqXoy50IzvsV4M1RNCLm+yk6C6zvj+ujHff9Fz3Ttk/HrW29nAsieVSjVP/HIdHhpahYg1kCaIyA4FMiKSyWazD4iIAkA2y3tGKsEwtSSbzQ4DyADItLW1xe67776zVbUVxlyqwNKQy5tsvqq2KdA2Nt7Augvj/7Bu5h1YwaWTyRZ/fO+z1fh+pM57TmJE5EEBOuA4N2az2V0Tb4hImHXNKjzMnwae550uqq0KtKrq68Ou5zB+IY6TicVimd7e3u1hFxNFLS0tib17955TugOpVVVTYdc0FREZVdW7xHEyNTU1mT179gR+bu9cxcP8CMvlcg8DeBhA+1LXTY+pXqbjpwPOQrSODt6kxrypaMwXPNfdLcAmB8h8YP36++ZyA6vUQLpQfb91b3//JRMNpKgdwpcaSHcokJnf0HD7XG0ghYV7piEqNbAuVdVWjN+ff0zYNR3CUxC5WUQyiUTizrnQwFq2bNlJo8PDl+rLDaRIfiptqYF0iwNkTnLdLWwgVY57pjNQqYH1QwA/bGpqqvPHxsYbWKoXAzgx5PImOwmqV6rqlWOjo4NeMnmHABknkbi9t7f3ubCLs6XUQFpbaiCdiahehy3yOICM4ziZvr6+BycaSH39/SEXNrcxTCOitLfXAaCjvb3d+e53vzvRwFoTsQbWMQpcocAVplAoeq7bqeONt5tn2h1YqirpdLrFFIutOt5AiurNDkZEHig1kG5iAymaeJg/A3ie9/pJDY/Tw67nMLaK40zsMUXykypbWloS/f395zrj56zXRrmBBNUtAmQSdXUdbCBNHx7mz2K5XO7XAH4N4PNLXTc9Nh4Erap6NqJ1dNGixrT4xvyd57q7AWRi4w2se8NsYK1YsWL+/v37L1LV1r39/RdDdVEUu2kisl+BO0Qks2jRotu3b9/+Ytg10dHjnukMlk6nj/V9f6KBdQGi28B6elID66fT0cBasmTJyYXR0YkG0nkRbiBlAYw3kJLJu9hACh/3TOegUvPnegDXNzU11Y2NjV1QOhVwCaLVwDoRqn+sqn9camBtllgs4zjObTYbWKlU6lXGmLUAWkdHRs5AVBtIwGPiOBkRyfT19T30UgMpz/2TmYxhOkuU9vZuBnBze3u7s2HDhrNMsdgKkTWquizs+iY5RoF3qe+/y/h+0XPduwXIGKAjaAOr1EB6kzGmVY1pNb7/2moVXSEjIvdPaiB1TbzBBtLswcP8OSCVSp2mqq06vtfWEnY9hyIivwHwcwEeg2pWgGcQjw8bY4oiUqOqDap6oqguUZHTBFitqsmw656KiIwC+KkAmdr6+pv5QOWZg4f5dEjZbPY3AH4D4O9c1210Xm5gnYMIHZ2o6mkATjvgzqJicfy9yduNbxzFO5D2K3B7qYF0BxtIc0tk/iHR9CgdSn8dwNdLDaxLYEyrAhciug2syCo1kG6OAZkTk8nOiQZSLpcLuTKabgzTOazU/LkBwA2lBtb5DtBqVC9FtBpYUfPopOtpH5p4sZcNpDmNYUoAXmpg3QLglvb2dmfDNdesMkArRNZGrIEVBgOR+wB0OI6zaXIDiWgCw5ReoXSB/c9Kfz76UgNr/HrWN4Zc3rQQkREAd7KBREeLYUpHNEUDa22pgXUuZtH/Q6UG0m2lBtJmNpAoiFnzD4GmR6mB9Q0A30in08caYy5W329V4CLMwAaWiGQF6DBA5lWnntrZ2dlZBNhAouAYplS2UgPrRwB+1NTUVFcoFM4rnQq4FMBJIZd3ONsFyDjxeKavr+8XEy/m2UCiCjBMyYpSA+tWALe2t7c737v22jNLn420VlWbw60OBiL3AuiIxWKb+vr6dodcD81CDFOyrtTA+nnpz8caGxtfN3HLJ6bpDqxSA2niDqRb2ECiamOYUtWVnm36CIAveJ6XUtW1pQeyrIbF/wdF5Dmo3iaxWOa4447bvG3btkFbcxMdCcOUplXp46S/CeCbS5cuXTgyMnKuiPyWGvNGEVmhqscf5VQKoEdEHoHIA6q65VWnnvrgRAOJnwFP041hSqF54oknnkfpSVcTr6XT6WMBJH3fP0VV5wOod1Tj6jijAEZiqs8hHu83xvRns9nhyfOxgURhYphSpJSuEHgOwKNh10IURFQfnktENKMwTImILGCYEhFZwDAlIrKAYUpEZAHDlIjIAoYpEZEFDFMiIgsYpkREFjBMiYgsYJgSEVnAMCUisoBhSkRkAcOUiMiCssLUGMMQJqJZSVXLyreyBiXGH9pLRDTrOEBZ+VZWmPqxWEM544iIok5Vy8q38sLU9xeWM46IKOpUpKx8KytMRWRZOeOIiKJOVMvKt/IaScYsL2scEVHUiZSVb+V25V9d5jgioshqbm6uVdWmcsaWF6YiZ7S3t/PyKCKaVUZGRs4AECtnbFmBqKqLNmzY8MZyxhIRRZUa8/Zyx5a9d6m+/45yxxIRRVTZuVZ+mALvKXcsEVHULHXdtKqeUe748sNU9Q2NjY2vK3c8EVGUjKr+HgApd3xFTSRTLL6/kvFERFGgqgKRP6xkjorCVIF16XT62ErmICIKW6PrtqrqqZXMUenlTQ3FYvHPK5yDiChUBvhUpXNUfK2oAB8+1XVPqHQeIqIwNLpuK4CWSuepOExV9dgh4MuVzkNENN1aXHeer/pvNuYq90End07+3qi+33XdM20UREQ0XfqBzwBYPPk1EflpOXOV90TpWOyTAF48YH3g+ubm5gXlzEdENN3SrnsWVD8++TUBOiFyYznzlXuYn3eAT09+QVWXDQ8NfbfM+YiIps2prnuCD/wXJt2HLyKj8ZqaD5Y7Z9nnTK+86qqvQ+Rnk19T1TbXdT9W7pxERNW2YsWKmkHgv1TVm/y6AJ/t6el5rNx5yw7T9vZ2U1tb+/sisu+AN1T/0fO83y93XiKialFV2f/cc9er6gH34IvInVeuX/+VSuauqJu/Z8+eHnGc3wOgk+tSY77X6LprK5mbiMgmVZWU635LVQ94roiI5OrnzXtve3u7qWT+ii+Nymazd4jjfPSgl+O+6o2u636g0vmJiCrV0tKS8Dzv3xW4+qC3BhS4tKur6+lK17DygOdcLvevAvzrQS/HoLrBdd3PqmrZDw8gIqpEKpU6rr+//zaovnfy6yIyFhO5Ip/P/8rGOtaelp/r7/8IRL7xijdUP+953h3Nzc0n2lqLiOhoeJ53hjHmV1A9f/LrIjIGkXf15fP/a2stqx89ks/nP+SI/NMr3lC9cHho6OHSbVtERFXV1NRUl3Ldz6sx/wfV9EFvvyiOszaXy91qc03rn+OUzef/CiJ/CsCf/Lqqur7qJs91b02n00ttr0tEBACpVOqdhbGxR4zqZwHEJ78nIv0JkXOz2exm2+tW5UPx8vn8t5xY7B0A9h78nqpe7BeLj3uu+z3P8yp65BUR0YRUKvVO13V/bnz/dlVddvD7AnQmamre2JPP/7Ia61ftE0az2ezdtXV1p4vILQe/p6oJVX2/GvOY57odqVTq8hUrVtRUqxYimp2WLVt2UiqZ/LDnug8b378dqqsO3kZEChD53JlnnXVed3f3K3bwbIkfeZPy7dmz50kAa1LJ5PsM8M8ATj5oE0dV16jvr9n/3HPPecnkbSqypba2dsuePXt6qlkbEc087e3tzveuueYNRZG3AzhveGjo7QDiUJ1yexF5QBxnXS6b/c3GjRurWpukksl1Brg2yKBYPO719fXlg4xZvnx5w8DAwKcE+HNVrT+KIU8BeBwiO0SkV4wZMCIDAIZw4E0CRDTLOOOXVs5Xx2mAMYtUZBmA5VBdDuCYI04g0uuo/k1fPv8fIhIoLzzPu1qN+XaQMbV1dadUdc90sh07dgwA+OSSJUv+dXR09CNQvRrA4Z4ydRKAk6B6jqqOp+chfvsQ0ezy0q1IpvTVUf7bF5FdAnz55GTy+q1btxZEpu8S96qdMz2UPXv2PJnP5z9xwoknuo7IlSJyL7inSUTlEhkSkf+GyPnZXG55Np/fsHXr1sJ0lzFte6YH27Zt2yCADQA2pFIpzxjTCuAdApyrqseFVRcRRZ+IdCnQ6TjO5pONuWNrPj9Uej20mkIL08my2WwOwDcBfFNVpbGxcRmAlar6GhjTCBFPgYVQrReRWvD2VKLZTcQAGIbqMESehkgOxvSoyCP19fXbdu/e/dTEptkQy5wsEmE6WelkcVfpDxHRjDDt50yJiGYjhikRkQUMUyIiCximREQWMEyJiCxgmBIRWcAwJSKygGFKRGQBw5SIyAKGKRGRBQxTIiILGKZERBYwTImILGCYEhFZwDAlIrKAYUpEZAHDlIjIAoYpEZEFDFMiIgsYpkREFjBMiYgsYJgSEVnAMCUisiAedgGVamtri91zzz1uIpGYD2AkkUjku7q6RsOui4jmlhkZpo2Nja76/h8ocOm999zzJqjWFMbGAACFsTHfc91HBdjsxOM/7O3t3R5yuUQ0B8yoMF26dOnCkZGRvzO+f5Wq1hxis5iqnqbAaaZQ+JjruplEIvHRnp6ePdNaLBHNKTPmnGljY+PrRoaHfwXVDx0mSA8mUL2sMDb2a8/zLqlqgUQ0p82IME2lUqv9YvFeAEvKnKJBjelwXfeDNusiIpoQ+TBNpVLNasxNABoqnMqB6tdTqdQ7bdRFRDRZpMO0paUlob6/SVWPtTSlo8b8p+d5KUvzEREBiHiY7t27988UeJ3NOVV1oar+o805iYgiG6arV6+OQ/XjVZlc9T3pdHppVeYmojkpspdGdXV1na+qycNtIyIPKHAjgF85jvMUgGNV9dUwZo0CF+HQvywc3/ffB+DvLJdNRHNUZMNUVS88zNt7YsCf9OXz/zPFe3cDuCaVSp1mjPk2VFcdZn6GKRFZEdnDfBjz+qleFpEH5ou8pa+/f6ogfUk2m/1NMpn8LQF+NOUGqlPOT0RUjuiGqcgrOu4i0ldXX79mZz7/zNFMsXXr1sKrli9/v4zvrR5s/tKlSxdWXCcREaIcpkDtK14R+cju3bufCjJJZ2dnUWKxdQCKr5xOXrkGEVEZIhumqvrC5O9FZGcul/txOXNls9ldIvKKsaOjowPl1kdENFlkw1REdh/wPdBR4YSbDpq/P5vNDlc0JxFRSWTDFKr3H/CtyCOVTBeLxQ58FJ/qfZXMR0Q0WWTDNJZIHLwn+mwl8zmO8+xBL1S2p0tENElkw7S3t/dRiPx80ksnVDKfMeb4ia9F5Nnjjz/+xkrmIyKaLLJhCgCO43xm4mtRrege/WKxeNrE1wp8adu2bYOVzEdENFmkwzSbzXYKcA0AKNCqqlLuXAK0AoCI3J9MJr9qqUQiIgARD1MAOMV1PwSRn6lqs+d57y5nDtd1l6vqu0Qkm6ipuWzr1q0F23US0dwW+TDdunVrwXGcVgE6BfjnpqamU4KMb2lpSQD4roj0xBOJC7q7u/dWqVQimsMiH6YAkM1m953iuhcosKkwOnrzsmXLTjqacc3NzbV7+/uvBzAojvOWnp6ex6pcKhHNUTMiTIHxPdR8Pv8hOM6Hh4eHv+B53sWH236x675xeHDwqxC5MZ/PX5TNZvdNV61ENPdE9hF8h5LL5e4DcN+SJUsWe573NgDZRYsW7X/ta187vGPHjrrBwcFjisPDKd9xirls9uqw6yWiuWHGhemEPXv29ADoAYBcLoft27cDwGDpT6CHoRARVWrGHOYTEUUZw5SIyAKGKRGRBY46zmjgQY7DhyoT0awkxgTON1UddcSYwA9I9n2/IegYIqKZQB1nftAxTU1NLzpGJHCYOsacHHQMEdFMoKqB7rIUkeHOzs6ikwACX8xugOVBxxARzRBB820fADh1DQ27gq5kgNODjiEimhGCfgy86i4AcHbs2DEgIvkgY0X1twItRkQ0A6TT6RUAjurZH5M8Drx8aVSgB4AosHTx4sWvCbggEVGkmWLxkqBjZHKYCvDzw2/+SsVi8feDjiEiijKjGjjXnFJ+jodpLLYl6ARqzAeamprqgo4jIoqixsbGcwCsCDJGRJ77wFVX/QoohemCBQvuh8hQwLVPLo6NXRlwDBFRJPm+/+mgYxTobG9vN0ApTLdv3z4mwC1BJzKqn2lqaloUdBwRUZSkUqmLoHp+0HEO8ONJX48Tx7m+jBpOKoyOfqmMcUREkdDiuvPUmG+UMXTgZCAz8c1LYdrc3Py/AJ4MOpsCV6WSycvKKISIKHR7gW+q6rKg40Tkx1vz+ZdOj74Upp2dnUVxnG+WU4yKfL+xsbGiz7UnIppurut+UFX/qKzBIl+b/O0Bj+BLJBJfB/BC0DlVdaHx/c2LFy9eUlZRRETTzPO8d0P16+WMFZFbc7ncw5NfOyBMu7u794vjlHPuAKrqFQuFn6dSqdPKGU9ENF1SrnulGvMfKPOZzuI4Xzj4tVdMVF9f/2UR6S9nAVV1je//3PO8tnLGExFV04oVK2o8z/s3o3odgFhZk4j8ZzabfeDgl18x2b59+0YbGhpyAK4oayGgFqptCxYsWJxsaLjn2YGBoNevEhFZl04mW4ZGRjqgWknD/IVETc2a559//sWD35gymQcGBh5pWLDgTACBO1yTvKEgcmVDQ4Om0+ltTz/99FgFcxERlaWxsXHZgvnzv+ID3wTgVjKXI/Kxvmx2yjtG5VCDmpqaThkbHX0YQMUPghaRfQr8eywWu6G3t/cXIqKVzklEdChNTU11xdHRdxqRP4DqpSj3kH4SEbk5l8+vPeT7hxvsed471Jj/hd0P3ntaRDohsg3ADhF52vH9AROLcc+ViMoxzxjTAKARwHIB3gLgDFW19+wQkd54PH56b2/vc4fc5EhzeJ73ETXmn60VRUQ0swwkRFb35PO/PNxGR9z1HRgYuG/hggXHKLDKXm1ERNEnImPiOGv68vl7j7TtUR2+9+Vyn4DIdZWXRkQ0M4hIQRznd3O53J1Hs/1RhamIaD6fXw+RL1dWHhHRjDDoqF6azWZvPNoBgTpcAwMDP13Q0PA8gPNhtylFRBQVTzqx2EXZfP7/ggw6YgNqKqlU6lw15j9UtaJrtoiIokRE7krU1Pxud3f33qBjy9q7zGazd9fPm3e6iNxazngioigRkTGItK9bv/68coIUKHPPdLJUMnmZinxVVRsrnYuIaLqJyJYE8Kfd+fzjlcxT8V0BL7z44uNLliy5dnhkZFiA1wOYV+mcRETVJiLbxHH+LJfPf3L/wMAzFc9no6gJK1euPObZZ5+9Wo35MwBNNucmIrJC5GcAvpLL5W6xeWu71TCdoKqSTqfPVt//QwXWqurx1ViHiOhoiMgOAf5LYrEb+vr6dldljWpMOpmqiud5p4vI22HMmQq8RkSWqWpNtdcmorlHRJ6H6k6IPAKRu1V1Sz6f76v6utVeYCptbW2xBx98MI1C4VjfcRpUtUFEGK5EVI4hx5gB4zgD8Xj8qXK78ZX6/64xPAN3qYfkAAAAAElFTkSuQmCC;textShadow=0;labelBackgroundColor=none;" parent="1" vertex="1">
          <mxGeometry x="350" y="80" width="70" height="90" as="geometry" />
        </mxCell>
        <mxCell id="9cwglLM5n4MLdlPzuKQn-27" value="Indexer" style="text;html=1;align=center;verticalAlign=middle;resizable=0;points=[];autosize=1;strokeColor=none;fillColor=none;fontFamily=Georgia;fontStyle=2;fontSize=16;" parent="1" vertex="1">
          <mxGeometry x="195" y="50" width="80" height="30" as="geometry" />
        </mxCell>
        <mxCell id="9cwglLM5n4MLdlPzuKQn-28" value="More Indexer" style="text;html=1;align=center;verticalAlign=middle;resizable=0;points=[];autosize=1;strokeColor=none;fillColor=none;fontFamily=Georgia;fontStyle=2;fontSize=16;" parent="1" vertex="1">
          <mxGeometry x="475" y="30" width="120" height="30" as="geometry" />
        </mxCell>
        <mxCell id="9cwglLM5n4MLdlPzuKQn-29" value="" style="shape=image;verticalLabelPosition=bottom;verticalAlign=top;imageAspect=0;image=data:image/png,iVBORw0KGgoAAAANSUhEUgAAAVMAAAG3CAYAAAAJnrbgAAAACXBIWXMAAC4jAAAuIwF4pT92AAAE7mlUWHRYTUw6Y29tLmFkb2JlLnhtcAAAAAAAPD94cGFja2V0IGJlZ2luPSLvu78iIGlkPSJXNU0wTXBDZWhpSHpyZVN6TlRjemtjOWQiPz4gPHg6eG1wbWV0YSB4bWxuczp4PSJhZG9iZTpuczptZXRhLyIgeDp4bXB0az0iQWRvYmUgWE1QIENvcmUgOS4xLWMwMDEgNzkuYThkNDc1MywgMjAyMy8wMy8yMy0wODo1NjozNyAgICAgICAgIj4gPHJkZjpSREYgeG1sbnM6cmRmPSJodHRwOi8vd3d3LnczLm9yZy8xOTk5LzAyLzIyLXJkZi1zeW50YXgtbnMjIj4gPHJkZjpEZXNjcmlwdGlvbiByZGY6YWJvdXQ9IiIgeG1sbnM6eG1wPSJodHRwOi8vbnMuYWRvYmUuY29tL3hhcC8xLjAvIiB4bWxuczpkYz0iaHR0cDovL3B1cmwub3JnL2RjL2VsZW1lbnRzLzEuMS8iIHhtbG5zOnhtcE1NPSJodHRwOi8vbnMuYWRvYmUuY29tL3hhcC8xLjAvbW0vIiB4bWxuczpzdEV2dD0iaHR0cDovL25zLmFkb2JlLmNvbS94YXAvMS4wL3NUeXBlL1Jlc291cmNlRXZlbnQjIiB4bWxuczpwaG90b3Nob3A9Imh0dHA6Ly9ucy5hZG9iZS5jb20vcGhvdG9zaG9wLzEuMC8iIHhtcDpDcmVhdG9yVG9vbD0iQWRvYmUgUGhvdG9zaG9wIDI0LjYgKFdpbmRvd3MpIiB4bXA6Q3JlYXRlRGF0ZT0iMjAyMy0xMS0xNlQwMDowMTo0NyswODowMCIgeG1wOk1ldGFkYXRhRGF0ZT0iMjAyMy0xMS0xNlQwMDowMTo0NyswODowMCIgeG1wOk1vZGlmeURhdGU9IjIwMjMtMTEtMTZUMDA6MDE6NDcrMDg6MDAiIGRjOmZvcm1hdD0iaW1hZ2UvcG5nIiB4bXBNTTpJbnN0YW5jZUlEPSJ4bXAuaWlkOjJkY2IwNzJhLTJmZjEtMmE0Yy04Yjg2LTNkNjZiYWQzYjZhMiIgeG1wTU06RG9jdW1lbnRJRD0ieG1wLmRpZDoyZGNiMDcyYS0yZmYxLTJhNGMtOGI4Ni0zZDY2YmFkM2I2YTIiIHhtcE1NOk9yaWdpbmFsRG9jdW1lbnRJRD0ieG1wLmRpZDoyZGNiMDcyYS0yZmYxLTJhNGMtOGI4Ni0zZDY2YmFkM2I2YTIiIHBob3Rvc2hvcDpDb2xvck1vZGU9IjMiPiA8eG1wTU06SGlzdG9yeT4gPHJkZjpTZXE+IDxyZGY6bGkgc3RFdnQ6YWN0aW9uPSJjcmVhdGVkIiBzdEV2dDppbnN0YW5jZUlEPSJ4bXAuaWlkOjJkY2IwNzJhLTJmZjEtMmE0Yy04Yjg2LTNkNjZiYWQzYjZhMiIgc3RFdnQ6d2hlbj0iMjAyMy0xMS0xNlQwMDowMTo0NyswODowMCIgc3RFdnQ6c29mdHdhcmVBZ2VudD0iQWRvYmUgUGhvdG9zaG9wIDI0LjYgKFdpbmRvd3MpIi8+IDwvcmRmOlNlcT4gPC94bXBNTTpIaXN0b3J5PiA8L3JkZjpEZXNjcmlwdGlvbj4gPC9yZGY6UkRGPiA8L3g6eG1wbWV0YT4gPD94cGFja2V0IGVuZD0iciI/PsqQcCMAADDoSURBVHic7d15fBxnfT/wz3d2V4dj2c6dnVmtZVvEgIkJiCtxDhdy0SS2EiIopRc0dlJaSstRaLlECy209OAmCeZI6PGrSbzK6RbiKIXcGIKJk9iWYx27K+dynCg6d+f5/v7QKpEd+ZjdZzUj6fN+vfx6SbvzPM9XTvzRzHxnZgUhanHdeftqaxsKhUKD4zg1YdZCRDOPiKiIDBcKhYFFixYNbN++fSy0WqZjkeXLlzcMDg6eraqrYMyrFVguIs2qWjsd6xPR3CAi+wHsgOoOEdkOx+k844wztm7cuNGv+trVmnjx4sXJQqHwPgEuV9U3A4hXay0iokMRkecV6ATwnzU1NR3d3d0jVVnH9oSe512sqh+C6nkAYrbnJyIqVylY/7sG+JfufP5xq3PbmERVpbGx8XI15lOq+gYbcxIRVZERkR+L43wxm81uszFhxWGaSqVOM8Z8C6pn2SiIiGgaGRH5TqKm5lPd3d37K5mo7MPwFStW1NQmEl8yxnwfQFMlRRARhUQAvNn3/Q8sWLiwd2BgYHslEwWWTqeXFguF/wbQUu7CRERRI8C1idraD5fTpAocpp7nXQzVf1fVhUHHEhFFnYj8uhZY80Q+3xtknBNkY8/z/kiNyTBIiWi2UtXXjwL3pNPpFUHGHXWYep73UR0/P8rrRYloVlPVlF8s/iyVSr31aMcc1WF+KplcZ4Bryy+NiGjmEZF9sXj87N7e3kePuO2RNkglk5cZYCN4AT4RzUEiklXgzHw+33fY7Q73ZmNj4+uM7z+oqvUWa1MBtqvIrwHsFJGnxJgBdZyCxTWIaO6oF9UGAzQCWC7AW1Q1aXUFkV/OmzfvzK6urtFDbnKoN1auXHnMM08//RCA11goxUDkThG5ob6+fnNXV9fTFuYkIppSk+u+uqB6mYr8AVRfbWNOR+Sb2Xz+zw71/iHD1HPd76nq+ytcvygiN4jj/EM2m91V4VxERIGlUqmL1JjPqOqZlc7lAJdn+/s3TfXelGGaSqVWG9+/q6JVRe5xHOeDtu57JSKqRKPrvtdX/RcAp5Q7h4jk5zc0vHrHjh0DB7/3ikujWlpaEsb3v1XuYgB8iHxu/fr15zBIiSgq+vL5/5wvchqAzeXOoaruiy+88Pmp3nvFnqmXTP6FAv9a1koiQ47jtGWz2dvLGk9EVGWqKinP+ydV/WiZUxQh8rp8Pr9j8osH7Jk2NzfXQuSvylzgRRE5j0FKRFEmIprL5z8mjvPpMqeIC/DXB794QJgODw9/oJxLCkSkEBe5PJfL3VdmcURE0yqXy31RyjwKV9X3NTU1NU1+zTloi4+UM7Gofrw3n/9JOWOJiMKy7qqrPiYiPy1jaLxQKHx48gsvnTNNu+6qourPg84oIrfk8vk1ZRRDRBS6ZcuWnTQ8NPQIgBMDDn3q1OXLvc7OziIwac/UV/2DMuoYrAUOeRErEVHU7d69+ylxnHJ6RSft2rXroolvHABob293INIWdCZH5CtBn/lHRBQ12Wz2hxD5ZeCBxrxn4ksHADZs2PBGVT024DQDTjz+1cCLExFFjIio4zhfLGPgOya+dABAff/tZSx+Q29v73OBFyciiqC+vr5NEAl0pK2qySbXfTUwEaaq5wZdWBzn+qBjiIiiSkRURH4UdFxB5FxgIkyB1wYcvzebzT4QdFEioigTkY6gY1T1tQDgNDU11QFIB1yxsoegEBFF0BlnnLFVRJ4POGz8ML9YLL4KAT9YT0R+EXAxIqLI27hxow/VhwMNUj0VABxVDXqhKgDsOPImREQzUtB8OxEAHEe1oYzFcmWMISKKPBUJmm/HtLe3O446TuAwdRznFQ9GJSKaDUQkcL796Ec/mu/A98v5sLzhMsYQEc0EgfPN9/36QI0nIiKaGsOUiMgChikRkQUMUyIiCximREQWMEyJiCxgmBIRWcAwJSKygGFKRGQBw5SIyAKGKRGRBQxTIiILGKZERBYwTImILGCYEhFZwDAlIrKAYUpEZAHDlIjIAoYpEZEFDFMiIgsYpkREFjBMiYgsYJgSEVnAMCUisoBhSkRkAcOUiMgChikRkQUMUyIiCximREQWxMMugGgqS5cuXVgoFI4RkTrf9+OJRGIMwEixWHw+m80Oh10f0cEYphSqVCrVDGNWAzhdgdeq6lIROWVkeLh28nZjo6Mvfe0mky+ISD+AHQo86qg+iFjs7mw2u296qyd6GcOUplVbW1vs/vvvX2WKxVYFLje+v/jgbVT1SNMsUNUFAJYDWGMAwPfVc90HBbhJRTK5XG6n/eqJDo1hSlXX4rrz+oHzBGi995571qjq8VVYRlT1rQq8Fapf9lx3B0RuEpFMX1/fQyJyxIQmqgTDlKriVNc9YVDkt1W1dS9wEVTrpzPNVHU5VP9agb9OeV6/57oZB8gsOPbYzu3bt49NYyk0RzBMyZrFixcv8QuFSxVofVH1HKjGACDsXUJVTQL4Ex/4k+f27RtwXfdWEcnU19dv7urqeiHk8miWYJhSRTzPe72qtgrQWhgbOz3seo5CA1Tfq6rvHR4aGvOSyTsFyEg8fmtfX18+7OJo5mKYUiBtbW2x++677yxVbVVjLlNjFgPh732WQ1VrALxTgXeiWFTPde8XoMMAmXw+vyPs+mhmYZjSEbW47ryngPPNyw2k48KuqQpEVc9Q4AwAX/Jcd6cCNzmOk+nr63uQDSw6EoYpTanUQLq41EC6UFXrw65pOqnqqQA+aXz/k57r7vWSyfEG1nHH3cUGFk2FYUovWbx48RJ/bGxNqYF0dlQaSBFwigJX+8DVz+3bN+C57m0KZOrq6jY/8cQTz4ddHEUDw3SO8zzvdFFt1fEG0uvDrmcGaFDV3wHwO6MjIwU3mbxTHCfjOM4tbGDNbQzTOWb16tXxrq6u8QaS6mVqTJp7nuVR1QSAi9SYi3xjvu257gMCdMSBTHc+/3jY9dH0YpjOAS2uO+9J1QsVuGzXzp0XR7iBNCgi9yuwXUS6xZinAAyp4xREpNYYs0BUTxGRZgOcDtXTEZ0nn4mqvk2Bt40B/+C57i4BMiqyKZvN3s8G1uzHMJ2lmpubTxweHn65gQTUAQCOfN/7tBKRfgVuFZGORYsW/SRIc8fzvOMnTlEAeEeUmmSq+ioFPg7Vj5caWB0Si2Xq6uru6urqGj3yDDTTMExnkXQ6vdQvFNYAaB0aHDwbpb22aMUnICK7BMgYIJPN5e6b2GvL5XKB5snlcs8C2ABgQ4vrznsyFnun+n4rRN5Zpfv/y3WKAlep7181NDg44Lnu7aUG1h1sYM0eDNMZznXdNzhAqwKtxUJhZdj1HIIK8AsAmYTITZPPJ4qIlQW25vNDAG4EcGNbW1vs3nvvPVdVW6F6KYAmK4vY0aCq7wHwntGRkYLrultEJCMit2Sz2WC/TShSJJVMrjPAtUEGxeJxj53LcKxevTq+a9eus1W1FUArVNNh1zQVERlT4G4AmUQisamnp6c/rFoWu+4bi+OnAlpV9bSw6jgCFZEHodoRr6nJ9PT0PBZ2QXOV53lXqzHfDjKmtq7uFO6ZzgArV648Zt/TT1+gQOuunTsvVdVjw67pEF4Qkf8RIFM3b96tUXmISE8+/0sAvwTw2aampqZCoXB5aa/1TACxkMubIKr6VgBvLYyN/b3nursU2CQimXXr1j3Q3t5uwi6QDo97phHV3Nx84tDQ0CUyvkd1garWhV3TVESkH6q3SCzWsXDhwp/OpLuDPM87XlXXlv6Oz4tSA+sgTwow0cDawgZWdXHPdBZIp9NLfd9fq8a0Dg0OngXAiVrzCABEZKcCGRHJTL7sJ5vNhl1aIKUG1vcAfK/UwLqo1MD67Yg1sE5WYL36/vpSA+sOB8gk6upuZwMrOhimIZt8Pq9YKET3fB7wEMavm7wpN+mJSrYaSGErNbBuAnBTqYF1TulUwBpEr4H1bh94txlvYN1VamDdzAZWuHiYP81KDaRzJp4BqqqNYdc0lVIDqVNEMvF4PBNmAylsk6+YUNUoXzHxEICOWCKR6e3tfTTsgmYqHuZH2MqVK4/Zt2/fher7rbt27rxkooEUwUP4F0RkswNkaufNuy0qDaSw5fP5XwH4FYDPlRpYl6kxrQBWIUoNLOAtAN5SLBS+OHEHlgEy69evv58NrOrjnmmVlBpIl5aaG+dHuIGUn9RAunMmNZDCVmpgrZHxvdbzoDov7JoO4UmI3Ow4Tqauru5ONrAOj3umEdDY2LjMGLNWVVuHBgdXIboNpB2TGkgPzNQGUthKDazvA/h+KpWqh+9fpEArxp8DG6kGFlTXGd9fNzQ4+KLnuncIkInX1Nze3d29P+ziZguGaYXSyWSLX2og+cXi68Ku5xBURB4sHfZtmo0NpLBls9lhAJsAbCp9tMvZpY92WYtoNbDmq2qbAm2FsbGC67qdGP/FenMul+Nv0wrwMD+gUgPp3FIDaW3EG0h3iUgmkUhkuru794Zd01w1+ZmxqhrVZ8aO3/LrOB2xWCzT29u7PeyCwsLD/CpSVUm77gUGeF+UG0gi8jyAzRC5af78+Xfs2LFjIOyaCMjlcg8DeBhA+5IlSxYXRkbGgxU4G9FqYL0Zxry5aMwXPNftUuDHiUTiet7aenS4Z3oEja77XgN8TlWXh13LVEoNpJsdkU0nJZN3bd26tRB2TXR0PM87HsAlqnoZgPOj2sAS4HY4zt/kcrlfh13LdOCeqWVNTU1NhdHR7/uqq8OuZQqPQaTDcZxNfX19D000kPryc+L326xRamD9EMAPU6lUvRhzoRnfY70YqieEXd8EBX4bxlzkJZP/Vn/MMX/DqwGmxjCdQtp1VxXGxjoUiEpHVkXkgYknt+dyuZ0Tb7CBNDuUGlgZAJlSA+usSQ2sJeFWB2D8ypSPDA8Nve1U1127M59/JuyCooZhehDP867wVX+kqrVh1iEiY1C9E47TkUgkOthAmjs2btzoY/zxhXcD+EvP814/qeH5hjBrU9UzB0XuS6fTF/b29j4RZi1RwzCdJJVKrVZj/qP0QWnTrtRAukOBzPyGhtvZQCIAKJ2r/DWAz0ehgaWqzX6xuDmVSr0tm83um+71o4phWuJ53qlqzE3THaQikgNws6PacVIyuYUNJDqcPXv29AD4KoCvplKp41T1UlVdC+DC6Wxgqeqr1Pc3tbS0nMf/Z8cxTAG0t7c711177Q+n8aHLj4njZEQkc0ADqX/OPkuEylDaK5zcwLqg1MC6ZJoaWOfs3bv3rwB8cRrWijyGKYDrrrvuKlV9WxWXUBG5v9RAyrCBRLaVGlgdADra2tpi999//ypTLE58cmv1Gliqn06lUv8vm812VW2NGWLOh2lzc/OC4aGhv7c9r4iMQnWLjD/Et2PPnj1P2l6DaCqlBtb/lf58JJVKrTTGTDzy0WoDS1Xr1JivYDy057Q5H6YjQ0NXq+oiG3OJyPMK3C4iGd6BRFGRzWa3AdgG4G+Xum567OVns54NGxmguiadTr92rj9Ddc6HqQLrKxlfaiB1OEAH70CiqHsin+8F8DUAXys1sC4pfdJtJQ0s8QuFKwF8xFadM9GcDlPP805XY5aVNVjk3x3H+RrvQKKZqtTAuh7A9S89QlDkM2WdChC5AnM8TJ2wCwiTqp5XzjgHuCqfz/9eNpt9cCJIiWaybDY7nO3v33RKMvlWGf8srEBUtdHzvFOrUdtMMafDVIA3BR8kX8/29wd6MAzRTLF169ZCorb2fRB5POhYMebN1ahpppjTYaqqzQGHvFhTU/PZqhRDFBHd3d0jjuN8Kug4I1LeKbNZYk6HKYDjgmwsInfxYx5oLli4cOGtIhLo88BEJNC/p9lmToepiAR6mIkCfNgIzQnbt28fU9XnAg0yJtSHA4VtTocpER1W0ObqnL6dj2FKRGQBw5SIyAKGKRGRBQxTIiILGKZERBYwTImILGCYEhFZwDAlIrKAYUpEZAHDlIjIAoYpEZEFDFMiIgsYpkREFjBMiYgsmNMfqBdF6XT6WABuNdcQkX09PT39QcZ4nndqLBZLVKumcsyWn6McS5cu3dHZ2VkMuw56GcM0Ykyh0GaAa6q5hgDXArgq0CDVzmKhkKxOReUp5+dQY+4uGnNKlUqaNt3d3UnwYeWRwsN8IiILGKZERBYwTImILGCYEhFZwDAlIrKAYUpEZAHDlIjIAoYpEZEFDFMiIgsYpkREFjBMiYgs4L35EeMkEj9V3393NdeIq+4OPEhkvYjUV6GcspXzc4jjrAMQqZ+jTPvDLoAOxDCNmN7e3icAPBF2HQfL5XK3hl2DDbPl56Do4WE+EZEFDFMiIgsYpkREFjBMiYgsYJgSEVnAMCUisoBhSkRkAcOUiMgChikRkQUMUyIiCximREQWMEyJiCxgmBIRWcAwJSKygGFKRGQBn2cahOo6N5lcF3YZRBQ93DMlIrKAYUpEZAHDlIjIAp4zDUBENsbi8faw6yCaDsVi8W6onhB2HTMFwzQABfb39vY+GnYdRNPBTSaLYdcwk/Awn4jIAoYpEZEFDFMiIgsYpkREFjBMiYgsYJgSEVnAMCUisoBhSkRkAcOUiMgChikRkQUMUyIiCximREQWMEyJiCxgmBIRWcBH8EVMOp0+FoAbdh2z1dKlS3d0dnYe9aPlovrfI+jPQdXHMI0YUyi0GeCasOuYrbq7u5MA9h7t9r7vv1uN+U4VSypL0J+Dqo+H+UREFjBMiYgsYJgSEVnAMCUisoBhSkRkAcOUiMgChikRkQUMUyIiCximREQWMEyJiCxgmBIRWcB78yMmVlPzEy0W28KuYxbbH2TjWCz2Ex+I4n+P/WEXQAdimEZMT0/PHgB7wq6DxvX29j4B4Imw66Do42E+EZEFDFMiIgsYpkREFjBMiYgsYJgSEVnAMCUisoBhSkRkAcOUiMgChikRkQUMUyIiCximREQWMEyJiCxgmBIRWcAwJSKygI/gC0hVJewaiKaD57phlzCjMEyDUF3nue66sMsgoujhYT4RkQUMUyIiCximREQW8JxpACKyMZ5IfC7sOoimQ6FQ+D+onhB2HTMFwzQABfb39PQ8FnYdRNPBTSaLYdcwk/Awn4jIAoYpEZEFDFMiIgsYpkREFjBMiYgsYJgSEVnAMCUisoBhSkRkAcOUiMgChikRkQUMUyIiCximREQWMEyJiCxgmBIRWcBH8EVMOp0+VlW9sOs42LJlyx7v7Ow86keylfNzTMcas0XQvyuqPoZpxJhCoc0A14Rdx8H27NnjAug/2u3L+TmCruH7/rvVmO8EWWO26O7uTgLYG3Yd9DIe5hMRWcAwJSKygGFKRGQBw5SIyAKGKRGRBQxTIiILGKZERBYwTImILGCYEhFZwDAlIrKAYUpEZAHvzY+YWE3NT7RYbAu7joOJyHNBti/n5wi6Rjwe/99iBP+upkM8Hg/0d0XVxzCNmJ6enj0A9oRdR6Wm4+eYLX9XNDvwMJ+IyAKGKRGRBQxTIiILGKZERBYwTImILGCYEhFZwDAlIrKAYUpEZAHDlIjIAoYpEZEFDFMiIgsYpkREFjBMiYgsYJgSEVnAMCUismBOh6mqFoJsL8CiKpVCFCnt7e2OiCwMMkZFxqpVz0wwp8NURPYH2V6B32pubq6tUjlEkXHdddedq6r1QcYIsL9K5cwIczpMNehT2lVPGBka+ovqVEMUDaoqqvq3gcfN8U89mNNhKiK/DDpGgb91Xfe8atRDFAWNnvePUD0r6Lhy/j3NJnM6TGOqdwUdo6o1Atzqed6nUqnUcdWoiygMixcvfo2XTG40qh8LOlZEnj3zzDMfqUZdM8WcDtO3rlp1H4Ang45T1Vo15gtqzF43mbzDdd0PplIprwolElWV53mne677t57rPlwYG3tUgSvKmUeAjo0bN/q265tJ5vSnk27cuNF3XfcHUP1EOeNVNQHgIqheZHz/G57rPihAxonHb+7t7X3UcrlEFVu9enV8165d5wBYA9XL1ZhGG/MaYIONeWayOb1nCgCxWOxrIjJqYSpR1bca1X8oFgrbPdfd6brulzzPe1t7e/uc/3um8KxcufKYRtdt9Vz3B7t27nxKjblTjfmwqloJUojck8/n77Uy1ww2p/dMAaCvry/vJZP/BODTNudV1VcB+ISqfuLaa6550ksmMxKLZerq6u7q6uqyEd5Eh9Tc3Hzi8PDwxara+uwzz1yoqnVVWso4jvPRKs09o8z5MAWARG3tFwtjY+8pBWA1nKzAVer7Vw0NDr7oue5tCmRqamo2d3d376/SmjTHNDY2LjPF4qUAWocGB89G6chTq7imiHwnm80+UMUlZgyGKYDu7u6RtOu+3xfZoqo1VV5uvqq+B8B7CmNjBdd1O0XkJgC35nK5bJXXplnGdd03iOrlEFnjF4srp3NtEdlRP2/eX0/nmlHGMC3pzefv8TzvSqheP11rlhpY56vq+QC+5SWTDwHIxGtqMj09PY9NVx00c5QaSGeraqsAl6lqowKAVnP/cwoizzix2MVdXV0vTO/C0cXGyCS5XO4GR+STIS0vCrxFgb8vjI096rnurpTr/pPneWewgTW3rVy58phUMnmZl0zeUGogbYHqn1trIAUkIvtFZE1fX9/uMNaPKkklk+sMcG2QQbF43Ovr68tXq6iweZ73+1D97jQc8h+tJwXoKDWwtrCBNfstW7bspOHh4YsFaAVwQRUbSEF1J2pqfns2Hzl5nne1GvPtIGNq6+pO4WH+FHK53A1p132iCNwAYEnY9WC8gbVefX/90ODgi14yudkRuSlWU3MHG1izR2Nj4zJjzBpVvXx4aOhMAM40H7wflgC3182b9/7du3c/FXYtUcQwPYTefP6elStXnvbsM898QlX/AkBD2DWVzFfgCl/1Cn90tOi67hYRyajqrfl8vi/s4iiYdDLZ4ousheplfrH4urDrmYqIdEHkU7lc7r/DriXKeC7uMLZt2zaYy+c/W1NbmxbgLwFsDbumg8SheoEa8y2o9rrJ5ENeMvk36XR6RdiF0dRWr14d9zzvHa7rft1z3b4i8AtV/YwCkQpSERkVkZudWOxdZ65a9WoG6ZHxnGlAS5YsWTw2MnIZgFYFViGie/ci0iXAJgNk1q9ff397e7sJu6a5asWKFfOff/75C9T3WyFyqaouCrumqYjI8wA2K5BpaGi4bceOHQNh1xSGcs+ZMkwrkEqljlPVNaraCuB8qM4Lu6ZDeAoiHY7jZOLx+Jbu7u6RsAua7UoNpEtKDaTzI9RAOoCI5KB6q8RimZNPPvnOrVu3Bvr0idmIDagQZLPZfQB+AOAHqVSqXoy50IzvsV4M1RNCLm+yk6C6zvj+ujHff9Fz3Ttk/HrW29nAsieVSjVP/HIdHhpahYg1kCaIyA4FMiKSyWazD4iIAkA2y3tGKsEwtSSbzQ4DyADItLW1xe67776zVbUVxlyqwNKQy5tsvqq2KdA2Nt7Augvj/7Bu5h1YwaWTyRZ/fO+z1fh+pM57TmJE5EEBOuA4N2az2V0Tb4hImHXNKjzMnwae550uqq0KtKrq68Ou5zB+IY6TicVimd7e3u1hFxNFLS0tib17955TugOpVVVTYdc0FREZVdW7xHEyNTU1mT179gR+bu9cxcP8CMvlcg8DeBhA+1LXTY+pXqbjpwPOQrSODt6kxrypaMwXPNfdLcAmB8h8YP36++ZyA6vUQLpQfb91b3//JRMNpKgdwpcaSHcokJnf0HD7XG0ghYV7piEqNbAuVdVWjN+ff0zYNR3CUxC5WUQyiUTizrnQwFq2bNlJo8PDl+rLDaRIfiptqYF0iwNkTnLdLWwgVY57pjNQqYH1QwA/bGpqqvPHxsYbWKoXAzgx5PImOwmqV6rqlWOjo4NeMnmHABknkbi9t7f3ubCLs6XUQFpbaiCdiahehy3yOICM4ziZvr6+BycaSH39/SEXNrcxTCOitLfXAaCjvb3d+e53vzvRwFoTsQbWMQpcocAVplAoeq7bqeONt5tn2h1YqirpdLrFFIutOt5AiurNDkZEHig1kG5iAymaeJg/A3ie9/pJDY/Tw67nMLaK40zsMUXykypbWloS/f395zrj56zXRrmBBNUtAmQSdXUdbCBNHx7mz2K5XO7XAH4N4PNLXTc9Nh4Erap6NqJ1dNGixrT4xvyd57q7AWRi4w2se8NsYK1YsWL+/v37L1LV1r39/RdDdVEUu2kisl+BO0Qks2jRotu3b9/+Ytg10dHjnukMlk6nj/V9f6KBdQGi28B6elID66fT0cBasmTJyYXR0YkG0nkRbiBlAYw3kJLJu9hACh/3TOegUvPnegDXNzU11Y2NjV1QOhVwCaLVwDoRqn+sqn9camBtllgs4zjObTYbWKlU6lXGmLUAWkdHRs5AVBtIwGPiOBkRyfT19T30UgMpz/2TmYxhOkuU9vZuBnBze3u7s2HDhrNMsdgKkTWquizs+iY5RoF3qe+/y/h+0XPduwXIGKAjaAOr1EB6kzGmVY1pNb7/2moVXSEjIvdPaiB1TbzBBtLswcP8OSCVSp2mqq06vtfWEnY9hyIivwHwcwEeg2pWgGcQjw8bY4oiUqOqDap6oqguUZHTBFitqsmw656KiIwC+KkAmdr6+pv5QOWZg4f5dEjZbPY3AH4D4O9c1210Xm5gnYMIHZ2o6mkATjvgzqJicfy9yduNbxzFO5D2K3B7qYF0BxtIc0tk/iHR9CgdSn8dwNdLDaxLYEyrAhciug2syCo1kG6OAZkTk8nOiQZSLpcLuTKabgzTOazU/LkBwA2lBtb5DtBqVC9FtBpYUfPopOtpH5p4sZcNpDmNYUoAXmpg3QLglvb2dmfDNdesMkArRNZGrIEVBgOR+wB0OI6zaXIDiWgCw5ReoXSB/c9Kfz76UgNr/HrWN4Zc3rQQkREAd7KBREeLYUpHNEUDa22pgXUuZtH/Q6UG0m2lBtJmNpAoiFnzD4GmR6mB9Q0A30in08caYy5W329V4CLMwAaWiGQF6DBA5lWnntrZ2dlZBNhAouAYplS2UgPrRwB+1NTUVFcoFM4rnQq4FMBJIZd3ONsFyDjxeKavr+8XEy/m2UCiCjBMyYpSA+tWALe2t7c737v22jNLn420VlWbw60OBiL3AuiIxWKb+vr6dodcD81CDFOyrtTA+nnpz8caGxtfN3HLJ6bpDqxSA2niDqRb2ECiamOYUtWVnm36CIAveJ6XUtW1pQeyrIbF/wdF5Dmo3iaxWOa4447bvG3btkFbcxMdCcOUplXp46S/CeCbS5cuXTgyMnKuiPyWGvNGEVmhqscf5VQKoEdEHoHIA6q65VWnnvrgRAOJnwFP041hSqF54oknnkfpSVcTr6XT6WMBJH3fP0VV5wOod1Tj6jijAEZiqs8hHu83xvRns9nhyfOxgURhYphSpJSuEHgOwKNh10IURFQfnktENKMwTImILGCYEhFZwDAlIrKAYUpEZAHDlIjIAoYpEZEFDFMiIgsYpkREFjBMiYgsYJgSEVnAMCUisoBhSkRkAcOUiMiCssLUGMMQJqJZSVXLyreyBiXGH9pLRDTrOEBZ+VZWmPqxWEM544iIok5Vy8q38sLU9xeWM46IKOpUpKx8KytMRWRZOeOIiKJOVMvKt/IaScYsL2scEVHUiZSVb+V25V9d5jgioshqbm6uVdWmcsaWF6YiZ7S3t/PyKCKaVUZGRs4AECtnbFmBqKqLNmzY8MZyxhIRRZUa8/Zyx5a9d6m+/45yxxIRRVTZuVZ+mALvKXcsEVHULHXdtKqeUe748sNU9Q2NjY2vK3c8EVGUjKr+HgApd3xFTSRTLL6/kvFERFGgqgKRP6xkjorCVIF16XT62ErmICIKW6PrtqrqqZXMUenlTQ3FYvHPK5yDiChUBvhUpXNUfK2oAB8+1XVPqHQeIqIwNLpuK4CWSuepOExV9dgh4MuVzkNENN1aXHeer/pvNuYq90End07+3qi+33XdM20UREQ0XfqBzwBYPPk1EflpOXOV90TpWOyTAF48YH3g+ubm5gXlzEdENN3SrnsWVD8++TUBOiFyYznzlXuYn3eAT09+QVWXDQ8NfbfM+YiIps2prnuCD/wXJt2HLyKj8ZqaD5Y7Z9nnTK+86qqvQ+Rnk19T1TbXdT9W7pxERNW2YsWKmkHgv1TVm/y6AJ/t6el5rNx5yw7T9vZ2U1tb+/sisu+AN1T/0fO83y93XiKialFV2f/cc9er6gH34IvInVeuX/+VSuauqJu/Z8+eHnGc3wOgk+tSY77X6LprK5mbiMgmVZWU635LVQ94roiI5OrnzXtve3u7qWT+ii+Nymazd4jjfPSgl+O+6o2u636g0vmJiCrV0tKS8Dzv3xW4+qC3BhS4tKur6+lK17DygOdcLvevAvzrQS/HoLrBdd3PqmrZDw8gIqpEKpU6rr+//zaovnfy6yIyFhO5Ip/P/8rGOtaelp/r7/8IRL7xijdUP+953h3Nzc0n2lqLiOhoeJ53hjHmV1A9f/LrIjIGkXf15fP/a2stqx89ks/nP+SI/NMr3lC9cHho6OHSbVtERFXV1NRUl3Ldz6sx/wfV9EFvvyiOszaXy91qc03rn+OUzef/CiJ/CsCf/Lqqur7qJs91b02n00ttr0tEBACpVOqdhbGxR4zqZwHEJ78nIv0JkXOz2exm2+tW5UPx8vn8t5xY7B0A9h78nqpe7BeLj3uu+z3P8yp65BUR0YRUKvVO13V/bnz/dlVddvD7AnQmamre2JPP/7Ia61ftE0az2ezdtXV1p4vILQe/p6oJVX2/GvOY57odqVTq8hUrVtRUqxYimp2WLVt2UiqZ/LDnug8b378dqqsO3kZEChD53JlnnXVed3f3K3bwbIkfeZPy7dmz50kAa1LJ5PsM8M8ATj5oE0dV16jvr9n/3HPPecnkbSqypba2dsuePXt6qlkbEc087e3tzveuueYNRZG3AzhveGjo7QDiUJ1yexF5QBxnXS6b/c3GjRurWpukksl1Brg2yKBYPO719fXlg4xZvnx5w8DAwKcE+HNVrT+KIU8BeBwiO0SkV4wZMCIDAIZw4E0CRDTLOOOXVs5Xx2mAMYtUZBmA5VBdDuCYI04g0uuo/k1fPv8fIhIoLzzPu1qN+XaQMbV1dadUdc90sh07dgwA+OSSJUv+dXR09CNQvRrA4Z4ydRKAk6B6jqqOp+chfvsQ0ezy0q1IpvTVUf7bF5FdAnz55GTy+q1btxZEpu8S96qdMz2UPXv2PJnP5z9xwoknuo7IlSJyL7inSUTlEhkSkf+GyPnZXG55Np/fsHXr1sJ0lzFte6YH27Zt2yCADQA2pFIpzxjTCuAdApyrqseFVRcRRZ+IdCnQ6TjO5pONuWNrPj9Uej20mkIL08my2WwOwDcBfFNVpbGxcRmAlar6GhjTCBFPgYVQrReRWvD2VKLZTcQAGIbqMESehkgOxvSoyCP19fXbdu/e/dTEptkQy5wsEmE6WelkcVfpDxHRjDDt50yJiGYjhikRkQUMUyIiCximREQWMEyJiCxgmBIRWcAwJSKygGFKRGQBw5SIyAKGKRGRBQxTIiILGKZERBYwTImILGCYEhFZwDAlIrKAYUpEZAHDlIjIAoYpEZEFDFMiIgsYpkREFjBMiYgsYJgSEVnAMCUisiAedgGVamtri91zzz1uIpGYD2AkkUjku7q6RsOui4jmlhkZpo2Nja76/h8ocOm999zzJqjWFMbGAACFsTHfc91HBdjsxOM/7O3t3R5yuUQ0B8yoMF26dOnCkZGRvzO+f5Wq1hxis5iqnqbAaaZQ+JjruplEIvHRnp6ePdNaLBHNKTPmnGljY+PrRoaHfwXVDx0mSA8mUL2sMDb2a8/zLqlqgUQ0p82IME2lUqv9YvFeAEvKnKJBjelwXfeDNusiIpoQ+TBNpVLNasxNABoqnMqB6tdTqdQ7bdRFRDRZpMO0paUlob6/SVWPtTSlo8b8p+d5KUvzEREBiHiY7t27988UeJ3NOVV1oar+o805iYgiG6arV6+OQ/XjVZlc9T3pdHppVeYmojkpspdGdXV1na+qycNtIyIPKHAjgF85jvMUgGNV9dUwZo0CF+HQvywc3/ffB+DvLJdNRHNUZMNUVS88zNt7YsCf9OXz/zPFe3cDuCaVSp1mjPk2VFcdZn6GKRFZEdnDfBjz+qleFpEH5ou8pa+/f6ogfUk2m/1NMpn8LQF+NOUGqlPOT0RUjuiGqcgrOu4i0ldXX79mZz7/zNFMsXXr1sKrli9/v4zvrR5s/tKlSxdWXCcREaIcpkDtK14R+cju3bufCjJJZ2dnUWKxdQCKr5xOXrkGEVEZIhumqvrC5O9FZGcul/txOXNls9ldIvKKsaOjowPl1kdENFlkw1REdh/wPdBR4YSbDpq/P5vNDlc0JxFRSWTDFKr3H/CtyCOVTBeLxQ58FJ/qfZXMR0Q0WWTDNJZIHLwn+mwl8zmO8+xBL1S2p0tENElkw7S3t/dRiPx80ksnVDKfMeb4ia9F5Nnjjz/+xkrmIyKaLLJhCgCO43xm4mtRrege/WKxeNrE1wp8adu2bYOVzEdENFmkwzSbzXYKcA0AKNCqqlLuXAK0AoCI3J9MJr9qqUQiIgARD1MAOMV1PwSRn6lqs+d57y5nDtd1l6vqu0Qkm6ipuWzr1q0F23US0dwW+TDdunVrwXGcVgE6BfjnpqamU4KMb2lpSQD4roj0xBOJC7q7u/dWqVQimsMiH6YAkM1m953iuhcosKkwOnrzsmXLTjqacc3NzbV7+/uvBzAojvOWnp6ex6pcKhHNUTMiTIHxPdR8Pv8hOM6Hh4eHv+B53sWH236x675xeHDwqxC5MZ/PX5TNZvdNV61ENPdE9hF8h5LL5e4DcN+SJUsWe573NgDZRYsW7X/ta187vGPHjrrBwcFjisPDKd9xirls9uqw6yWiuWHGhemEPXv29ADoAYBcLoft27cDwGDpT6CHoRARVWrGHOYTEUUZw5SIyAKGKRGRBY46zmjgQY7DhyoT0awkxgTON1UddcSYwA9I9n2/IegYIqKZQB1nftAxTU1NLzpGJHCYOsacHHQMEdFMoKqB7rIUkeHOzs6ikwACX8xugOVBxxARzRBB820fADh1DQ27gq5kgNODjiEimhGCfgy86i4AcHbs2DEgIvkgY0X1twItRkQ0A6TT6RUAjurZH5M8Drx8aVSgB4AosHTx4sWvCbggEVGkmWLxkqBjZHKYCvDzw2/+SsVi8feDjiEiijKjGjjXnFJ+jodpLLYl6ARqzAeamprqgo4jIoqixsbGcwCsCDJGRJ77wFVX/QoohemCBQvuh8hQwLVPLo6NXRlwDBFRJPm+/+mgYxTobG9vN0ApTLdv3z4mwC1BJzKqn2lqaloUdBwRUZSkUqmLoHp+0HEO8ONJX48Tx7m+jBpOKoyOfqmMcUREkdDiuvPUmG+UMXTgZCAz8c1LYdrc3Py/AJ4MOpsCV6WSycvKKISIKHR7gW+q6rKg40Tkx1vz+ZdOj74Upp2dnUVxnG+WU4yKfL+xsbGiz7UnIppurut+UFX/qKzBIl+b/O0Bj+BLJBJfB/BC0DlVdaHx/c2LFy9eUlZRRETTzPO8d0P16+WMFZFbc7ncw5NfOyBMu7u794vjlHPuAKrqFQuFn6dSqdPKGU9ENF1SrnulGvMfKPOZzuI4Xzj4tVdMVF9f/2UR6S9nAVV1je//3PO8tnLGExFV04oVK2o8z/s3o3odgFhZk4j8ZzabfeDgl18x2b59+0YbGhpyAK4oayGgFqptCxYsWJxsaLjn2YGBoNevEhFZl04mW4ZGRjqgWknD/IVETc2a559//sWD35gymQcGBh5pWLDgTACBO1yTvKEgcmVDQ4Om0+ltTz/99FgFcxERlaWxsXHZgvnzv+ID3wTgVjKXI/Kxvmx2yjtG5VCDmpqaThkbHX0YQMUPghaRfQr8eywWu6G3t/cXIqKVzklEdChNTU11xdHRdxqRP4DqpSj3kH4SEbk5l8+vPeT7hxvsed471Jj/hd0P3ntaRDohsg3ADhF52vH9AROLcc+ViMoxzxjTAKARwHIB3gLgDFW19+wQkd54PH56b2/vc4fc5EhzeJ73ETXmn60VRUQ0swwkRFb35PO/PNxGR9z1HRgYuG/hggXHKLDKXm1ERNEnImPiOGv68vl7j7TtUR2+9+Vyn4DIdZWXRkQ0M4hIQRznd3O53J1Hs/1RhamIaD6fXw+RL1dWHhHRjDDoqF6azWZvPNoBgTpcAwMDP13Q0PA8gPNhtylFRBQVTzqx2EXZfP7/ggw6YgNqKqlU6lw15j9UtaJrtoiIokRE7krU1Pxud3f33qBjy9q7zGazd9fPm3e6iNxazngioigRkTGItK9bv/68coIUKHPPdLJUMnmZinxVVRsrnYuIaLqJyJYE8Kfd+fzjlcxT8V0BL7z44uNLliy5dnhkZFiA1wOYV+mcRETVJiLbxHH+LJfPf3L/wMAzFc9no6gJK1euPObZZ5+9Wo35MwBNNucmIrJC5GcAvpLL5W6xeWu71TCdoKqSTqfPVt//QwXWqurx1ViHiOhoiMgOAf5LYrEb+vr6dldljWpMOpmqiud5p4vI22HMmQq8RkSWqWpNtdcmorlHRJ6H6k6IPAKRu1V1Sz6f76v6utVeYCptbW2xBx98MI1C4VjfcRpUtUFEGK5EVI4hx5gB4zgD8Xj8qXK78ZX6/64xPAN3qYfkAAAAAElFTkSuQmCC;textShadow=0;labelBackgroundColor=none;" parent="1" vertex="1">
          <mxGeometry x="460" y="80" width="70" height="90" as="geometry" />
        </mxCell>
        <mxCell id="9cwglLM5n4MLdlPzuKQn-30" value="" style="shape=image;verticalLabelPosition=bottom;verticalAlign=top;imageAspect=0;image=data:image/png,iVBORw0KGgoAAAANSUhEUgAAAVMAAAG3CAYAAAAJnrbgAAAACXBIWXMAAC4jAAAuIwF4pT92AAAE7mlUWHRYTUw6Y29tLmFkb2JlLnhtcAAAAAAAPD94cGFja2V0IGJlZ2luPSLvu78iIGlkPSJXNU0wTXBDZWhpSHpyZVN6TlRjemtjOWQiPz4gPHg6eG1wbWV0YSB4bWxuczp4PSJhZG9iZTpuczptZXRhLyIgeDp4bXB0az0iQWRvYmUgWE1QIENvcmUgOS4xLWMwMDEgNzkuYThkNDc1MywgMjAyMy8wMy8yMy0wODo1NjozNyAgICAgICAgIj4gPHJkZjpSREYgeG1sbnM6cmRmPSJodHRwOi8vd3d3LnczLm9yZy8xOTk5LzAyLzIyLXJkZi1zeW50YXgtbnMjIj4gPHJkZjpEZXNjcmlwdGlvbiByZGY6YWJvdXQ9IiIgeG1sbnM6eG1wPSJodHRwOi8vbnMuYWRvYmUuY29tL3hhcC8xLjAvIiB4bWxuczpkYz0iaHR0cDovL3B1cmwub3JnL2RjL2VsZW1lbnRzLzEuMS8iIHhtbG5zOnhtcE1NPSJodHRwOi8vbnMuYWRvYmUuY29tL3hhcC8xLjAvbW0vIiB4bWxuczpzdEV2dD0iaHR0cDovL25zLmFkb2JlLmNvbS94YXAvMS4wL3NUeXBlL1Jlc291cmNlRXZlbnQjIiB4bWxuczpwaG90b3Nob3A9Imh0dHA6Ly9ucy5hZG9iZS5jb20vcGhvdG9zaG9wLzEuMC8iIHhtcDpDcmVhdG9yVG9vbD0iQWRvYmUgUGhvdG9zaG9wIDI0LjYgKFdpbmRvd3MpIiB4bXA6Q3JlYXRlRGF0ZT0iMjAyMy0xMS0xNlQwMDowMTo0NyswODowMCIgeG1wOk1ldGFkYXRhRGF0ZT0iMjAyMy0xMS0xNlQwMDowMTo0NyswODowMCIgeG1wOk1vZGlmeURhdGU9IjIwMjMtMTEtMTZUMDA6MDE6NDcrMDg6MDAiIGRjOmZvcm1hdD0iaW1hZ2UvcG5nIiB4bXBNTTpJbnN0YW5jZUlEPSJ4bXAuaWlkOjJkY2IwNzJhLTJmZjEtMmE0Yy04Yjg2LTNkNjZiYWQzYjZhMiIgeG1wTU06RG9jdW1lbnRJRD0ieG1wLmRpZDoyZGNiMDcyYS0yZmYxLTJhNGMtOGI4Ni0zZDY2YmFkM2I2YTIiIHhtcE1NOk9yaWdpbmFsRG9jdW1lbnRJRD0ieG1wLmRpZDoyZGNiMDcyYS0yZmYxLTJhNGMtOGI4Ni0zZDY2YmFkM2I2YTIiIHBob3Rvc2hvcDpDb2xvck1vZGU9IjMiPiA8eG1wTU06SGlzdG9yeT4gPHJkZjpTZXE+IDxyZGY6bGkgc3RFdnQ6YWN0aW9uPSJjcmVhdGVkIiBzdEV2dDppbnN0YW5jZUlEPSJ4bXAuaWlkOjJkY2IwNzJhLTJmZjEtMmE0Yy04Yjg2LTNkNjZiYWQzYjZhMiIgc3RFdnQ6d2hlbj0iMjAyMy0xMS0xNlQwMDowMTo0NyswODowMCIgc3RFdnQ6c29mdHdhcmVBZ2VudD0iQWRvYmUgUGhvdG9zaG9wIDI0LjYgKFdpbmRvd3MpIi8+IDwvcmRmOlNlcT4gPC94bXBNTTpIaXN0b3J5PiA8L3JkZjpEZXNjcmlwdGlvbj4gPC9yZGY6UkRGPiA8L3g6eG1wbWV0YT4gPD94cGFja2V0IGVuZD0iciI/PsqQcCMAADDoSURBVHic7d15fBxnfT/wz3d2V4dj2c6dnVmtZVvEgIkJiCtxDhdy0SS2EiIopRc0dlJaSstRaLlECy209OAmCeZI6PGrSbzK6RbiKIXcGIKJk9iWYx27K+dynCg6d+f5/v7QKpEd+ZjdZzUj6fN+vfx6SbvzPM9XTvzRzHxnZgUhanHdeftqaxsKhUKD4zg1YdZCRDOPiKiIDBcKhYFFixYNbN++fSy0WqZjkeXLlzcMDg6eraqrYMyrFVguIs2qWjsd6xPR3CAi+wHsgOoOEdkOx+k844wztm7cuNGv+trVmnjx4sXJQqHwPgEuV9U3A4hXay0iokMRkecV6ATwnzU1NR3d3d0jVVnH9oSe512sqh+C6nkAYrbnJyIqVylY/7sG+JfufP5xq3PbmERVpbGx8XI15lOq+gYbcxIRVZERkR+L43wxm81uszFhxWGaSqVOM8Z8C6pn2SiIiGgaGRH5TqKm5lPd3d37K5mo7MPwFStW1NQmEl8yxnwfQFMlRRARhUQAvNn3/Q8sWLiwd2BgYHslEwWWTqeXFguF/wbQUu7CRERRI8C1idraD5fTpAocpp7nXQzVf1fVhUHHEhFFnYj8uhZY80Q+3xtknBNkY8/z/kiNyTBIiWi2UtXXjwL3pNPpFUHGHXWYep73UR0/P8rrRYloVlPVlF8s/iyVSr31aMcc1WF+KplcZ4Bryy+NiGjmEZF9sXj87N7e3kePuO2RNkglk5cZYCN4AT4RzUEiklXgzHw+33fY7Q73ZmNj4+uM7z+oqvUWa1MBtqvIrwHsFJGnxJgBdZyCxTWIaO6oF9UGAzQCWC7AW1Q1aXUFkV/OmzfvzK6urtFDbnKoN1auXHnMM08//RCA11goxUDkThG5ob6+fnNXV9fTFuYkIppSk+u+uqB6mYr8AVRfbWNOR+Sb2Xz+zw71/iHD1HPd76nq+ytcvygiN4jj/EM2m91V4VxERIGlUqmL1JjPqOqZlc7lAJdn+/s3TfXelGGaSqVWG9+/q6JVRe5xHOeDtu57JSKqRKPrvtdX/RcAp5Q7h4jk5zc0vHrHjh0DB7/3ikujWlpaEsb3v1XuYgB8iHxu/fr15zBIiSgq+vL5/5wvchqAzeXOoaruiy+88Pmp3nvFnqmXTP6FAv9a1koiQ47jtGWz2dvLGk9EVGWqKinP+ydV/WiZUxQh8rp8Pr9j8osH7Jk2NzfXQuSvylzgRRE5j0FKRFEmIprL5z8mjvPpMqeIC/DXB794QJgODw9/oJxLCkSkEBe5PJfL3VdmcURE0yqXy31RyjwKV9X3NTU1NU1+zTloi4+UM7Gofrw3n/9JOWOJiMKy7qqrPiYiPy1jaLxQKHx48gsvnTNNu+6qourPg84oIrfk8vk1ZRRDRBS6ZcuWnTQ8NPQIgBMDDn3q1OXLvc7OziIwac/UV/2DMuoYrAUOeRErEVHU7d69+ylxnHJ6RSft2rXroolvHABob293INIWdCZH5CtBn/lHRBQ12Wz2hxD5ZeCBxrxn4ksHADZs2PBGVT024DQDTjz+1cCLExFFjIio4zhfLGPgOya+dABAff/tZSx+Q29v73OBFyciiqC+vr5NEAl0pK2qySbXfTUwEaaq5wZdWBzn+qBjiIiiSkRURH4UdFxB5FxgIkyB1wYcvzebzT4QdFEioigTkY6gY1T1tQDgNDU11QFIB1yxsoegEBFF0BlnnLFVRJ4POGz8ML9YLL4KAT9YT0R+EXAxIqLI27hxow/VhwMNUj0VABxVDXqhKgDsOPImREQzUtB8OxEAHEe1oYzFcmWMISKKPBUJmm/HtLe3O446TuAwdRznFQ9GJSKaDUQkcL796Ec/mu/A98v5sLzhMsYQEc0EgfPN9/36QI0nIiKaGsOUiMgChikRkQUMUyIiCximREQWMEyJiCxgmBIRWcAwJSKygGFKRGQBw5SIyAKGKRGRBQxTIiILGKZERBYwTImILGCYEhFZwDAlIrKAYUpEZAHDlIjIAoYpEZEFDFMiIgsYpkREFjBMiYgsYJgSEVnAMCUisoBhSkRkAcOUiMgChikRkQUMUyIiCximREQWxMMugGgqS5cuXVgoFI4RkTrf9+OJRGIMwEixWHw+m80Oh10f0cEYphSqVCrVDGNWAzhdgdeq6lIROWVkeLh28nZjo6Mvfe0mky+ISD+AHQo86qg+iFjs7mw2u296qyd6GcOUplVbW1vs/vvvX2WKxVYFLje+v/jgbVT1SNMsUNUFAJYDWGMAwPfVc90HBbhJRTK5XG6n/eqJDo1hSlXX4rrz+oHzBGi995571qjq8VVYRlT1rQq8Fapf9lx3B0RuEpFMX1/fQyJyxIQmqgTDlKriVNc9YVDkt1W1dS9wEVTrpzPNVHU5VP9agb9OeV6/57oZB8gsOPbYzu3bt49NYyk0RzBMyZrFixcv8QuFSxVofVH1HKjGACDsXUJVTQL4Ex/4k+f27RtwXfdWEcnU19dv7urqeiHk8miWYJhSRTzPe72qtgrQWhgbOz3seo5CA1Tfq6rvHR4aGvOSyTsFyEg8fmtfX18+7OJo5mKYUiBtbW2x++677yxVbVVjLlNjFgPh732WQ1VrALxTgXeiWFTPde8XoMMAmXw+vyPs+mhmYZjSEbW47ryngPPNyw2k48KuqQpEVc9Q4AwAX/Jcd6cCNzmOk+nr63uQDSw6EoYpTanUQLq41EC6UFXrw65pOqnqqQA+aXz/k57r7vWSyfEG1nHH3cUGFk2FYUovWbx48RJ/bGxNqYF0dlQaSBFwigJX+8DVz+3bN+C57m0KZOrq6jY/8cQTz4ddHEUDw3SO8zzvdFFt1fEG0uvDrmcGaFDV3wHwO6MjIwU3mbxTHCfjOM4tbGDNbQzTOWb16tXxrq6u8QaS6mVqTJp7nuVR1QSAi9SYi3xjvu257gMCdMSBTHc+/3jY9dH0YpjOAS2uO+9J1QsVuGzXzp0XR7iBNCgi9yuwXUS6xZinAAyp4xREpNYYs0BUTxGRZgOcDtXTEZ0nn4mqvk2Bt40B/+C57i4BMiqyKZvN3s8G1uzHMJ2lmpubTxweHn65gQTUAQCOfN/7tBKRfgVuFZGORYsW/SRIc8fzvOMnTlEAeEeUmmSq+ioFPg7Vj5caWB0Si2Xq6uru6urqGj3yDDTTMExnkXQ6vdQvFNYAaB0aHDwbpb22aMUnICK7BMgYIJPN5e6b2GvL5XKB5snlcs8C2ABgQ4vrznsyFnun+n4rRN5Zpfv/y3WKAlep7181NDg44Lnu7aUG1h1sYM0eDNMZznXdNzhAqwKtxUJhZdj1HIIK8AsAmYTITZPPJ4qIlQW25vNDAG4EcGNbW1vs3nvvPVdVW6F6KYAmK4vY0aCq7wHwntGRkYLrultEJCMit2Sz2WC/TShSJJVMrjPAtUEGxeJxj53LcKxevTq+a9eus1W1FUArVNNh1zQVERlT4G4AmUQisamnp6c/rFoWu+4bi+OnAlpV9bSw6jgCFZEHodoRr6nJ9PT0PBZ2QXOV53lXqzHfDjKmtq7uFO6ZzgArV648Zt/TT1+gQOuunTsvVdVjw67pEF4Qkf8RIFM3b96tUXmISE8+/0sAvwTw2aampqZCoXB5aa/1TACxkMubIKr6VgBvLYyN/b3nursU2CQimXXr1j3Q3t5uwi6QDo97phHV3Nx84tDQ0CUyvkd1garWhV3TVESkH6q3SCzWsXDhwp/OpLuDPM87XlXXlv6Oz4tSA+sgTwow0cDawgZWdXHPdBZIp9NLfd9fq8a0Dg0OngXAiVrzCABEZKcCGRHJTL7sJ5vNhl1aIKUG1vcAfK/UwLqo1MD67Yg1sE5WYL36/vpSA+sOB8gk6upuZwMrOhimIZt8Pq9YKET3fB7wEMavm7wpN+mJSrYaSGErNbBuAnBTqYF1TulUwBpEr4H1bh94txlvYN1VamDdzAZWuHiYP81KDaRzJp4BqqqNYdc0lVIDqVNEMvF4PBNmAylsk6+YUNUoXzHxEICOWCKR6e3tfTTsgmYqHuZH2MqVK4/Zt2/fher7rbt27rxkooEUwUP4F0RkswNkaufNuy0qDaSw5fP5XwH4FYDPlRpYl6kxrQBWIUoNLOAtAN5SLBS+OHEHlgEy69evv58NrOrjnmmVlBpIl5aaG+dHuIGUn9RAunMmNZDCVmpgrZHxvdbzoDov7JoO4UmI3Ow4Tqauru5ONrAOj3umEdDY2LjMGLNWVVuHBgdXIboNpB2TGkgPzNQGUthKDazvA/h+KpWqh+9fpEArxp8DG6kGFlTXGd9fNzQ4+KLnuncIkInX1Nze3d29P+ziZguGaYXSyWSLX2og+cXi68Ku5xBURB4sHfZtmo0NpLBls9lhAJsAbCp9tMvZpY92WYtoNbDmq2qbAm2FsbGC67qdGP/FenMul+Nv0wrwMD+gUgPp3FIDaW3EG0h3iUgmkUhkuru794Zd01w1+ZmxqhrVZ8aO3/LrOB2xWCzT29u7PeyCwsLD/CpSVUm77gUGeF+UG0gi8jyAzRC5af78+Xfs2LFjIOyaCMjlcg8DeBhA+5IlSxYXRkbGgxU4G9FqYL0Zxry5aMwXPNftUuDHiUTiet7aenS4Z3oEja77XgN8TlWXh13LVEoNpJsdkU0nJZN3bd26tRB2TXR0PM87HsAlqnoZgPOj2sAS4HY4zt/kcrlfh13LdOCeqWVNTU1NhdHR7/uqq8OuZQqPQaTDcZxNfX19D000kPryc+L326xRamD9EMAPU6lUvRhzoRnfY70YqieEXd8EBX4bxlzkJZP/Vn/MMX/DqwGmxjCdQtp1VxXGxjoUiEpHVkXkgYknt+dyuZ0Tb7CBNDuUGlgZAJlSA+usSQ2sJeFWB2D8ypSPDA8Nve1U1127M59/JuyCooZhehDP867wVX+kqrVh1iEiY1C9E47TkUgkOthAmjs2btzoY/zxhXcD+EvP814/qeH5hjBrU9UzB0XuS6fTF/b29j4RZi1RwzCdJJVKrVZj/qP0QWnTrtRAukOBzPyGhtvZQCIAKJ2r/DWAz0ehgaWqzX6xuDmVSr0tm83um+71o4phWuJ53qlqzE3THaQikgNws6PacVIyuYUNJDqcPXv29AD4KoCvplKp41T1UlVdC+DC6Wxgqeqr1Pc3tbS0nMf/Z8cxTAG0t7c711177Q+n8aHLj4njZEQkc0ADqX/OPkuEylDaK5zcwLqg1MC6ZJoaWOfs3bv3rwB8cRrWijyGKYDrrrvuKlV9WxWXUBG5v9RAyrCBRLaVGlgdADra2tpi999//ypTLE58cmv1Gliqn06lUv8vm812VW2NGWLOh2lzc/OC4aGhv7c9r4iMQnWLjD/Et2PPnj1P2l6DaCqlBtb/lf58JJVKrTTGTDzy0WoDS1Xr1JivYDy057Q5H6YjQ0NXq+oiG3OJyPMK3C4iGd6BRFGRzWa3AdgG4G+Xum567OVns54NGxmguiadTr92rj9Ddc6HqQLrKxlfaiB1OEAH70CiqHsin+8F8DUAXys1sC4pfdJtJQ0s8QuFKwF8xFadM9GcDlPP805XY5aVNVjk3x3H+RrvQKKZqtTAuh7A9S89QlDkM2WdChC5AnM8TJ2wCwiTqp5XzjgHuCqfz/9eNpt9cCJIiWaybDY7nO3v33RKMvlWGf8srEBUtdHzvFOrUdtMMafDVIA3BR8kX8/29wd6MAzRTLF169ZCorb2fRB5POhYMebN1ahpppjTYaqqzQGHvFhTU/PZqhRDFBHd3d0jjuN8Kug4I1LeKbNZYk6HKYDjgmwsInfxYx5oLli4cOGtIhLo88BEJNC/p9lmToepiAR6mIkCfNgIzQnbt28fU9XnAg0yJtSHA4VtTocpER1W0ObqnL6dj2FKRGQBw5SIyAKGKRGRBQxTIiILGKZERBYwTImILGCYEhFZwDAlIrKAYUpEZAHDlIjIAoYpEZEFDFMiIgsYpkREFjBMiYgsmNMfqBdF6XT6WABuNdcQkX09PT39QcZ4nndqLBZLVKumcsyWn6McS5cu3dHZ2VkMuw56GcM0Ykyh0GaAa6q5hgDXArgq0CDVzmKhkKxOReUp5+dQY+4uGnNKlUqaNt3d3UnwYeWRwsN8IiILGKZERBYwTImILGCYEhFZwDAlIrKAYUpEZAHDlIjIAoYpEZEFDFMiIgsYpkREFjBMiYgs4L35EeMkEj9V3393NdeIq+4OPEhkvYjUV6GcspXzc4jjrAMQqZ+jTPvDLoAOxDCNmN7e3icAPBF2HQfL5XK3hl2DDbPl56Do4WE+EZEFDFMiIgsYpkREFjBMiYgsYJgSEVnAMCUisoBhSkRkAcOUiMgChikRkQUMUyIiCximREQWMEyJiCxgmBIRWcAwJSKygGFKRGQBn2cahOo6N5lcF3YZRBQ93DMlIrKAYUpEZAHDlIjIAp4zDUBENsbi8faw6yCaDsVi8W6onhB2HTMFwzQABfb39vY+GnYdRNPBTSaLYdcwk/Awn4jIAoYpEZEFDFMiIgsYpkREFjBMiYgsYJgSEVnAMCUisoBhSkRkAcOUiMgChikRkQUMUyIiCximREQWMEyJiCxgmBIRWcBH8EVMOp0+FoAbdh2z1dKlS3d0dnYe9aPlovrfI+jPQdXHMI0YUyi0GeCasOuYrbq7u5MA9h7t9r7vv1uN+U4VSypL0J+Dqo+H+UREFjBMiYgsYJgSEVnAMCUisoBhSkRkAcOUiMgChikRkQUMUyIiCximREQWMEyJiCxgmBIRWcB78yMmVlPzEy0W28KuYxbbH2TjWCz2Ex+I4n+P/WEXQAdimEZMT0/PHgB7wq6DxvX29j4B4Imw66Do42E+EZEFDFMiIgsYpkREFjBMiYgsYJgSEVnAMCUisoBhSkRkAcOUiMgChikRkQUMUyIiCximREQWMEyJiCxgmBIRWcAwJSKygI/gC0hVJewaiKaD57phlzCjMEyDUF3nue66sMsgoujhYT4RkQUMUyIiCximREQW8JxpACKyMZ5IfC7sOoimQ6FQ+D+onhB2HTMFwzQABfb39PQ8FnYdRNPBTSaLYdcwk/Awn4jIAoYpEZEFDFMiIgsYpkREFjBMiYgsYJgSEVnAMCUisoBhSkRkAcOUiMgChikRkQUMUyIiCximREQWMEyJiCxgmBIRWcBH8EVMOp0+VlW9sOs42LJlyx7v7Ow86keylfNzTMcas0XQvyuqPoZpxJhCoc0A14Rdx8H27NnjAug/2u3L+TmCruH7/rvVmO8EWWO26O7uTgLYG3Yd9DIe5hMRWcAwJSKygGFKRGQBw5SIyAKGKRGRBQxTIiILGKZERBYwTImILGCYEhFZwDAlIrKAYUpEZAHvzY+YWE3NT7RYbAu7joOJyHNBti/n5wi6Rjwe/99iBP+upkM8Hg/0d0XVxzCNmJ6enj0A9oRdR6Wm4+eYLX9XNDvwMJ+IyAKGKRGRBQxTIiILGKZERBYwTImILGCYEhFZwDAlIrKAYUpEZAHDlIjIAoYpEZEFDFMiIgsYpkREFjBMiYgsYJgSEVnAMCUismBOh6mqFoJsL8CiKpVCFCnt7e2OiCwMMkZFxqpVz0wwp8NURPYH2V6B32pubq6tUjlEkXHdddedq6r1QcYIsL9K5cwIczpMNehT2lVPGBka+ovqVEMUDaoqqvq3gcfN8U89mNNhKiK/DDpGgb91Xfe8atRDFAWNnvePUD0r6Lhy/j3NJnM6TGOqdwUdo6o1Atzqed6nUqnUcdWoiygMixcvfo2XTG40qh8LOlZEnj3zzDMfqUZdM8WcDtO3rlp1H4Ang45T1Vo15gtqzF43mbzDdd0PplIprwolElWV53mne677t57rPlwYG3tUgSvKmUeAjo0bN/q265tJ5vSnk27cuNF3XfcHUP1EOeNVNQHgIqheZHz/G57rPihAxonHb+7t7X3UcrlEFVu9enV8165d5wBYA9XL1ZhGG/MaYIONeWayOb1nCgCxWOxrIjJqYSpR1bca1X8oFgrbPdfd6brulzzPe1t7e/uc/3um8KxcufKYRtdt9Vz3B7t27nxKjblTjfmwqloJUojck8/n77Uy1ww2p/dMAaCvry/vJZP/BODTNudV1VcB+ISqfuLaa6550ksmMxKLZerq6u7q6uqyEd5Eh9Tc3Hzi8PDwxara+uwzz1yoqnVVWso4jvPRKs09o8z5MAWARG3tFwtjY+8pBWA1nKzAVer7Vw0NDr7oue5tCmRqamo2d3d376/SmjTHNDY2LjPF4qUAWocGB89G6chTq7imiHwnm80+UMUlZgyGKYDu7u6RtOu+3xfZoqo1VV5uvqq+B8B7CmNjBdd1O0XkJgC35nK5bJXXplnGdd03iOrlEFnjF4srp3NtEdlRP2/eX0/nmlHGMC3pzefv8TzvSqheP11rlhpY56vq+QC+5SWTDwHIxGtqMj09PY9NVx00c5QaSGeraqsAl6lqowKAVnP/cwoizzix2MVdXV0vTO/C0cXGyCS5XO4GR+STIS0vCrxFgb8vjI096rnurpTr/pPneWewgTW3rVy58phUMnmZl0zeUGogbYHqn1trIAUkIvtFZE1fX9/uMNaPKkklk+sMcG2QQbF43Ovr68tXq6iweZ73+1D97jQc8h+tJwXoKDWwtrCBNfstW7bspOHh4YsFaAVwQRUbSEF1J2pqfns2Hzl5nne1GvPtIGNq6+pO4WH+FHK53A1p132iCNwAYEnY9WC8gbVefX/90ODgi14yudkRuSlWU3MHG1izR2Nj4zJjzBpVvXx4aOhMAM40H7wflgC3182b9/7du3c/FXYtUcQwPYTefP6elStXnvbsM898QlX/AkBD2DWVzFfgCl/1Cn90tOi67hYRyajqrfl8vi/s4iiYdDLZ4ousheplfrH4urDrmYqIdEHkU7lc7r/DriXKeC7uMLZt2zaYy+c/W1NbmxbgLwFsDbumg8SheoEa8y2o9rrJ5ENeMvk36XR6RdiF0dRWr14d9zzvHa7rft1z3b4i8AtV/YwCkQpSERkVkZudWOxdZ65a9WoG6ZHxnGlAS5YsWTw2MnIZgFYFViGie/ci0iXAJgNk1q9ff397e7sJu6a5asWKFfOff/75C9T3WyFyqaouCrumqYjI8wA2K5BpaGi4bceOHQNh1xSGcs+ZMkwrkEqljlPVNaraCuB8qM4Lu6ZDeAoiHY7jZOLx+Jbu7u6RsAua7UoNpEtKDaTzI9RAOoCI5KB6q8RimZNPPvnOrVu3Bvr0idmIDagQZLPZfQB+AOAHqVSqXoy50IzvsV4M1RNCLm+yk6C6zvj+ujHff9Fz3Ttk/HrW29nAsieVSjVP/HIdHhpahYg1kCaIyA4FMiKSyWazD4iIAkA2y3tGKsEwtSSbzQ4DyADItLW1xe67776zVbUVxlyqwNKQy5tsvqq2KdA2Nt7Augvj/7Bu5h1YwaWTyRZ/fO+z1fh+pM57TmJE5EEBOuA4N2az2V0Tb4hImHXNKjzMnwae550uqq0KtKrq68Ou5zB+IY6TicVimd7e3u1hFxNFLS0tib17955TugOpVVVTYdc0FREZVdW7xHEyNTU1mT179gR+bu9cxcP8CMvlcg8DeBhA+1LXTY+pXqbjpwPOQrSODt6kxrypaMwXPNfdLcAmB8h8YP36++ZyA6vUQLpQfb91b3//JRMNpKgdwpcaSHcokJnf0HD7XG0ghYV7piEqNbAuVdVWjN+ff0zYNR3CUxC5WUQyiUTizrnQwFq2bNlJo8PDl+rLDaRIfiptqYF0iwNkTnLdLWwgVY57pjNQqYH1QwA/bGpqqvPHxsYbWKoXAzgx5PImOwmqV6rqlWOjo4NeMnmHABknkbi9t7f3ubCLs6XUQFpbaiCdiahehy3yOICM4ziZvr6+BycaSH39/SEXNrcxTCOitLfXAaCjvb3d+e53vzvRwFoTsQbWMQpcocAVplAoeq7bqeONt5tn2h1YqirpdLrFFIutOt5AiurNDkZEHig1kG5iAymaeJg/A3ie9/pJDY/Tw67nMLaK40zsMUXykypbWloS/f395zrj56zXRrmBBNUtAmQSdXUdbCBNHx7mz2K5XO7XAH4N4PNLXTc9Nh4Erap6NqJ1dNGixrT4xvyd57q7AWRi4w2se8NsYK1YsWL+/v37L1LV1r39/RdDdVEUu2kisl+BO0Qks2jRotu3b9/+Ytg10dHjnukMlk6nj/V9f6KBdQGi28B6elID66fT0cBasmTJyYXR0YkG0nkRbiBlAYw3kJLJu9hACh/3TOegUvPnegDXNzU11Y2NjV1QOhVwCaLVwDoRqn+sqn9camBtllgs4zjObTYbWKlU6lXGmLUAWkdHRs5AVBtIwGPiOBkRyfT19T30UgMpz/2TmYxhOkuU9vZuBnBze3u7s2HDhrNMsdgKkTWquizs+iY5RoF3qe+/y/h+0XPduwXIGKAjaAOr1EB6kzGmVY1pNb7/2moVXSEjIvdPaiB1TbzBBtLswcP8OSCVSp2mqq06vtfWEnY9hyIivwHwcwEeg2pWgGcQjw8bY4oiUqOqDap6oqguUZHTBFitqsmw656KiIwC+KkAmdr6+pv5QOWZg4f5dEjZbPY3AH4D4O9c1210Xm5gnYMIHZ2o6mkATjvgzqJicfy9yduNbxzFO5D2K3B7qYF0BxtIc0tk/iHR9CgdSn8dwNdLDaxLYEyrAhciug2syCo1kG6OAZkTk8nOiQZSLpcLuTKabgzTOazU/LkBwA2lBtb5DtBqVC9FtBpYUfPopOtpH5p4sZcNpDmNYUoAXmpg3QLglvb2dmfDNdesMkArRNZGrIEVBgOR+wB0OI6zaXIDiWgCw5ReoXSB/c9Kfz76UgNr/HrWN4Zc3rQQkREAd7KBREeLYUpHNEUDa22pgXUuZtH/Q6UG0m2lBtJmNpAoiFnzD4GmR6mB9Q0A30in08caYy5W329V4CLMwAaWiGQF6DBA5lWnntrZ2dlZBNhAouAYplS2UgPrRwB+1NTUVFcoFM4rnQq4FMBJIZd3ONsFyDjxeKavr+8XEy/m2UCiCjBMyYpSA+tWALe2t7c737v22jNLn420VlWbw60OBiL3AuiIxWKb+vr6dodcD81CDFOyrtTA+nnpz8caGxtfN3HLJ6bpDqxSA2niDqRb2ECiamOYUtWVnm36CIAveJ6XUtW1pQeyrIbF/wdF5Dmo3iaxWOa4447bvG3btkFbcxMdCcOUplXp46S/CeCbS5cuXTgyMnKuiPyWGvNGEVmhqscf5VQKoEdEHoHIA6q65VWnnvrgRAOJnwFP041hSqF54oknnkfpSVcTr6XT6WMBJH3fP0VV5wOod1Tj6jijAEZiqs8hHu83xvRns9nhyfOxgURhYphSpJSuEHgOwKNh10IURFQfnktENKMwTImILGCYEhFZwDAlIrKAYUpEZAHDlIjIAoYpEZEFDFMiIgsYpkREFjBMiYgsYJgSEVnAMCUisoBhSkRkAcOUiMiCssLUGMMQJqJZSVXLyreyBiXGH9pLRDTrOEBZ+VZWmPqxWEM544iIok5Vy8q38sLU9xeWM46IKOpUpKx8KytMRWRZOeOIiKJOVMvKt/IaScYsL2scEVHUiZSVb+V25V9d5jgioshqbm6uVdWmcsaWF6YiZ7S3t/PyKCKaVUZGRs4AECtnbFmBqKqLNmzY8MZyxhIRRZUa8/Zyx5a9d6m+/45yxxIRRVTZuVZ+mALvKXcsEVHULHXdtKqeUe748sNU9Q2NjY2vK3c8EVGUjKr+HgApd3xFTSRTLL6/kvFERFGgqgKRP6xkjorCVIF16XT62ErmICIKW6PrtqrqqZXMUenlTQ3FYvHPK5yDiChUBvhUpXNUfK2oAB8+1XVPqHQeIqIwNLpuK4CWSuepOExV9dgh4MuVzkNENN1aXHeer/pvNuYq90End07+3qi+33XdM20UREQ0XfqBzwBYPPk1EflpOXOV90TpWOyTAF48YH3g+ubm5gXlzEdENN3SrnsWVD8++TUBOiFyYznzlXuYn3eAT09+QVWXDQ8NfbfM+YiIps2prnuCD/wXJt2HLyKj8ZqaD5Y7Z9nnTK+86qqvQ+Rnk19T1TbXdT9W7pxERNW2YsWKmkHgv1TVm/y6AJ/t6el5rNx5yw7T9vZ2U1tb+/sisu+AN1T/0fO83y93XiKialFV2f/cc9er6gH34IvInVeuX/+VSuauqJu/Z8+eHnGc3wOgk+tSY77X6LprK5mbiMgmVZWU635LVQ94roiI5OrnzXtve3u7qWT+ii+Nymazd4jjfPSgl+O+6o2u636g0vmJiCrV0tKS8Dzv3xW4+qC3BhS4tKur6+lK17DygOdcLvevAvzrQS/HoLrBdd3PqmrZDw8gIqpEKpU6rr+//zaovnfy6yIyFhO5Ip/P/8rGOtaelp/r7/8IRL7xijdUP+953h3Nzc0n2lqLiOhoeJ53hjHmV1A9f/LrIjIGkXf15fP/a2stqx89ks/nP+SI/NMr3lC9cHho6OHSbVtERFXV1NRUl3Ldz6sx/wfV9EFvvyiOszaXy91qc03rn+OUzef/CiJ/CsCf/Lqqur7qJs91b02n00ttr0tEBACpVOqdhbGxR4zqZwHEJ78nIv0JkXOz2exm2+tW5UPx8vn8t5xY7B0A9h78nqpe7BeLj3uu+z3P8yp65BUR0YRUKvVO13V/bnz/dlVddvD7AnQmamre2JPP/7Ia61ftE0az2ezdtXV1p4vILQe/p6oJVX2/GvOY57odqVTq8hUrVtRUqxYimp2WLVt2UiqZ/LDnug8b378dqqsO3kZEChD53JlnnXVed3f3K3bwbIkfeZPy7dmz50kAa1LJ5PsM8M8ATj5oE0dV16jvr9n/3HPPecnkbSqypba2dsuePXt6qlkbEc087e3tzveuueYNRZG3AzhveGjo7QDiUJ1yexF5QBxnXS6b/c3GjRurWpukksl1Brg2yKBYPO719fXlg4xZvnx5w8DAwKcE+HNVrT+KIU8BeBwiO0SkV4wZMCIDAIZw4E0CRDTLOOOXVs5Xx2mAMYtUZBmA5VBdDuCYI04g0uuo/k1fPv8fIhIoLzzPu1qN+XaQMbV1dadUdc90sh07dgwA+OSSJUv+dXR09CNQvRrA4Z4ydRKAk6B6jqqOp+chfvsQ0ezy0q1IpvTVUf7bF5FdAnz55GTy+q1btxZEpu8S96qdMz2UPXv2PJnP5z9xwoknuo7IlSJyL7inSUTlEhkSkf+GyPnZXG55Np/fsHXr1sJ0lzFte6YH27Zt2yCADQA2pFIpzxjTCuAdApyrqseFVRcRRZ+IdCnQ6TjO5pONuWNrPj9Uej20mkIL08my2WwOwDcBfFNVpbGxcRmAlar6GhjTCBFPgYVQrReRWvD2VKLZTcQAGIbqMESehkgOxvSoyCP19fXbdu/e/dTEptkQy5wsEmE6WelkcVfpDxHRjDDt50yJiGYjhikRkQUMUyIiCximREQWMEyJiCxgmBIRWcAwJSKygGFKRGQBw5SIyAKGKRGRBQxTIiILGKZERBYwTImILGCYEhFZwDAlIrKAYUpEZAHDlIjIAoYpEZEFDFMiIgsYpkREFjBMiYgsYJgSEVnAMCUisiAedgGVamtri91zzz1uIpGYD2AkkUjku7q6RsOui4jmlhkZpo2Nja76/h8ocOm999zzJqjWFMbGAACFsTHfc91HBdjsxOM/7O3t3R5yuUQ0B8yoMF26dOnCkZGRvzO+f5Wq1hxis5iqnqbAaaZQ+JjruplEIvHRnp6ePdNaLBHNKTPmnGljY+PrRoaHfwXVDx0mSA8mUL2sMDb2a8/zLqlqgUQ0p82IME2lUqv9YvFeAEvKnKJBjelwXfeDNusiIpoQ+TBNpVLNasxNABoqnMqB6tdTqdQ7bdRFRDRZpMO0paUlob6/SVWPtTSlo8b8p+d5KUvzEREBiHiY7t27988UeJ3NOVV1oar+o805iYgiG6arV6+OQ/XjVZlc9T3pdHppVeYmojkpspdGdXV1na+qycNtIyIPKHAjgF85jvMUgGNV9dUwZo0CF+HQvywc3/ffB+DvLJdNRHNUZMNUVS88zNt7YsCf9OXz/zPFe3cDuCaVSp1mjPk2VFcdZn6GKRFZEdnDfBjz+qleFpEH5ou8pa+/f6ogfUk2m/1NMpn8LQF+NOUGqlPOT0RUjuiGqcgrOu4i0ldXX79mZz7/zNFMsXXr1sKrli9/v4zvrR5s/tKlSxdWXCcREaIcpkDtK14R+cju3bufCjJJZ2dnUWKxdQCKr5xOXrkGEVEZIhumqvrC5O9FZGcul/txOXNls9ldIvKKsaOjowPl1kdENFlkw1REdh/wPdBR4YSbDpq/P5vNDlc0JxFRSWTDFKr3H/CtyCOVTBeLxQ58FJ/qfZXMR0Q0WWTDNJZIHLwn+mwl8zmO8+xBL1S2p0tENElkw7S3t/dRiPx80ksnVDKfMeb4ia9F5Nnjjz/+xkrmIyKaLLJhCgCO43xm4mtRrege/WKxeNrE1wp8adu2bYOVzEdENFmkwzSbzXYKcA0AKNCqqlLuXAK0AoCI3J9MJr9qqUQiIgARD1MAOMV1PwSRn6lqs+d57y5nDtd1l6vqu0Qkm6ipuWzr1q0F23US0dwW+TDdunVrwXGcVgE6BfjnpqamU4KMb2lpSQD4roj0xBOJC7q7u/dWqVQimsMiH6YAkM1m953iuhcosKkwOnrzsmXLTjqacc3NzbV7+/uvBzAojvOWnp6ex6pcKhHNUTMiTIHxPdR8Pv8hOM6Hh4eHv+B53sWH236x675xeHDwqxC5MZ/PX5TNZvdNV61ENPdE9hF8h5LL5e4DcN+SJUsWe573NgDZRYsW7X/ta187vGPHjrrBwcFjisPDKd9xirls9uqw6yWiuWHGhemEPXv29ADoAYBcLoft27cDwGDpT6CHoRARVWrGHOYTEUUZw5SIyAKGKRGRBY46zmjgQY7DhyoT0awkxgTON1UddcSYwA9I9n2/IegYIqKZQB1nftAxTU1NLzpGJHCYOsacHHQMEdFMoKqB7rIUkeHOzs6ikwACX8xugOVBxxARzRBB820fADh1DQ27gq5kgNODjiEimhGCfgy86i4AcHbs2DEgIvkgY0X1twItRkQ0A6TT6RUAjurZH5M8Drx8aVSgB4AosHTx4sWvCbggEVGkmWLxkqBjZHKYCvDzw2/+SsVi8feDjiEiijKjGjjXnFJ+jodpLLYl6ARqzAeamprqgo4jIoqixsbGcwCsCDJGRJ77wFVX/QoohemCBQvuh8hQwLVPLo6NXRlwDBFRJPm+/+mgYxTobG9vN0ApTLdv3z4mwC1BJzKqn2lqaloUdBwRUZSkUqmLoHp+0HEO8ONJX48Tx7m+jBpOKoyOfqmMcUREkdDiuvPUmG+UMXTgZCAz8c1LYdrc3Py/AJ4MOpsCV6WSycvKKISIKHR7gW+q6rKg40Tkx1vz+ZdOj74Upp2dnUVxnG+WU4yKfL+xsbGiz7UnIppurut+UFX/qKzBIl+b/O0Bj+BLJBJfB/BC0DlVdaHx/c2LFy9eUlZRRETTzPO8d0P16+WMFZFbc7ncw5NfOyBMu7u794vjlHPuAKrqFQuFn6dSqdPKGU9ENF1SrnulGvMfKPOZzuI4Xzj4tVdMVF9f/2UR6S9nAVV1je//3PO8tnLGExFV04oVK2o8z/s3o3odgFhZk4j8ZzabfeDgl18x2b59+0YbGhpyAK4oayGgFqptCxYsWJxsaLjn2YGBoNevEhFZl04mW4ZGRjqgWknD/IVETc2a559//sWD35gymQcGBh5pWLDgTACBO1yTvKEgcmVDQ4Om0+ltTz/99FgFcxERlaWxsXHZgvnzv+ID3wTgVjKXI/Kxvmx2yjtG5VCDmpqaThkbHX0YQMUPghaRfQr8eywWu6G3t/cXIqKVzklEdChNTU11xdHRdxqRP4DqpSj3kH4SEbk5l8+vPeT7hxvsed471Jj/hd0P3ntaRDohsg3ADhF52vH9AROLcc+ViMoxzxjTAKARwHIB3gLgDFW19+wQkd54PH56b2/vc4fc5EhzeJ73ETXmn60VRUQ0swwkRFb35PO/PNxGR9z1HRgYuG/hggXHKLDKXm1ERNEnImPiOGv68vl7j7TtUR2+9+Vyn4DIdZWXRkQ0M4hIQRznd3O53J1Hs/1RhamIaD6fXw+RL1dWHhHRjDDoqF6azWZvPNoBgTpcAwMDP13Q0PA8gPNhtylFRBQVTzqx2EXZfP7/ggw6YgNqKqlU6lw15j9UtaJrtoiIokRE7krU1Pxud3f33qBjy9q7zGazd9fPm3e6iNxazngioigRkTGItK9bv/68coIUKHPPdLJUMnmZinxVVRsrnYuIaLqJyJYE8Kfd+fzjlcxT8V0BL7z44uNLliy5dnhkZFiA1wOYV+mcRETVJiLbxHH+LJfPf3L/wMAzFc9no6gJK1euPObZZ5+9Wo35MwBNNucmIrJC5GcAvpLL5W6xeWu71TCdoKqSTqfPVt//QwXWqurx1ViHiOhoiMgOAf5LYrEb+vr6dldljWpMOpmqiud5p4vI22HMmQq8RkSWqWpNtdcmorlHRJ6H6k6IPAKRu1V1Sz6f76v6utVeYCptbW2xBx98MI1C4VjfcRpUtUFEGK5EVI4hx5gB4zgD8Xj8qXK78ZX6/64xPAN3qYfkAAAAAElFTkSuQmCC;textShadow=0;labelBackgroundColor=none;" parent="1" vertex="1">
          <mxGeometry x="570" y="80" width="70" height="90" as="geometry" />
        </mxCell>
        <mxCell id="9cwglLM5n4MLdlPzuKQn-31" value="" style="html=1;shadow=0;dashed=0;align=center;verticalAlign=middle;shape=mxgraph.arrows2.arrow;dy=0.6;dx=40;direction=north;notch=0;" parent="1" vertex="1">
          <mxGeometry x="375" y="220" width="20" height="140" as="geometry" />
        </mxCell>
        <mxCell id="9cwglLM5n4MLdlPzuKQn-36" value="Search Request" style="text;html=1;align=center;verticalAlign=middle;resizable=0;points=[];autosize=1;strokeColor=none;fillColor=none;fontFamily=Georgia;fontStyle=2;fontSize=16;" parent="1" vertex="1">
          <mxGeometry x="390" y="290" width="130" height="30" as="geometry" />
        </mxCell>
        <mxCell id="6fZQI7y_ld-G1zzlyXgs-1" value="" style="endArrow=none;dashed=1;html=1;rounded=0;strokeWidth=2;dashPattern=8 8;" edge="1" parent="1">
          <mxGeometry width="50" height="50" relative="1" as="geometry">
            <mxPoint x="40" y="-90" as="sourcePoint" />
            <mxPoint x="800" y="-90" as="targetPoint" />
          </mxGeometry>
        </mxCell>
        <mxCell id="6fZQI7y_ld-G1zzlyXgs-2" value="" style="html=1;shadow=0;dashed=0;align=center;verticalAlign=middle;shape=mxgraph.arrows2.arrow;dy=0.6;dx=40;direction=north;notch=0;" vertex="1" parent="1">
          <mxGeometry x="375" y="-150" width="20" height="140" as="geometry" />
        </mxCell>
        <mxCell id="6fZQI7y_ld-G1zzlyXgs-3" value="Data" style="text;html=1;align=center;verticalAlign=middle;resizable=0;points=[];autosize=1;strokeColor=none;fillColor=none;fontFamily=Georgia;fontStyle=2;fontSize=16;" vertex="1" parent="1">
          <mxGeometry x="390" y="-80" width="60" height="30" as="geometry" />
        </mxCell>
        <mxCell id="6fZQI7y_ld-G1zzlyXgs-4" value="" style="ellipse;shape=cloud;whiteSpace=wrap;html=1;" vertex="1" parent="1">
          <mxGeometry x="265" y="-360" width="240" height="160" as="geometry" />
        </mxCell>
        <mxCell id="6fZQI7y_ld-G1zzlyXgs-6" value="Global Splunk" style="text;html=1;align=center;verticalAlign=middle;resizable=0;points=[];autosize=1;strokeColor=none;fillColor=none;fontFamily=Georgia;fontStyle=2;fontSize=24;" vertex="1" parent="1">
          <mxGeometry x="300" y="-300" width="170" height="40" as="geometry" />
        </mxCell>
      </root>
    </mxGraphModel>
  </diagram>
</mxfile>
